<?xml version="1.0" encoding="UTF-8" standalone="no"?>
<svg id="svg2" xmlns:rdf="http://www.w3.org/1999/02/22-rdf-syntax-ns#" xmlns="http://www.w3.org/2000/svg" version="1.1" xmlns:cc="http://creativecommons.org/ns#" xmlns:dc="http://purl.org/dc/elements/1.1/" viewBox="0 0 20 11">

 <g id="Page-1" fill-rule="evenodd" fill="none">
  <g id="public_page_1200" fill="#fff" transform="translate(-885 -107)">
   <g id="social+link" transform="translate(820 101)">

    <symbol id="vk" height="11px" width="20px"  transform="translate(64)">
     <path id="soc_vk" d="m11.981 16.954s0.361-0.039 0.546-0.23c0.169-0.175 0.163-0.507 0.163-0.507s-0.022-1.545 0.722-1.773c0.734-0.225 1.676 1.494 2.675 2.155 0.755 0.5 1.329 0.391 1.329 0.391l2.671-0.036s1.397-0.083 0.735-1.142c-0.055-0.087-0.387-0.784-1.986-2.215-1.676-1.499-1.451-1.256 0.566-3.8488 1.229-1.5787 1.72-2.5425 1.567-2.9546-0.146-0.3942-1.05-0.2895-1.05-0.2895l-3.007 0.0179s-0.223-0.0293-0.388 0.066c-0.162 0.0934-0.266 0.3112-0.266 0.3112s-0.476 1.2213-1.111 2.2605c-1.339 2.1913-1.874 2.3073-2.093 2.1723-0.51-0.318-0.383-1.275-0.383-1.9554 0-2.1247 0.335-3.0102-0.65-3.2394-0.327-0.0764-0.567-0.1264-1.404-0.1348-1.0729-0.0104-1.9806 0.0037-2.4952 0.2461-0.3423 0.1613-0.6065 0.5215-0.4451 0.5423 0.1986 0.0254 0.6486 0.1169 0.8873 0.43 0.3081 0.4046 0.2973 1.3118 0.2973 1.3118s0.1771 2.5014-0.4137 2.8114c-0.405 0.213-0.9606-0.222-2.155-2.2107-0.6114-1.0185-1.0731-2.1445-1.0731-2.1445s-0.089-0.2103-0.2485-0.3235c-0.1927-0.1367-0.4617-0.1792-0.4617-0.1792l-2.8573 0.018s-0.4294 0.0113-0.5869 0.1914c-0.13989 0.1594-0.0108 0.4904-0.0108 0.4904s2.2372 5.0461 4.7707 7.5901c2.3232 2.331 4.96 2.178 4.96 2.178h1.196z"/>
   </symbol>
   </g>
  </g>
 </g>
</svg>
