<svg xmlns="http://www.w3.org/2000/svg" width="425.466" height="425.467" viewBox="0 0 425.466 425.467"><path d="M318.15 230.195l77.934-77.937c31.894-31.892 31.894-83.782-.004-115.674l-12.66-12.66c-31.893-31.896-83.78-31.896-115.674-.004l-77.937 77.934c-17.588 17.588-25.457 41.264-23.646 64.311-23.045-1.813-46.722 6.056-64.308 23.647L23.92 267.748c-31.894 31.889-31.894 83.779 0 115.674l12.664 12.662c31.893 31.893 83.783 31.893 115.674 0l77.935-77.936c17.592-17.59 25.459-41.266 23.647-64.309 23.044 1.815 46.72-6.056 64.31-23.644zm-115.497 60.41l-77.936 77.938c-16.705 16.703-43.889 16.703-60.59 0l-12.666-12.666c-16.705-16.701-16.703-43.885 0-60.594l77.936-77.932c14.14-14.141 35.779-16.306 52.226-6.516l-32.302 32.307c-7.606 7.604-7.606 19.938 0 27.541 7.605 7.607 19.937 7.607 27.541 0l32.306-32.303c9.791 16.448 7.627 38.089-6.515 52.225zm35.729-81.436l32.299-32.306c7.608-7.602 7.608-19.935 0-27.538-7.604-7.61-19.936-7.61-27.541-.004l-32.303 32.303c-9.791-16.446-7.627-38.087 6.514-52.226l77.935-77.935c16.707-16.707 43.89-16.707 60.594 0l12.664 12.664c16.705 16.705 16.705 43.886 0 60.591l-77.936 77.937c-14.14 14.142-35.78 16.304-52.226 6.514z"/></svg>