<?xml version="1.0" encoding="utf-8"?>
<svg version="1.1" xmlns="http://www.w3.org/2000/svg" xmlns:xlink="http://www.w3.org/1999/xlink" viewBox="0 0 74 86" xml:space="preserve">
	<polygon fill-rule="evenodd" fill="#FE8682" points="37,0 0,21.5 0,64.5 37,86 74,64.5 74,21.5 		"/>
	<polygon fill-rule="evenodd" fill="#FC635E" points="37,4.5 3.7,23.7 3.7,62.3 37,81.5 70.3,62.3 70.3,23.7 		"/>
	<path fill-rule="evenodd" fill="#FFFFFF" d="M27.3,41.2c0-4.3,0-5.1,3.6-5.1V28C22.4,28,20,33.7,20,43.7V57h15.8V43.7h-8.5V41.2z
			 M45.5,43.7v-2.5c0-4.3,0-5.1,3.6-5.1V28c-8.5,0-10.9,5.7-10.9,15.7V57H54V43.7H45.5z"/>
</svg>
