<?xml version="1.0" encoding="UTF-8" standalone="no"?>
<svg
    id="svg5572"
    xmlns:rdf="http://www.w3.org/1999/02/22-rdf-syntax-ns#"
    xmlns="http://www.w3.org/2000/svg"
    viewBox="0 0 207.50041 89.885902"
    version="1.1"
    xmlns:cc="http://creativecommons.org/ns#"
    xmlns:dc="http://purl.org/dc/elements/1.1/">
    <g id="g6122" transform="translate(0 .17102)">
        <path
            id="path6126"
            d="m19.5 78.134-19-10.861v-44.546l19-10.861c10.45-5.9737 19.371-10.862 19.825-10.864 0.454-0.0009 9.325 4.8355 19.713 10.748l18.887 10.75v22.5l-0.001 22.5-18.838 10.75c-10.361 5.912-19.232 10.749-19.712 10.748-0.481-0.002-9.424-4.89-19.874-10.864zm27.663-18.346c7.237-4.067 10.47-12.944 7.395-20.303-3.631-8.69-8.867-11.485-21.518-11.485h-9.04v34h9.6138c8.068 0 10.247-0.35566 13.549-2.2119zm-15.163-14.788v-10h2.8508c4.7864 0 9.1268 2.056 10.68 5.0588 3.883 7.51-0.57 14.941-8.954 14.941h-4.577v-10z"
            fill="#fe6762"/>
    </g>
    <g fill="#ffffff">
        <path d="m101.33 58.466v-28h10.92q6.56 0 10.72 4 4.16 3.96 4.16 10 0 6-4.2 10-4.16 4-10.68 4h-10.92zm6.16-5.56h4.76q3.8 0 6.12-2.32 2.32-2.36 2.32-6.12 0-3.72-2.36-6.08-2.32-2.36-6.08-2.36h-4.76v16.88z"/>
        <path
            d="m138.02 58.866q-3.16 0-5.28-1.76-2.08-1.76-2.08-4.88 0-3.4 2.32-5.12 2.36-1.72 6.32-1.72 2.68 0 5.24 0.88v-0.36q0-3.92-4.6-3.92-2.76 0-5.92 1.16l-1.52-4.64q3.92-1.72 8.32-1.72 4.84 0 7.24 2.4 2.32 2.32 2.32 6.84v12.44h-5.88v-2.32q-2.44 2.72-6.48 2.72zm1.84-4.2q2.12 0 3.44-1.04 1.32-1.08 1.32-2.72v-1.08q-1.72-0.8-3.88-0.8-2 0-3.12 0.8-1.08 0.76-1.08 2.24 0 1.2 0.92 1.92 0.92 0.68 2.4 0.68z"/>
        <path d="m155.74 34.666v-5.4h6.4v5.4h-6.4zm0.16 23.8v-21.44h6.08v21.44h-6.08z"/>
        <path
            d="m175.17 58.866q-5.08 0-9.2-3.24l2.6-4q3.52 2.56 6.76 2.56 2.56 0 2.56-1.68 0-0.2-0.08-0.4-0.04-0.2-0.2-0.36t-0.36-0.28q-0.16-0.16-0.48-0.28-0.28-0.16-0.52-0.24-0.2-0.12-0.6-0.24-0.4-0.16-0.68-0.24t-0.76-0.2q-0.48-0.16-0.76-0.24-1.36-0.4-2.32-0.8-0.92-0.44-1.96-1.16-1.04-0.76-1.6-1.88-0.52-1.16-0.52-2.68 0-3.16 2.24-4.96 2.24-1.84 5.6-1.84 4.32 0 8 2.48l-2.32 4.2q-3.4-2-5.8-2-2.24 0-2.24 1.56 0 1.08 3.68 2.32 0.44 0.16 0.68 0.24 1.08 0.36 1.84 0.68t1.72 0.88 1.52 1.2q0.6 0.6 1 1.56t0.4 2.12q0 3.44-2.28 5.2-2.24 1.72-5.92 1.72z"/>
        <path d="m192.22 64.986q-2.88 0-5.4-1.48l2.04-4.4q1.4 0.84 2.6 0.84 1.44 0 2.12-1.4l-8.4-21.52h6.44l4.88 14.6 4.68-14.6h6.32l-8.24 21.96q-1.24 3.32-2.8 4.64-1.56 1.36-4.24 1.36z"/>
    </g>
</svg>
