<?xml version="1.0" encoding="utf-8"?>
<svg version="1.1" baseProfile="tiny" id="slider__prev"
	 xmlns="http://www.w3.org/2000/svg" xmlns:xlink="http://www.w3.org/1999/xlink" x="0px" y="0px" viewBox="0 0 31 31"
	 overflow="scroll" xml:space="preserve">
	<path fill-rule="evenodd" fill="#FC635E" d="M4.4,15.6l17.4,10l-6.1-10.2l6.1-9.9L4.4,15.6z M15.5,0C6.9,0,0,7,0,15.5
		C0,24,6.9,31,15.5,31C24,31,31,24,31,15.5C31,7,24,0,15.5,0z M15.5,29.6c-7.8,0-14.1-6.3-14.1-14.1c0-7.8,6.3-14.1,14.1-14.1
		c7.8,0,14.1,6.3,14.1,14.1C29.6,23.3,23.3,29.6,15.5,29.6z"/>
</svg>
