<?xml version="1.0" encoding="UTF-8" standalone="no"?>
<svg xmlns:rdf="http://www.w3.org/1999/02/22-rdf-syntax-ns#" xmlns="http://www.w3.org/2000/svg" viewBox="0 0 101 116" version="1.1">

    <path class="border" fill="#FE8884" d="M25.9,101.3L0.7,86.7V58V29.3l25.1-14.5L51,0.2l15.6,9c8.6,5,19.8,11.5,24.9,14.4l9.3,5.4V58v28.9l-9.3,5.4
   	c-5.1,3-16.3,9.5-24.9,14.4l-15.6,9L25.9,101.3L25.9,101.3z"/>

    <path class="bg" fill="#FE625D" d="M28.4,97l-22-12.8V58V31.8l22.4-12.9L51.2,5.9l22.3,12.8l22.3,12.8V58v26.5L73.5,97.2
   	c-12.3,7-22.5,12.7-22.7,12.7C50.6,109.8,40.5,104,28.4,97z"/>

    <path
        class="icon"
        fill-rule="evenodd"
        fill="#FFFFFF"
        d="M43.7,47.7l-5.2,0c0,0-4.1,0.2-4.1,4.2v0.1c-0.9,0.6-1.4,1.6-1.4,2.7
   		c0,1.1,0.6,2.1,1.4,2.7c0,0.5,0.2,4.5,4,4.5c0,0,1.6,0.1,1.4,2.6l0,9.9c0,0-0.2,1.6,1.3,1.6c0,0,4.7-0.7,2.3-5.4
   		c1.7-1.8-0.7-2.9,0.2-5.8c0,0,1.3-1.9,1.3-2.9l0.1-12.7C45.2,49.2,45.4,47.7,43.7,47.7z M70,54.2c0-1.7-1-3.2-2.4-4l0-11.6
   		c0-1.5-1.3,0.2-1.3,0.2c-6,9.4-18.5,8.7-18.5,8.7c-1.5,0-1.2,1.3-1.2,1.3l0,10.9c0,1.3,1.3,1.3,1.3,1.3c14,0,18.8,8.8,18.8,8.8
   		s1.1,1.4,1-0.1l0-11.5C69,57.4,70,55.9,70,54.2z M53.8,48.7c0,0,8.2-1.2,12.2-7.3C66,41.3,64.5,48.6,53.8,48.7z M69.1,55.5
   		c0,0,0.4-2-1.2-4.3C68,51.2,70.1,52.4,69.1,55.5z"/>

</svg>
