<?xml version="1.0" encoding="utf-8"?>
<svg version="1.1"
	   xmlns:rdf="http://www.w3.org/1999/02/22-rdf-syntax-ns#"
	 xmlns="http://www.w3.org/2000/svg" xmlns:xlink="http://www.w3.org/1999/xlink" viewBox="0 0 101 116"
	 xml:space="preserve">

<path class="border" fill="#FE8884" d="M25.1,101.3L0,86.7V58V29.3l25.1-14.5L50.3,0.2l15.6,9c8.6,5,19.8,11.5,24.9,14.4l9.3,5.4V58v28.9l-9.3,5.4
	c-5.1,3-16.3,9.5-24.9,14.4l-15.6,9L25.1,101.3L25.1,101.3z"/>

<path class="bg" fill="#FE625D" d="M27.5,97l-22-12.8V58V31.8l22.4-12.9L50.2,6l22.3,12.8l22.3,12.8V58v26.5L72.6,97.2
	c-12.3,7-22.5,12.7-22.7,12.7C49.7,109.9,39.6,104.1,27.5,97z"/>

	<path  class="icon" fill-rule="evenodd" fill="#FFFFFF" d="M53.9,75.8c-0.7-0.5-0.8-1.3-0.8-1.3l-0.3-1.7h-8.3l-0.3,1.7c0,0-0.1,0.8-0.8,1.3
		c-0.7,0.5-1.2,0.9-0.7,1c0.5,0.1,5.5,0,5.9,0c0.4,0,5.3,0.1,5.9,0C55.1,76.8,54.6,76.3,53.9,75.8z M42.6,59.7
		c-0.7,2.2-1,2.8-3.2,2.8c-2.2,0,3.1,1.2,6.8-0.3C49.9,60.6,43.9,56.2,42.6,59.7z M46.7,58.5c1.1,0.9,0.8,0.9,1.9-0.5L62,43.4
		c1.1-1.4,1.2-3.2,0.1-4.1c-1.1-0.9-2.9-0.4-4,1L46.8,56.5C45.6,57.9,45.6,57.6,46.7,58.5z M60.9,39.5c-1.6,0.9-1.7,1.7-1.7,1.7
		s-0.2-0.2-0.7-0.6C59.3,39.3,60.9,39.5,60.9,39.5z M67.2,44.8h-5L60,47.2h6.4v19.3H31.1V47.2h20.5l1.7-2.4h-23
		c-0.9,0-1.6,0.7-1.6,1.6v23.3c0,0.9,0.7,1.6,1.6,1.6h36.9c0.9,0,1.6-0.7,1.6-1.6V46.4C68.8,45.5,68.1,44.8,67.2,44.8z"/>

</svg>
