<?xml version="1.0" encoding="utf-8"?>

<svg
	version="1.1"
	baseProfile="tiny"
	xmlns:cc="http://creativecommons.org/ns#"
	xmlns:dc="http://purl.org/dc/elements/1.1/"
	xmlns:rdf="http://www.w3.org/1999/02/22-rdf-syntax-ns#"
	xmlns="http://www.w3.org/2000/svg"
	xmlns:xlink="http://www.w3.org/1999/xlink"
	x="0px"
	y="0px"
	viewBox="0 0 101 116"
	xml:space="preserve">

	<path class="border" fill="#FE8884" d="M25.1,101.3L0,86.7V58V29.3l25.1-14.5L50.3,0.2l15.6,9c8.6,5,19.8,11.5,24.9,14.4l9.3,5.4V58v28.9l-9.3,5.4
	c-5.1,3-16.3,9.5-24.9,14.4l-15.6,9L25.1,101.3L25.1,101.3z"/>

	<path class="bg" fill="#FE625D" d="M27.5,97l-22-12.8V58V31.8l22.4-12.9L50.2,6l22.3,12.8l22.3,12.8V58v26.5L72.6,97.2
	c-12.3,7-22.5,12.7-22.7,12.7C49.7,109.9,39.6,104.1,27.5,97z"/>

	<g>
		<path  class="icon"
			fill-rule="evenodd"
			fill="#FFFFFF"
			d="M66.3,38.3c0.2-0.3,0.3-0.5,0.2-0.6c0,0,0,0-0.1,0c0,0,0-0.3,0.1-0.5
		c0.1-0.3-0.1-0.4-0.4-0.3c-0.3,0.1-0.6,0.1-0.6,0.1l-0.1-0.1c-0.1-0.1-0.3,0.1-0.6,0.4c0,0,0,0.1-0.1,0.1c0,0-0.8,0.1-1.7,0.3
		c-1.6,0.3-4.1,1-6.8,2.7c-4.4,2.7-7.2,6.4-8.5,8.4c-0.5,0.8-1.6,1.3-2.5,1.3c-7.4-0.2-10.6,4.9-11.7,7.5c-0.4,0.8,0.2,1.5,1.1,1.5
		c16.3-0.3,17.8,9.7,17.7,13.7c0,0.9,0.6,1.4,1.4,0.9c5.9-3.5,5.5-10.2,5-13.2c-0.2-0.9,0.1-2.1,0.7-2.8c2.4-2.8,3.9-5.5,5-8
		c0.3-0.8,0.8-2.2,1-3c0.1-0.4,0.2-0.9,0.3-1.5c0-0.1,0-0.2,0.1-0.3c0-0.1,0.1-0.3,0.1-0.5c0.3-1.7,0.3-3.1,0.3-4.2
		c0-0.9-0.1-1.7-0.1-1.7C66.2,38.4,66.3,38.4,66.3,38.3z M58.1,52.6c-0.1,0.2-0.2,0.4-0.4,0.5c-1,1.1-2.7,1.4-4.1,0.6
		c-1.6-0.9-2.1-2.8-1.2-4.3c0.1-0.2,0.2-0.4,0.4-0.5c1-1.1,2.7-1.4,4.1-0.6C58.4,49.1,59,51.1,58.1,52.6z M47.8,67.4
		c-3.1,1.9-4.7,4.9-5.5,6.7c-0.4,0.8,0.2,1.3,1,0.8c2.9-1.7,4.6-4.9,5.4-6.8C49.1,67.4,48.6,67,47.8,67.4z M44.4,64.8
		c-4.7,2.8-7,7.5-7.9,10c-0.3,0.9,0.2,1.3,1,0.9c4.5-2.4,6.9-7.5,7.8-10.1C45.7,64.7,45.2,64.3,44.4,64.8z M41.9,62.9
		c0.4-0.8-0.1-1.3-0.9-0.8c-3.1,1.9-4.7,4.9-5.5,6.7c-0.4,0.8,0.2,1.3,1,0.8C39.4,68,41.1,64.8,41.9,62.9z"/>
	</g>
</svg>
