<?xml version="1.0" encoding="UTF-8" standalone="no"?>
<svg id="svg4226" xmlns:rdf="http://www.w3.org/1999/02/22-rdf-syntax-ns#" xmlns="http://www.w3.org/2000/svg" height="116" viewBox="0 0 101 116" width="101" version="1.1" xmlns:cc="http://creativecommons.org/ns#" xmlns:dc="http://purl.org/dc/elements/1.1/">
 <path id="path4240" d="m25.132 101.26-25.132-14.518v-28.742-28.742l25.132-14.519 25.132-14.519 15.618 9.0221c8.59 4.9619 19.781 11.452 24.868 14.423l9.25 5.4v28.935 28.935l-9.25 5.4008c-5.0875 2.9704-16.278 9.4606-24.868 14.423l-15.618 9.0218-25.132-14.519z" fill="#fe8884"/>
 <path id="path4238" d="m27.5 97.023-22-12.807v-26.214-26.214l22.365-12.91 22.365-12.909 22.347 12.766 22.348 12.765v26.5 26.5l-22.321 12.75c-12.276 7.0125-22.497 12.712-22.712 12.665-0.21533-0.0467-10.292-5.8481-22.392-12.892z" fill="#fe625d"/>
</svg>
