<?xml version="1.0" encoding="utf-8"?>
<svg
	version="1.1"
	xmlns:rdf="http://www.w3.org/1999/02/22-rdf-syntax-ns#"
	xmlns="http://www.w3.org/2000/svg"
	xmlns:xlink="http://www.w3.org/1999/xlink"

	viewBox="0 0 101 116"
	xml:space="preserve">

	<path class="border" fill="#FE8884" d="M25.9,101.3L0.7,86.7V58V29.3l25.1-14.5L51,0.2l15.6,9c8.6,5,19.8,11.5,24.9,14.4l9.3,5.4V58v28.9l-9.3,5.4
	c-5.1,3-16.3,9.5-24.9,14.4l-15.6,9L25.9,101.3L25.9,101.3z"/>

	<path class="bg" fill="#FE625D" d="M28.4,97l-22-12.8V58V31.8l22.4-12.9L51.2,5.9l22.3,12.8l22.3,12.8V58v26.5L73.5,97.2
	c-12.3,7-22.5,12.7-22.7,12.7C50.6,109.8,40.5,104,28.4,97z"/>

	<path
		class="icon"
		fill="#FFFFFF"
		d="M65.1,37H35.9c-2.1,0-3.9,1.7-3.9,3.9v29.2c0,2.1,1.8,3.9,3.9,3.9h29.2c2.1,0,3.9-1.8,3.9-3.9V40.9
			C69,38.7,67.2,37,65.1,37z M36.2,42.3h28.5v19.5H36.2V42.3z M66.3,68.8H46.4c-0.3,1.5-1.7,2.6-3.2,2.6c-1.6,0-2.9-1.1-3.2-2.6
			h-5.3v-1.5h5.2c0.3-1.5,1.7-2.6,3.2-2.6c1.6,0,2.9,1.1,3.2,2.6h19.9v1.5H66.3z M53.9,58.5h4V45.1h-4V58.5z M42.9,58.5h4v-8.2h-4
			V58.5z M48.4,58.5h4V48h-4V58.5z"/>
</svg>
