<?xml version="1.0" encoding="UTF-8" standalone="no"?>
<svg
	version="1.1"
	xmlns:cc="http://creativecommons.org/ns#"
	xmlns:dc="http://purl.org/dc/elements/1.1/"
	xmlns:rdf="http://www.w3.org/1999/02/22-rdf-syntax-ns#"
	xmlns="http://www.w3.org/2000/svg"
	xmlns:xlink="http://www.w3.org/1999/xlink"
	x="0px"
	y="0px"
	viewBox="0 0 174 201"
	enable-background="new 0 0 174 201"
	xml:space="preserve">
	<path id="path5074" fill-opacity="0" stroke="#CDCDCD" d="M173.4,150.3l-86,50L1.2,150.7L1,51.1l86-50l86.2,49.6L173.4,150.3z"/>
	<g stroke="#fc645f" stroke-dasharray="0% 100%" stroke-width="4px" fill="none">
		<circle fill="#FFFFFF" stroke="#FC645F" stroke-width="3" stroke-dasharray="187.9854,187.9854" cx="0" cy="53.8" r="18"/>
		<path class="hexagon-line side-6" d="M0,52.8L87.7,1.5"/>
		<path class="hexagon-line side-1" d="M85.7,1l87.6,51.9"/>
		<path class="hexagon-line side-2" d="M172.1,51.3v100.1"/>
	</g>
		<g>
			<path
				fill="#FFFFFF"
				d="M-3.2,43.6l-0.9-1.4l-1.3,0.7l0.8,1.4C-4.2,44-3.7,43.8-3.2,43.6z M-7.9,50.7c0-0.3,0.1-0.5,0.1-0.8h-1.7
			v1.6h1.7C-7.9,51.2-7.9,50.9-7.9,50.7z M5.4,42.9L4,42.1l-0.8,1.4c0.5,0.2,0.9,0.5,1.4,0.8L5.4,42.9z M-8.6,54.7l0.8,1.4l1.3-0.8
			c-0.2-0.5-0.4-1-0.6-1.4L-8.6,54.7z M0.8,42.9v-1.6h-1.6v1.6c0.3,0,0.5-0.1,0.8-0.1C0.3,42.9,0.5,42.9,0.8,42.9z M-8.6,46.7
			l1.4,0.8c0.2-0.5,0.5-0.9,0.8-1.4l-1.4-0.8L-8.6,46.7z M8.6,46.7l-0.8-1.4l-1.4,0.8C6.7,46.5,7,47,7.2,47.5L8.6,46.7z M6.5,55.3
			L7.8,56l0.8-1.4l-1.4-0.8C7,54.4,6.8,54.8,6.5,55.3z M7.8,49.9c0,0.3,0.1,0.5,0.1,0.8s-0.1,0.5-0.1,0.8h1.7v-1.6H7.8z M2.4,63.2
			h-4.8c-0.4,0-0.8,0.3-0.8,0.8c0,0.4,0.4,0.8,0.8,0.8h0.1c0.4,0.8,1.3,1.5,2.3,1.5s1.9-0.7,2.2-1.6h0.1c0.4,0,0.8-0.3,0.8-0.8
			C3.2,63.5,2.8,63.2,2.4,63.2z M2.4,60.8h-4.8c-0.4,0-0.8,0.3-0.8,0.8s0.4,0.8,0.8,0.8h4.7c0.4,0,0.8-0.3,0.8-0.8
			S2.8,60.8,2.4,60.8z M0,44.4c-3.5,0-6.3,2.8-6.3,6.3c0,3.1,3.2,6.3,3.2,9.4h6.3c0-3.2,3.2-6.3,3.2-9.4C6.3,47.2,3.5,44.4,0,44.4z"/>
		</g>
</svg>
