<?xml version="1.0" encoding="utf-8"?>
<svg
	version="1.1"
	xmlns:svg="http://www.w3.org/2000/svg"
	xmlns="http://www.w3.org/2000/svg"
	xmlns:xlink="http://www.w3.org/1999/xlink"
	viewBox="0 0 174 201"
	enable-background="new 0 0 174 201"
	xml:space="preserve">
	<path id="path5074" fill-opacity="0" stroke="#CDCDCD" d="M172.4,150.3l-86,50L0.2,150.7l-0.3-99.6l86-50l86.2,49.6L172.4,150.3z"/>
	<g fill="none" stroke="#FC645F" stroke-width="3" stroke-dasharray="0 100%">
		<circle fill="#FFFFFF" stroke="#FC645F" stroke-width="2" stroke-dasharray="187.9854" cx="0" cy="51.8" r="12.5"/>
		<path class="hexagon-line" d="M0,52.8L87.7,1.5"/>
		<path class="hexagon-line" d="M86.2,2l87,51"/>
		<path class="hexagon-line" d="M172.1,51v100.1"/>
		<path class="hexagon-line" d="M173.7,149.2l-88.5,50.3"/>
		<circle fill="#FFFFFF" stroke="#FC645F" stroke-width="2" stroke-dasharray="187.9854" cx="87.7" cy="201" r="12.5"/>
	</g>
	<g>
		<path fill="#FFFFFF" d="M94.3,194.5c0.1-0.2,0.2-0.2,0.1-0.2l0,0v-0.2c0-0.2-0.1-0.2-0.2-0.2c-0.2,0.1-0.3,0.1-0.3,0.1l0,0
			c-0.1,0-0.2,0.1-0.3,0.2l0,0c0,0-0.3,0.1-0.7,0.2c-0.7,0.2-1.7,0.4-2.9,0.9c-1.9,0.9-3,2.3-3.5,3.1c-0.3,0.3-0.7,0.5-1.1,0.5
			c-3.1-0.1-4.5,1.7-4.9,2.7c-0.2,0.3,0.1,0.6,0.5,0.6c6.8-0.2,7.5,3.5,7.5,5c0,0.3,0.3,0.5,0.6,0.3c2.5-1.3,2.4-3.7,2-4.8
			c-0.1-0.3,0.1-0.8,0.3-1c1-1,1.6-2,2-2.8c0.2-0.3,0.3-0.8,0.4-1.1c0.1-0.2,0.1-0.3,0.2-0.6c0-0.1,0-0.1,0-0.2c0-0.1,0-0.2,0-0.2
			c0.2-0.6,0.2-1.1,0.2-1.5C94.3,194.8,94.2,194.5,94.3,194.5L94.3,194.5z M90.8,199.6c-0.1,0.1-0.1,0.2-0.2,0.2
			c-0.4,0.4-1.2,0.5-1.7,0.2c-0.7-0.3-0.9-1-0.5-1.6c0.1-0.1,0.1-0.2,0.2-0.2c0.4-0.4,1.2-0.5,1.7-0.2
			C90.9,198.4,91.3,199.1,90.8,199.6z M86.5,205c-1.3,0.7-2,1.7-2.3,2.5c-0.2,0.3,0.1,0.5,0.4,0.3c1.2-0.6,1.9-1.7,2.3-2.5
			C87.1,204.9,86.9,204.8,86.5,205z M85.1,204.1c-2,0.9-2.9,2.8-3.4,3.6c-0.2,0.3,0.1,0.5,0.4,0.3c1.9-0.9,2.9-2.7,3.3-3.7
			C85.6,204.1,85.5,203.8,85.1,204.1z M84.1,203.3c0.2-0.3-0.1-0.4-0.3-0.3c-1.3,0.7-2,1.7-2.3,2.5c-0.2,0.3,0.1,0.5,0.4,0.3
			C83,205.2,83.7,204.1,84.1,203.3z"/>
	</g>
	<g>
		<path fill="#FFFFFF" d="M8.8,49.9c-0.2-0.8-0.9-1.5-1.8-1.5H3c-0.2,0-0.2-0.1-0.2-0.2c0.4-0.6,0.6-1.4,0.5-2.7
			C3.3,44.4,3,44,2.7,44c-0.5,0-1.4,1.2-2.2,2.3c-1.1,1.5-3.2,2.7-3.9,3.1c-0.2,0.1-0.4,0.2-0.5,0.3L-6,50.4
			c-0.2,0.1-0.3,0.2-0.3,0.4v6.1c0,0.1,0.2,0.4,0.3,0.4l0.9,0.5C-5,58-4.8,58-4.5,58c0.9,0.1,1.6,0.4,2.1,0.8
			c0.2,0.1,0.4,0.2,0.5,0.4c0.3,0.2,0.6,0.3,1,0.3h6.2c0.9,0,1.8-0.7,2-1.5c0-0.1,0.1-0.4,0.1-0.6l1.3-6.8
			C8.8,50.4,8.8,50.2,8.8,49.9z M-7.3,49.8h-1.2C-8.8,49.8-9,50-9,50.3v7.1c0,0.3,0.2,0.5,0.5,0.5h1.2c0.3,0,0.5-0.2,0.5-0.5v-7.1
			C-6.8,50-7.1,49.8-7.3,49.8z"/>
	</g>
</svg>
