<?xml version="1.0" encoding="UTF-8" standalone="no"?>
<svg
   xmlns:rdf="http://www.w3.org/1999/02/22-rdf-syntax-ns#"
   xmlns:svg="http://www.w3.org/2000/svg"
   xmlns="http://www.w3.org/2000/svg"
   id="hexagon"
   viewBox="0 0 174 201"
   version="1.1">
  <path
     id="path5074"
     fill-opacity="0"
     stroke="#cdcdcd"
     transform="matrix(1.2777 .0076372 -.0076250 1.2797 -24.14 -26.948)"
     d="m155.43 137.55-67.042 39.47-67.71-38.32-0.663-77.804 67.046-39.475 67.709 38.326z" />
  <ellipse
     id="circle12-6"
     class="icon-bg"
     cy="201.29"
     cx="87.626"
     r="20"
     fill="#fc645f" />
  <g
     id="g5"
     stroke="#fc645f"
     stroke-width="4px"
     stroke-dasharray="0% 100%"
     fill="none">
    <path
       class="hexagon-line side-5"
       d="m1.1335 150.93-0.1485-99.878"
       id="path6" />
    <circle
       stroke-dasharray="100% 100%"
       r="18"
       cy="51.154"
       stroke="#fc645f"
       cx="4.7684e-7"
       stroke-width="3px"
       fill="#fff"
       id="circle8" />
    <path
       class="hexagon-line side-6"
       d="m0.7201 51.419 86.479-50.441"
       id="path10" />
    <path
       class="hexagon-line side-1"
       d="m86.479 0.97206 87.724 49.888"
       stroke-dasharray="0% 100%"
       id="path12" />
    <path
       class="hexagon-line side-2"
       d="m172.900 49.4 0.3 101.0"
       stroke-dasharray="0% 100%"
       id="path14" />
  </g>
  <g
     id="icon-head"
     transform="translate(-11.011473,38.312)">
    <path
       id="path4151"
       d="m 8.1,5.4 c -1.1,0 -2,0.9 -2,2 0,1.1 0.9,2 2,2 1.1,0 2,-0.9 2,-2 0,-1.1 -0.9,-2 -2,-2 z m 4.4,8.3 c -0.7,0 -1.3,0.6 -1.3,1.3 0,0.7 0.6,1.3 1.3,1.3 0.7,0 1.3,-0.6 1.3,-1.3 0,-0.7 -0.6,-1.3 -1.3,-1.3 z m 7.2,-3 C 21.3,2.7 14.8,-1 7.5,0.2 0.2,1.4 0.5,5.7 0.1,7.8 -0.8,13 4.7,18.9 4.7,18.9 l -0.3,6.1 8.8,0 0.7,-2.8 c 0,0 0.4,0.6 2.7,0.8 2.3,0.2 2,-2.6 2,-2.6 0,0 1.5,-0.7 1.5,-1.2 0,-0.5 -0.9,-1.1 -0.9,-1.1 0,0 1,0.2 1.3,-0.2 C 20.8,17.5 20,16 20,16 c 0,0 1.2,0 1.9,-0.8 0.7,-0.7 -2.2,-3 -2.2,-4.5 z M 7.1,11.8 C 7.1,11.8 7.1,11.3 7,11 6.8,10.9 6.6,10.9 6.4,10.8 6.2,11 5.7,11.4 5.7,11.4 c 0,0 -0.1,0 -0.1,0.1 0,0 -0.8,-0.1 -0.8,-0.1 l -1.4,-1.5 0,-1 C 3.4,8.9 3.9,8.5 4.2,8.3 4.1,8.1 4.1,7.9 4.1,7.7 3.8,7.5 3.1,7.2 3.1,7.2 L 2.8,6.4 2.8,6.3 3.6,4.5 4.5,4.3 c 0,0 0.6,0.3 0.9,0.4 C 5.6,4.5 5.8,4.4 6,4.2 6,3.9 5.9,3.2 5.9,3.2 L 6.6,2.5 8.6,2.3 9.3,3 c 0,0 0,0.5 0.1,0.8 0.2,0.1 0.4,0.2 0.7,0.3 0.2,-0.2 0.7,-0.6 0.7,-0.6 l 0.9,0 1.3,1.6 0,0.9 c 0,0 -0.5,0.5 -0.8,0.7 0,0.2 0.1,0.4 0.1,0.6 0.3,0.2 1,0.6 1,0.6 l 0.2,0.9 -1,1.8 -0.9,0.2 c 0,0 -0.5,-0.3 -0.8,-0.5 -0.1,0.1 -0.3,0.2 -0.5,0.3 0,0.4 0.1,1 0.1,1 l -0.7,0.7 -2,0.2 -0.6,-0.7 z m 8.2,5.2 -0.6,0.2 c 0,0 -0.3,-0.2 -0.5,-0.3 -0.1,0.1 -0.2,0.1 -0.3,0.2 0,0.2 0.1,0.7 0.1,0.7 l -0.4,0.4 -1.3,0.1 -0.4,-0.4 c 0,0 0,-0.3 0,-0.5 -0.1,0 -0.3,-0.1 -0.4,-0.1 -0.2,0.1 -0.5,0.4 -0.5,0.4 0,0 -0.1,0 -0.1,0 0,0 -0.5,0 -0.5,0 l -0.8,-1 0,-0.7 c 0,0 0.3,-0.3 0.5,-0.4 C 10.1,15.5 10,15.3 10,15.2 9.8,15.1 9.4,14.9 9.4,14.9 l -0.2,-0.5 0,-0.1 0.5,-1.2 0.6,-0.2 c 0,0 0.4,0.2 0.5,0.2 0.1,-0.1 0.2,-0.2 0.4,-0.2 0,-0.2 -0.1,-0.7 -0.1,-0.7 l 0.4,-0.4 1.3,-0.1 0.4,0.4 c 0,0 0,0.3 0,0.5 0.2,0 0.3,0.1 0.5,0.2 0.1,-0.1 0.4,-0.4 0.4,-0.4 l 0.6,0 0.8,1 0,0.6 c 0,0 -0.3,0.3 -0.5,0.4 0,0.1 0,0.2 0,0.4 0.2,0.1 0.7,0.4 0.7,0.4 l 0.2,0.6 -0.6,1.2 z"
       inkscape:connector-curvature="0"
       style="clip-rule:evenodd;fill:#ffffff;fill-rule:evenodd" />
  </g>
</svg>
