<?xml version="1.0" standalone="no"?>
<!DOCTYPE svg PUBLIC "-//W3C//DTD SVG 1.1//EN" "http://www.w3.org/Graphics/SVG/1.1/DTD/svg11.dtd" >
<svg xmlns="http://www.w3.org/2000/svg">
<metadata></metadata>
<defs>
<font id="iosevkaregular" horiz-adv-x="1024" >
<font-face units-per-em="2048" ascent="1638" descent="-410" />
<missing-glyph horiz-adv-x="500" />
<glyph horiz-adv-x="0" />
<glyph horiz-adv-x="682" />
<glyph unicode=" " />
<glyph unicode="!" d="M369 128q0 46 18 79q16 29 45 47q33 18 80 18t80 -18q29 -16 45 -47q18 -33 18 -79t-18 -79q-16 -29 -45 -47q-33 -18 -80 -18t-80 18q-29 16 -45 47q-18 33 -18 79zM430 532v973h164v-973h-164z" />
<glyph unicode="&#x22;" d="M217 1581h180q0 -332 -12 -659h-156q-12 329 -12 659zM627 1581h180q0 -332 -12 -659h-156q-12 329 -12 659z" />
<glyph unicode="#" d="M123 254v147h151v553h-151v148h151v479h164v-479h148v479h164v-479h151v-148h-151v-553h151v-147h-151v-477h-164v477h-148v-477h-164v477h-151zM438 401h148v553h-148v-553z" />
<glyph unicode="$" d="M113 313v4l161 23v-14q0 -49 25 -93q27 -45 72 -69q55 -33 135 -33q74 0 125 31q47 27 76 74q31 55 30.5 122.5t-37.5 133.5q-51 90 -219 182q-227 129 -299 256q-59 102 -59 215q0 111 51 198q45 80 127 125q57 33 129 48v200h164v-198q190 -25 274 -170q43 -74 43 -156 v-4l-161 -23v15q0 49 -25 92q-27 45 -72 69q-55 33 -135 33q-74 0 -125 -31q-47 -27 -76 -73q-31 -55 -30.5 -123t37.5 -133q51 -90 219 -183q227 -129 299 -256q59 -102 59 -215q0 -111 -51 -198q-45 -80 -127 -125q-57 -33 -129 -47v-199h-164v197q-190 25 -274 170 q-43 73 -43 155z" />
<glyph unicode="%" d="M123 0h180l598 1505h-180zM123 1053v452h233v-452h-233zM668 0v451h233v-451h-233z" />
<glyph unicode="&#x26;" d="M106 385q0 115 62 219q43 74 147 166q-31 43 -53 82q-100 174 -100 332q0 109 47 190q39 68 104 107q72 41 170.5 41t167.5 -41q66 -39 107 -107q47 -82 47 -186q0 -111 -62 -215q-53 -94 -211 -219q61 -76 142 -166q43 -49 80 -92v258h164v-355q0 -63 -13 -118 q74 -141 74 -281h-164q0 47 -10 94q-33 -33 -74 -57q-92 -53 -219 -53t-219 53q-82 47 -131 131q-56 96 -56 217zM270 383q0 -80 35 -141q29 -51 80 -80q53 -31 127 -31q72 0 125 31q68 39 96 114q-57 92 -203 244q-68 72 -120 133q-66 -61 -95 -110q-45 -78 -45 -160z M326 1184q0 -113 80 -250q14 -27 36 -60q113 94 154 162q43 76 45 152q0 63 -29 112q-20 35 -53 56q-33 18 -76 18t-75.5 -18.5t-53.5 -55.5q-28 -48 -28 -116z" />
<glyph unicode="'" d="M422 1581h180q0 -332 -12 -659h-156q-12 329 -12 659z" />
<glyph unicode="(" d="M240 677.5q0 448.5 198 792.5q80 139 191 259l119 -101q-94 -102 -164 -225q-180 -313 -180.5 -725t180.5 -725q70 -121 164 -223l-119 -101q-111 117 -191 256q-198 344 -198 792.5z" />
<glyph unicode=")" d="M276 -270q94 102 164 223q180 313 180.5 725t-180.5 725q-70 121 -164 225l119 101q111 -117 191 -259q199 -344 198.5 -792.5t-198.5 -792.5q-80 -139 -191 -256z" />
<glyph unicode="*" d="M78 1253l51 140l313 -115l-12 342h164l-12 -342l313 115l51 -140l-330 -94l215 -272l-133 -88l-186 278l-186 -278l-133 88l215 272z" />
<glyph unicode="+" d="M123 604v148h307v354h164v-354h307v-148h-307v-354h-164v354h-307z" />
<glyph unicode="," d="M340 -336q35 47 61 94q66 113 93 226q-82 6 -121 71q-20 37 -20.5 88.5t20.5 87.5q18 33 51 52q37 20 88 20t88 -20q33 -18 51 -52q20 -37 21 -88q0 -225 -131 -450q-33 -55 -72 -113z" />
<glyph unicode="-" d="M123 604v148h778v-148h-778z" />
<glyph unicode="." d="M352 143.5q0 51.5 21 87.5q18 33 51 52q37 20 88 20t88 -20q33 -18 51 -52q20 -37 20.5 -88t-20.5 -88q-18 -33 -51 -51q-37 -20 -88 -20t-88 20q-33 18 -51 51q-21 37 -21 88.5z" />
<glyph unicode="/" d="M123 -371l606 2100h172l-606 -2100h-172z" />
<glyph unicode="0" d="M106 451v604q0 166 66 278q51 90 137 139.5t203 49.5t203 -49q84 -49 137 -140q66 -113 66 -278v-604q0 -166 -66 -279q-51 -90 -137 -139t-203 -49t-203 49q-84 49 -137 139q-66 113 -66 279zM270 569l469 607q-12 47 -32 84q-33 57 -84 88q-47 27 -110.5 26.5 t-111.5 -26.5q-51 -29 -84 -88q-47 -82 -47 -205v-486zM285 330q12 -47 32 -84q33 -57 84 -88q47 -27 110.5 -27t111.5 27q51 29 84 88q47 82 47 205v485z" />
<glyph unicode="1" d="M139 1268l353 237h163v-1505h-163v1321l-263 -176z" />
<glyph unicode="2" d="M113 1188q10 82 51 151q47 82 129 131q90 51 216 51.5t216 -51.5q82 -47 129 -131q55 -96 55 -215q0 -123 -67 -239q-59 -104 -240 -256q-176 -150 -237 -260q-51 -88 -70 -222h606v-147h-778v2q0 281 88 434q72 125 264 281q164 133 219 225q51 90 51 182q0 80 -34 142 q-29 51 -78 77q-51 31 -125 31q-70 0 -121 -31q-49 -29 -80 -79q-27 -47 -35 -105z" />
<glyph unicode="3" d="M96 317l160 35q8 -55 35 -100q33 -57 86 -88q57 -33 133 -33q78 0 135 33q53 31 86 86q39 70 39 156t-41 159q-41 70 -111 109q-86 49 -251 51v147q158 0 237 46q63 37 98 96t35 131q0 70 -32 127q-27 47 -72 74q-49 29 -119 28q-68 0 -117 -28q-47 -27 -73.5 -74 t-32.5 -107l-162 23q8 86 49 160q45 78 125 122q88 51 211 51.5t211 -51.5q78 -45 125 -122q53 -90 51 -201q0 -100 -48 -184t-136 -136q-29 -16 -66 -28q43 -14 78 -35q96 -55 150 -150q55 -96 55 -211q0 -125 -60 -227q-51 -88 -137 -137q-94 -55 -226 -55t-226 55 q-86 49 -138 137q-37 65 -51 141z" />
<glyph unicode="4" d="M106 455v147l459 903h201v-903h135v-147h-135v-455h-164v455h-496zM268 602h334v651z" />
<glyph unicode="5" d="M113 317l151 56q12 -68 45 -123q35 -61 88 -92q47 -27 108.5 -27t108.5 27q51 31 86 90q53 92 54 235q0 145 -54 236q-35 59 -84 88q-45 25 -102 24q-59 0 -104 -24q-51 -29 -86 -90q-23 -39 -35 -86l-146 65v809h719v-147h-555v-434q8 4 15 8q82 47 192.5 47t194.5 -47 q84 -49 137 -141q72 -125 72 -310q0 -182 -72 -305q-53 -94 -139 -143t-200 -49t-200 49t-139 143q-37 65 -55 141z" />
<glyph unicode="6" d="M106 451v4q0 424 154 688q111 190 293 295q72 41 149 67l52 -141q-55 -20 -107 -47q-152 -88 -241 -246q-49 -86 -82 -192q82 41 188 41q117 0 203 -50q84 -49 137 -139q66 -113 66 -278v-2q0 -166 -66 -279q-51 -90 -137 -139t-203 -49t-203 49q-84 49 -137 139 q-66 113 -66 279zM270 451q0 -125 47 -205q33 -57 84 -88q47 -27 110.5 -27t111.5 27q51 29 84 88q47 82 47 205v2q0 125 -47 204q-33 57 -84 88q-47 27 -110.5 27t-111.5 -27q-51 -29 -84 -88q-47 -80 -47 -202v-4z" />
<glyph unicode="7" d="M123 1358v147h778v-147l-473 -1358h-174l473 1358h-604z" />
<glyph unicode="8" d="M106 354q0 106 58 209q57 96 217 209q-133 98 -184 186q-57 100 -58 207q0 104 47 189q43 74 119 119q86 49 207 49t207 -49q76 -43 119 -119q49 -84 47 -189q0 -106 -58 -207q-51 -88 -184 -186q160 -113 217 -209q57 -100 58 -209q0 -104 -50 -190q-45 -78 -125 -125 q-94 -55 -230 -55t-232 55q-80 47 -125 125q-50 86 -50 190zM270 354q0 -63 29 -116q27 -47 76 -74q57 -33 137 -33t137 33q49 29 76 74q29 51 29 116q0 72 -41 142q-49 86 -201 186q-152 -100 -201 -186q-41 -70 -41 -142zM303 1165q0 -72 41 -141q43 -76 168 -164 q125 88 168 164q41 70 41 141q0 63 -29 115q-25 43 -67 68q-47 27 -113 26.5t-113 -26.5q-43 -25 -67 -68q-29 -49 -29 -115z" />
<glyph unicode="9" d="M106 1016v39q0 166 66 278q51 90 137 139.5t203 49.5q115 0 199 -49q86 -49 137 -140q70 -119 70 -297v-510q0 -209 -80 -348q-55 -98 -144 -147q-82 -47 -191.5 -47t-191.5 47q-88 51 -143 147q-37 63 -55 139l147 66q16 -74 47 -129q37 -66 92 -96q45 -27 105 -27 q57 0 100 25q51 31 88 94q61 104 62 276v158q-43 -66 -102.5 -100.5t-145.5 -34.5q-111 0 -199 51q-84 49 -135 137q-66 113 -66 279zM270 1016q0 -125 47 -205q33 -57 84 -86q47 -27 109 -29q63 0 113 29q51 31 84 88q47 80 47 203v20q0 137 -52 224q-35 59 -84 88 q-45 27 -106 26.5t-111 -26.5q-51 -29 -84 -88q-47 -82 -47 -205v-39z" />
<glyph unicode=":" d="M352 143.5q0 51.5 21 87.5q18 33 51 52q37 20 88 20t88 -20q33 -18 51 -52q20 -37 20.5 -88t-20.5 -88q-18 -33 -51 -51q-37 -20 -88 -20t-88 20q-33 18 -51 51q-21 37 -21 88.5zM352 942.5q0 51.5 21 87.5q18 33 51 52q37 20 88 20t88 -20q33 -18 51 -52 q20 -37 20.5 -88t-20.5 -88q-18 -33 -51 -51q-37 -20 -88 -20t-88 20q-33 18 -51 51q-21 37 -21 88.5z" />
<glyph unicode=";" d="M340 -336q35 47 61 94q66 113 93 226q-82 6 -121 71q-20 37 -20.5 88.5t20.5 87.5q18 33 51 52q37 20 88 20t88 -20q33 -18 51 -52q20 -37 21 -88q0 -225 -131 -450q-33 -55 -72 -113zM352 942q0 51 21 88q18 33 51 51q37 20 88 20.5t88 -20.5q33 -18 51 -51 q20 -37 20.5 -88t-20.5 -88q-18 -33 -51 -51q-37 -20 -88 -20.5t-88 20.5q-33 18 -51 51q-21 37 -21 88z" />
<glyph unicode="&#x3c;" d="M123 590v178l733 496l90 -121l-690 -465l690 -463l-90 -123z" />
<glyph unicode="=" d="M123 375v148h778v-148h-778zM123 835v148h778v-148h-778z" />
<glyph unicode="&#x3e;" d="M78 215l690 463l-690 465l90 121l733 -496v-178l-733 -498z" />
<glyph unicode="?" d="M113 1188v4q0 82 43 157.5t118 116.5q94 55 232 56q131 0 223 -54q78 -45 123 -122q49 -84 49 -189q0 -119 -65 -229q-31 -55 -113 -152q-57 -70 -82 -110q-47 -82 -47 -213l-164 -2q0 178 64 286q31 51 106 146q66 78 92 123q45 80 45 155q0 61 -28 111q-27 45 -72 71 q-53 31 -131 31q-82 0 -137 -33q-45 -27 -70 -69.5t-25 -89.5v-15zM369 128q0 46 18 79q16 29 45 47q33 18 80 18t80 -18q29 -16 45 -47q18 -33 18 -79t-18 -79q-16 -29 -45 -47q-33 -18 -80 -18t-80 18q-29 16 -45 47q-18 33 -18 79z" />
<glyph unicode="@" d="M123 29v1300q0 139 57 238q47 82 127 129q86 49 205 49t205 -49q80 -47 127 -129q57 -98 57 -238v-1012q0 -106 -41 -178q-31 -53 -80 -80q-47 -27 -110 -26q-70 0 -123 30q-51 31 -84 84q-41 70 -39 170v617q0 100 39 170q66 117 209 117h65v108q0 96 -39 162 q-29 51 -76 78.5t-110 27.5t-110.5 -27.5t-75.5 -78.5q-39 -66 -39 -162v-1300q0 -96 39 -164q29 -51 75 -78q47 -29 111 -27h315v-147h-315q-119 0 -207 49q-80 45 -125 129q-57 99 -57 238zM588 317q0 -82 37 -118q20 -20 45 -19q20 0 32 13q35 35 35 124v756h-65 q-29 0 -47 -20q-37 -37 -37 -119v-617z" />
<glyph unicode="A" d="M123 0v152q0 410 307 1353h164q307 -944 307 -1353v-152h-164v152q0 104 -18 243h-414q-18 -141 -18 -243v-152h-164zM328 543h368q-55 315 -184 776q-129 -461 -184 -776z" />
<glyph unicode="B" d="M123 0v1505h358q115 0 199 -49q76 -43 123 -123q53 -94 53 -223q0 -115 -47 -197t-133 -125q129 -47 192 -159q49 -84 50 -203q0 -133 -56 -229q-51 -88 -137 -140q-100 -57 -244 -57h-358zM287 147h194q86 0 148 35q55 31 88 88q37 66 37 158t-37 158q-33 57 -88 88 q-61 35 -148 35h-194v-562zM287 856h194q119 0 176 98q35 61 35 154q0 90 -35 152q-57 98 -176 98h-194v-502z" />
<glyph unicode="C" d="M106 399v707q0 135 56 233q47 82 131 129q92 53 219 54h2q126 0 217 -54q82 -47 129 -131q39 -70 51 -149l-159 -29q-6 57 -35 103q-31 53 -80 81q-53 31 -125 31t-125 -31q-49 -29 -80 -79q-37 -66 -37 -158v-707q0 -92 37 -157q31 -51 80 -80q53 -31 125 -31t125 31 q51 29 80 82q27 47 35 102l159 -29q-10 -82 -51 -149q-47 -84 -129 -131q-92 -53 -219 -53t-219 53q-82 47 -131 129q-56 96 -56 233z" />
<glyph unicode="D" d="M123 0v1505h340q129 0 225 -55q94 -53 154 -158q76 -133 76 -325v-428q0 -195 -76 -326q-59 -102 -154 -158q-98 -55 -225 -55h-340zM287 147h176q76 0 133 33q61 35 100 105q57 100 58 254v428q0 154 -58 254q-41 70 -100 104q-59 33 -133 33h-176v-1211z" />
<glyph unicode="E" d="M184 0v1505h717v-147h-553v-471h436v-148h-436v-592h553v-147h-717z" />
<glyph unicode="F" d="M184 0v1505h717v-147h-553v-471h436v-148h-436v-739h-164z" />
<glyph unicode="G" d="M106 399v707q0 135 56 233q47 82 131 129q92 53 219 54h2q126 0 217 -54q82 -47 129 -131q39 -70 51 -149l-159 -29q-6 57 -35 103q-31 53 -80 81q-53 31 -125 31t-125 -31q-49 -29 -80 -79q-37 -66 -37 -158v-707q0 -92 37 -157q31 -51 80 -80q53 -31 123 -31 q66 0 113 27.5t75 77.5q39 66 39 163v273h-225v147h389v-420q0 -139 -57 -237q-47 -82 -127 -129q-86 -49 -207 -49q-127 0 -217 53q-82 47 -131 131q-56 96 -56 231z" />
<glyph unicode="H" d="M123 0v1505h164v-641h450v641h164v-1505h-164v717h-450v-717h-164z" />
<glyph unicode="I" d="M225 0v147h205v1211h-205v147h574v-147h-205v-1211h205v-147h-574z" />
<glyph unicode="J" d="M82 317l160 31q6 -61 37 -112q29 -51 75.5 -78t109 -27t107.5 27q47 27 76 78q39 66 39 163v959h-276v147h440v-1106q0 -139 -57 -239q-47 -82 -127 -127q-86 -49 -203 -49t-203 49q-80 45 -127 127q-41 71 -51 157z" />
<glyph unicode="K" d="M123 0v1505h164v-696q236 258 360 475q82 143 82 221h172q0 -92 -98 -262q-84 -145 -209 -309q324 -698 324 -934h-164q0 209 -273 797q-88 -104 -194 -215v-582h-164z" />
<glyph unicode="L" d="M184 0v1505h164v-1358h570v-147h-734z" />
<glyph unicode="M" d="M123 0v1505h180l209 -811l209 811h180v-1505h-164v301q0 281 21 602q10 164 14 316l-199 -768h-122l-199 768q4 -152 14 -316q20 -322 21 -602v-301h-164z" />
<glyph unicode="N" d="M123 0v1505h227l393 -1231q-6 555 -6 629v602h164v-1505h-227l-393 1231q6 -571 6 -629v-602h-164z" />
<glyph unicode="O" d="M106 399v707q0 135 56 231q47 82 131 131q92 53 219 54h2q126 0 217 -54q82 -47 131 -131q55 -96 56 -231v-707q0 -135 -56 -231q-47 -82 -131 -131q-92 -53 -219 -53t-219 53q-82 47 -131 131q-56 96 -56 231zM270 399q0 -92 37 -157q31 -51 80 -80q53 -31 125 -31 t125 31q51 29 80 80q37 63 37 157v707q0 92 -37 158q-31 51 -80 79q-53 31 -125 31t-125 -31q-51 -29 -80 -79q-37 -63 -37 -158v-707z" />
<glyph unicode="P" d="M154 0v1505h360q123 0 215 -51q82 -47 131 -133q57 -100 58 -247q0 -143 -58 -243q-49 -86 -131 -133q-90 -51 -215 -53h-197v-645h-163zM317 793h197q135 0 201 112q39 70 39 171.5t-39 168.5q-63 113 -201 113h-197v-565z" />
<glyph unicode="Q" d="M106 399v707q0 135 56 231q47 82 131 131q92 53 219 54h2q126 0 217 -54q82 -47 131 -131q55 -96 56 -231v-707q0 -135 -56 -231q-47 -82 -131 -131q-35 -20 -74 -33l76 -305h-164l-73 285q-117 4 -203 53q-82 47 -131 131q-56 96 -56 231zM270 399q0 -92 37 -157 q31 -51 80 -80q53 -31 125 -31t125 31q51 29 80 80q37 63 37 157v707q0 92 -37 158q-31 51 -80 79q-53 31 -125 31t-125 -31q-51 -29 -80 -79q-37 -63 -37 -158v-707z" />
<glyph unicode="R" d="M123 0v1505h391q123 0 215 -51q82 -47 131 -133q57 -100 58 -247q0 -143 -58 -243q-49 -86 -131 -133q-37 -20 -80 -34q55 -82 103 -160q166 -289 166 -504h-164q0 184 -142 430q-59 104 -143 215h-182v-645h-164zM287 793h227q135 0 201 112q39 70 39 171.5t-39 168.5 q-63 113 -201 113h-227v-565z" />
<glyph unicode="S" d="M113 313v4l161 23v-14q0 -49 25 -93q27 -45 72 -69q55 -33 135 -33q74 0 125 31q47 27 76 74q31 54 31 120q0 69 -38 136q-51 90 -219 182q-227 129 -299 256q-59 102 -59 215q0 111 51 198q45 80 127 125q90 53 217 54q135 0 232 -56q76 -45 118.5 -118.5t42.5 -155.5 v-4l-161 -23v15q0 49 -25 92q-27 45 -72 69q-55 33 -135 33q-74 0 -125 -31q-47 -27 -76 -73q-31 -54 -31 -121q0 -69 38 -135q51 -90 219 -183q227 -129 299 -256q59 -102 59 -215q0 -111 -51 -198q-45 -80 -127 -125q-90 -53 -217 -53q-135 0 -232 55q-76 45 -118.5 118.5 t-42.5 155.5z" />
<glyph unicode="T" d="M123 1358v147h778v-147h-307v-1358h-164v1358h-307z" />
<glyph unicode="U" d="M123 399v1106h164v-1106q0 -96 39 -163q29 -51 76 -78t110 -27t110.5 27.5t75.5 77.5q39 66 39 163v1106h164v-1106q0 -139 -57 -237q-47 -82 -127 -129q-86 -49 -205 -49t-205 49q-80 47 -127 129q-57 98 -57 237z" />
<glyph unicode="V" d="M123 1356v149h164v-149q0 -365 225 -1170q225 805 225 1170v149h164v-149q0 -410 -307 -1356h-164q-307 946 -307 1356z" />
<glyph unicode="W" d="M123 1128v377h164v-377q0 -274 49 -839l125 614h102l125 -614q49 565 49 839v377h164v-377q0 -342 -158 -1128h-104l-127 641l-127 -641h-104q-158 786 -158 1128z" />
<glyph unicode="X" d="M123 0v76q0 190 113 387q10 18 22 37l160 254l-160 252q-12 18 -22 36q-113 197 -113 388v75h164v-75q0 -170 110 -345l115 -184l115 184q111 174 110 345v75h164v-75q0 -190 -113 -388q-10 -18 -22 -36l-160 -252l160 -254q12 -18 22 -37q113 -197 113 -387v-76h-164v76 q0 170 -110 344l-115 184l-115 -184q-111 -174 -110 -344v-76h-164z" />
<glyph unicode="Y" d="M123 1415v90h164v-90q0 -211 112 -428l113 -213l113 213q113 217 112 428v90h164v-90q0 -244 -133 -495l-174 -334v-586h-164v586l-174 334q-133 251 -133 495z" />
<glyph unicode="Z" d="M123 0v147l590 1211h-590v147h778v-147l-590 -1211h590v-147h-778z" />
<glyph unicode="[" d="M240 -371v2100h583v-148h-420v-1804h420v-148h-583z" />
<glyph unicode="\" d="M123 1729l606 -2100h172l-606 2100h-172z" />
<glyph unicode="]" d="M201 -223h420v1804h-420v148h583v-2100h-583v148z" />
<glyph unicode="^" d="M111 1196l315 397h172l315 -397l-137 -94l-264 371l-264 -371z" />
<glyph unicode="_" d="M123 0v148h778v-148h-778z" />
<glyph unicode="`" d="M184 1503l135 107l351 -424l-111 -88z" />
<glyph unicode="a" d="M106 305q0 94 39 160q41 72 123 119q111 65 278 65h5h186v94q0 63 -26 111q-25 43 -70 70q-53 30 -130 30h-5q-82 0 -135 -32q-45 -25 -72 -70q-18 -33 -23 -70l-157 37q8 57 37 109q43 76 118 121q94 53 232 53q135 0 231 -55q78 -45 119 -117q45 -78 45 -187v-743h-164 v152q-47 -78 -123 -121q-82 -47 -192 -47q-100 0 -170 41q-63 37 -102 102q-44 76 -44 178zM270 305q0 -100 82 -145q49 -29 121 -29q82 0 141 35q55 31 86 86q37 63 37 154v96h-186q-115 0 -189 -41q-47 -27 -71 -70q-21 -37 -21 -86z" />
<glyph unicode="b" d="M123 0v1505h164v-575q4 6 6 12q47 82 119 123q66 37 151 37q92 0 162 -41q76 -43 125 -127q68 -119 68 -299v-184q0 -180 -68 -299q-49 -84 -125 -127q-70 -41 -162 -41q-86 0 -151 36q-72 41 -119 123q-4 6 -6 13v-156h-164zM287 451q0 -129 47 -213q31 -55 80 -82 q43 -25 100 -25q61 0 109 27q51 29 84 88q47 82 47 205v184q0 125 -47 205q-33 57 -84 88q-45 26 -105 26h-4q-57 0 -100 -24q-47 -27 -80 -82q-47 -82 -47 -213v-184z" />
<glyph unicode="c" d="M106 451v184q0 164 66 278q51 90 137 138q88 51 206 51t206 -51q86 -49 137 -138q39 -66 53 -145l-155 -45q-10 63 -41 115q-33 57 -86 88q-47 28 -111 28h-4q-63 0 -113 -28q-51 -31 -84 -86q-47 -82 -47 -205v-184q0 -123 47 -205q33 -57 84 -86q49 -29 113 -29 q66 0 115 29q53 31 86 88q29 51 41 114l155 -45q-14 -78 -53 -145q-51 -90 -137 -137q-88 -51 -207 -51t-205 51q-86 49 -137 137q-66 115 -66 279z" />
<glyph unicode="d" d="M106 451v184q0 180 68 299q49 84 125 127q70 41 162 41q86 0 151 -37q72 -41 119 -123q4 -6 6 -12v575h164v-1505h-164v156q-4 -6 -6 -13q-47 -82 -119 -123q-64 -36 -147 -36h-4q-92 0 -162 41q-76 43 -125 127q-68 119 -68 299zM270 451q0 -125 47 -205q33 -57 84 -88 q47 -27 109 -27q57 0 100 25q47 27 80 82q47 82 47 213v184q0 129 -47 213q-31 55 -80 82q-41 24 -96 24h-4q-61 0 -109 -26q-51 -29 -84 -88q-47 -82 -47 -205v-184z" />
<glyph unicode="e" d="M106 451v184q0 166 66 278q51 90 137 139.5t203 49.5t203 -49q84 -49 137 -140q66 -113 66 -278v-166h-648v-18q0 -119 47 -199q35 -59 86.5 -90t123 -31t122.5 31q55 31 90 90q20 33 31 74l150 -60q-14 -47 -39 -88q-53 -90 -140 -141q-90 -53 -215 -53t-215 53 q-86 51 -139 139q-66 113 -66 275zM270 616h484v19q0 125 -47 205q-33 57 -84 88q-46 27 -108 27l-3 -1q-64 0 -111 -26q-51 -29 -84 -88q-47 -82 -47 -205v-19z" />
<glyph unicode="f" d="M123 877v147h231v195q0 117 47 198q37 63 99 101q62 37 148 37l2 -1q87 0 153 -36q61 -35 98 -101q31 -53 41 -117l-158 -38q-6 47 -26 81q-18 33 -47 50q-25 14 -60 14q-33 0 -57 -14q-29 -16 -47 -50q-29 -49 -29 -124v-195h344v-147h-344v-877h-164v877h-231z" />
<glyph unicode="g" d="M88 -92q0 86 37 149q31 51 80 88q-18 18 -31 41q-27 47 -27 102.5t29 106.5q23 39 55 66q-49 39 -79 92q-46 81 -46 192q0 108 46 185q43 74 120 119q92 53 222 53q74 0 133 -17h321v-147l-121 4q4 -6 9 -12q45 -80 45 -188.5t-45 -188.5q-43 -74 -121 -119 q-89 -51 -212 -51h-9q-80 0 -146 18q-16 -8 -26 -20q-29 -29 -29 -65.5t26 -61.5q35 -35 130 -39h114q139 0 234 -55q70 -41 106 -103q37 -63 37 -151q0 -90 -41 -162t-123 -119q-106 -61 -264 -61t-262 61q-80 45 -121 117t-41 166zM252 -92q0 -51 22 -90q25 -41 70 -68 q66 -39 168 -39t170 39q47 27 72 68q22 37 22 82q0 49 -20 82q-18 33 -56 53q-55 33 -137 33h-112q-72 0 -123 -31q-37 -23 -58 -55q-18 -31 -18 -74zM270 741.5q0 -65.5 27 -112.5q25 -43 70 -70q49 -30 121 -30h4q75 1 129 30q45 27 69 70q27 47 27 112.5t-27 112.5 q-25 43 -70 69.5t-102 30.5h-24q-74 0 -127 -30q-45 -27 -70 -70q-27 -47 -27 -112.5z" />
<glyph unicode="h" d="M123 0v1505h164v-575q4 6 6 12q47 82 119 123q66 37 151.5 37t149.5 -37q72 -41 118 -123q70 -121 70 -307v-635h-164v635q0 129 -47 213q-31 55 -80 82q-42 25 -96 25l-2 -1q-55 0 -98 -24q-47 -27 -80 -82q-47 -82 -47 -213v-635h-164z" />
<glyph unicode="i" d="M154 0v147h290v791h-262v147h426v-938h262v-147h-716zM385 1403q0 41 16 70q14 27 41 40q29 15 70 17q3 0 6 1q37 0 64 -18q27 -14 41 -40q16 -29 16 -70t-16 -70q-14 -27 -41 -41q-29 -18 -70 -18t-70 18q-27 14 -41 41q-16 29 -16 70z" />
<glyph unicode="j" d="M27 -143l155 49q10 -57 35 -103q27 -47 68 -71q37 -20 84 -20q1 -1 2 -1q46 0 82 21q41 23 65 69q41 70 41 179v958h-276v147h440v-1105q0 -150 -59 -252q-45 -78 -119 -121t-175.5 -43t-175 43t-120.5 121q-33 59 -47 129zM487 1403q0 41 16 70q14 27 41 40q29 16 70 17 q3 1 6 1q37 0 64 -18q27 -14 41 -40q16 -29 16 -70t-16 -70q-14 -27 -41 -41q-29 -18 -70 -18t-70 18q-27 14 -41 41q-16 29 -16 70z" />
<glyph unicode="k" d="M123 0v1505h164v-897q324 242 418 406q25 43 24 71h172q0 -39 -35 -98q-78 -135 -268 -311q70 -111 127 -211q193 -334 193 -465h-164q0 106 -146 360q-55 98 -131 211q-86 -72 -190 -151v-420h-164z" />
<glyph unicode="l" d="M154 0v147h290v1211h-262v147h426v-1358h262v-147h-716z" />
<glyph unicode="m" d="M106 0v1085h164v-69q27 47 66 69q29 16 65 17q39 0 70 -19q39 -23 68 -71q16 -27 26 -60q12 35 29 64q27 47 65 69q29 16 66 17q39 0 70 -19q39 -23 67 -71q55 -96 56 -264v-748h-164v748q0 145 -47 192q-14 14 -33 14t-33 -14q-47 -47 -47 -192v-748h-164v748 q0 145 -47 192q-14 14 -32.5 14t-33.5 -14q-47 -47 -47 -192v-748h-164z" />
<glyph unicode="n" d="M123 0v1085h164v-155q4 6 6 12q47 82 119 123q66 37 151.5 37t149.5 -37q72 -41 118 -123q70 -121 70 -307v-635h-164v635q0 129 -47 213q-31 55 -80 82q-42 25 -96 25l-2 -1q-55 0 -98 -24q-47 -27 -80 -82q-47 -82 -47 -213v-635h-164z" />
<glyph unicode="o" d="M106 451v184q0 166 66 278q51 90 137 139.5t203 49.5t203 -49q84 -49 137 -140q66 -113 66 -278v-184q0 -166 -66 -279q-51 -90 -137 -139t-203 -49t-203 49q-84 49 -137 139q-66 113 -66 279zM270 451q0 -125 47 -205q33 -57 84 -88q47 -27 110.5 -27t111.5 27 q51 29 84 88q47 82 47 205v184q0 125 -47 205q-33 57 -84 88q-46 27 -108 27l-3 -1q-64 0 -111 -26q-51 -29 -84 -88q-47 -82 -47 -205v-184z" />
<glyph unicode="p" d="M123 -420v1505h164v-155q4 6 6 12q47 82 119 123q66 37 151 37q92 0 162 -41q76 -43 125 -127q68 -119 68 -299v-184q0 -180 -68 -299q-49 -84 -125 -127q-70 -41 -162 -41q-86 0 -151 36q-72 41 -119 123q-4 6 -6 13v-576h-164zM287 451q0 -129 47 -213q31 -55 80 -82 q43 -25 100 -25q61 0 109 27q51 29 84 88q47 82 47 205v184q0 125 -47 205q-33 57 -84 88q-45 26 -105 26h-4q-57 0 -100 -24q-47 -27 -80 -82q-47 -82 -47 -213v-184z" />
<glyph unicode="q" d="M106 451v184q0 180 68 299q49 84 125 127q70 41 162 41q86 0 151 -37q72 -41 119 -123q4 -6 6 -12v155h164v-1505h-164v576q-4 -6 -6 -13q-47 -82 -119 -123q-64 -36 -147 -36h-4q-92 0 -162 41q-76 43 -125 127q-68 119 -68 299zM270 451q0 -125 47 -205q33 -57 84 -88 q47 -27 109 -27q57 0 100 25q47 27 80 82q47 82 47 213v184q0 129 -47 213q-31 55 -80 82q-41 24 -96 24h-4q-61 0 -109 -26q-51 -29 -84 -88q-47 -82 -47 -205v-184z" />
<glyph unicode="r" d="M246 0v1085h164v-202q14 41 34 73q45 78 109 115q51 31 119 31q72 0 133 -35q63 -37 100 -100q18 -31 27 -66l-154 -70q-6 25 -18 48q-23 39 -58 59q-29 16 -65 16q-49 0 -88 -22q-47 -27 -80 -84q-59 -102 -59 -273v-575h-164z" />
<glyph unicode="s" d="M117 225l153 49q6 -18 17 -36q27 -47 75 -74q57 -33 146 -33q96 0 158 35q39 23 57 55q16 29 16 66q0 39 -20 73q-20 37 -62 62q-49 29 -163 41q-143 16 -215 57q-74 43 -115 115q-43 74 -43 164q0 80 35 141q37 63 108 104q100 57 252 58q143 0 240 -55q78 -45 123 -123 q18 -31 28 -64l-153 -49q-6 18 -17 37q-27 47 -75 74q-55 32 -141 32h-5q-96 0 -158 -34q-39 -23 -57 -56q-16 -29 -16 -65q0 -39 20 -74q20 -37 62 -61q49 -29 163 -41q143 -16 215 -58q74 -43 115 -114q43 -74 43 -164q0 -80 -35 -142q-37 -63 -108 -104 q-100 -57 -252 -57q-143 0 -240 55q-78 45 -123 123q-18 30 -28 63z" />
<glyph unicode="t" d="M104 938v147h224v420h164v-420h329v-147h-329v-541q0 -113 40 -184q25 -43 62 -63q31 -18 73 -18q1 0 2 -1q41 0 70 19q16 10 33 24q61 61 70 178l159 -35q-10 -98 -55 -174.5t-117 -117.5q-70 -41 -163 -41t-162 41q-72 41 -117 116q-59 102 -59 256v541h-224z" />
<glyph unicode="u" d="M123 451v634h164v-634q0 -129 47 -213q31 -55 80 -82q43 -25 98 -24.5t98 24.5q47 27 80 82q47 82 47 213v634h164v-1085h-164v156q-4 -6 -6 -13q-47 -82 -119 -123q-65 -37 -149 -37q-1 1 -3 1q-86 0 -149 36q-72 41 -118 123q-70 122 -70 308z" />
<glyph unicode="v" d="M123 977v108h164v-108q0 -260 225 -834q225 575 225 834v108h164v-108q0 -295 -307 -977h-164q-307 682 -307 977z" />
<glyph unicode="w" d="M123 815v270h164v-270q0 -197 49 -604l125 440h102l125 -440q49 408 49 604v270h164v-270q0 -248 -158 -815h-104l-127 463l-127 -463h-104q-158 569 -158 815z" />
<glyph unicode="x" d="M123 0v10q0 68 82 211q31 55 55 88l156 234l-156 233q-23 33 -55 88q-82 143 -82 211v10h164v-10q0 -53 108 -217l117 -172l117 172q109 162 108 217v10h164v-10q0 -68 -82 -211q-31 -55 -55 -88l-156 -233l156 -234q23 -33 55 -88q82 -143 82 -211v-10h-164v10 q0 53 -108 217l-117 172l-117 -172q-109 -162 -108 -217v-10h-164z" />
<glyph unicode="y" d="M123 1010v75h164v-75q0 -106 61 -287l162 -481l166 481q61 176 61 287v75h164v-75q0 -133 -70 -336l-323 -934q-16 -45 -16 -146v-14h-164v14q0 121 24 195l78 221l-237 664q-70 197 -70 336z" />
<glyph unicode="z" d="M123 0v147l582 791h-582v147h778v-147l-582 -791h582v-147h-778z" />
<glyph unicode="{" d="M201 604v148q72 0 123 30q47 27 73 74q33 55 33 133v428q0 84 37 148.5t111 105.5q98 57 245 58v-148q-92 0 -151 -35q-39 -23 -60 -57q-18 -33 -18 -72v-428q0 -121 -51 -209q-35 -61 -90 -102q55 -41 90 -103q51 -88 51 -208v-426q0 -41 18 -74q20 -35 60 -57 q59 -35 151 -33v-148q-147 0 -245 58q-72 41 -110 105.5t-38 148.5v426q0 78 -33 133q-27 47 -73 75q-51 31 -123 29z" />
<glyph unicode="|" d="M430 -371v2100h164v-2100h-164z" />
<glyph unicode="}" d="M201 -223q92 0 151 33q39 23 60 57q18 33 18 74v426q0 121 51 208q35 61 90 103q-55 41 -90 102q-51 88 -51 209v428q0 41 -18 72q-20 35 -60 57q-59 35 -151 35v148q147 0 245 -58q72 -41 110 -105.5t38 -148.5v-428q0 -78 33 -133q27 -47 73 -74q51 -31 123 -30v-148 q-72 0 -123 -29q-47 -27 -73 -75q-33 -55 -33 -133v-426q0 -84 -37 -148.5t-111 -105.5q-98 -57 -245 -58v148z" />
<glyph unicode="~" d="M55 483q53 131 99 213q61 109 127 146q39 23 79 20q41 0 78 -20q57 -33 140 -166q49 -82 71 -105q6 -6 15 -12q35 25 75 94q43 76 95 203l135 -49q-53 -131 -99 -213q-61 -109 -127 -145q-39 -23 -79.5 -23t-77.5 23q-57 33 -140 163q-49 82 -71 107q-6 6 -15 10 q-35 -25 -75 -94q-43 -76 -95 -201z" />
<glyph unicode="&#xa0;" />
<glyph unicode="&#xa2;" d="M106 451v184q0 164 66 278q51 90 137 138q55 31 121 45v198h164v-198q70 -12 127 -45q86 -49 137 -138q39 -66 53 -145l-155 -45q-10 63 -41 115q-33 57 -86 88q-49 29 -115 28q-63 0 -113 -28q-51 -31 -84 -86q-47 -82 -47 -205v-184q0 -123 47 -205q33 -57 84 -86 q49 -29 113 -29q66 0 115 29q53 31 86 88q29 51 41 114l155 -45q-14 -78 -53 -145q-51 -90 -137 -137q-57 -33 -127 -45v-199h-164v199q-68 12 -121 45q-86 49 -137 137q-66 115 -66 279z" />
<glyph unicode="&#xa3;" d="M123 0v147q57 45 96 111q59 102 60 297v170h-117v147h117v234q0 166 61 272q41 72 106 111q57 33 134 33t135 -33q63 -37 106 -111q37 -63 51 -143l-151 -57q-10 78 -39 129q-23 37 -51 55q-23 12 -49.5 12t-49.5 -12q-27 -16 -47 -51q-43 -74 -43 -205v-234h226v-147 h-226v-170q0 -242 -71 -369q-12 -20 -27 -39h557v-147h-778z" />
<glyph unicode="&#xa5;" d="M123 303v148h778v-148h-778zM123 604v148h778v-148h-778zM123 1415v90h164v-90q0 -211 112 -428l113 -213l113 213q113 217 112 428v90h164v-90q0 -244 -133 -495l-174 -334v-586h-164v586l-174 334q-133 251 -133 495z" />
<glyph unicode="&#xa8;" d="M180 1403q0 41 16 70q14 27 41 40q29 16 70 17.5t70 -17.5q27 -14 41 -40q16 -29 16 -70t-16 -70q-14 -27 -41 -41q-29 -18 -70 -18t-70 18q-27 14 -41 41q-16 29 -16 70zM590 1403q0 41 16 70q14 27 41 40q29 16 70 17.5t70 -17.5q27 -14 41 -40q16 -29 16 -70t-16 -70 q-14 -27 -41 -41q-29 -18 -70 -18t-70 18q-27 14 -41 41q-16 29 -16 70z" />
<glyph unicode="&#xa9;" d="M57 377v602q0 154 64 262q53 92 145 145q102 59 245.5 59.5t246.5 -59.5q92 -53 145 -145q63 -109 64 -262v-602q0 -154 -64 -260q-53 -92 -145 -148q-102 -59 -245.5 -59t-246.5 59q-92 53 -145 148q-64 108 -64 260zM182 377q0 -119 49 -203q41 -70 109 -108 q72 -41 172 -42t172 42q68 39 109 108q49 84 49 203v602q0 119 -49 203q-41 70 -109 110q-72 41 -172 41t-172 -41q-68 -39 -109 -110q-49 -84 -49 -203v-602zM256 483v389q0 68 29 117q27 47 75 76q61 35 152 37q90 0 152 -37q49 -29 77 -76q18 -33 25 -72l-135 -30 q-4 33 -29 57q-33 33 -90 33q-59 0 -90 -33q-27 -27 -29 -72v-389q0 -45 29 -72q33 -33 90 -30q59 0 90 30q25 25 29 58l135 -31q-6 -37 -25 -70q-29 -49 -77 -77q-61 -35 -151.5 -35t-152.5 35q-49 29 -75 75q-29 49 -29 117z" />
<glyph unicode="&#xab;" d="M63 604v148q147 90 258 278q55 96 96 201l150 -55q-31 -68 -68 -134q-135 -236 -311 -364q176 -127 311 -363q37 -66 68 -133l-150 -57q-39 104 -96 203q-111 188 -258 276zM453 604v148q147 90 258 278q55 96 96 201l150 -55q-31 -68 -68 -134q-135 -236 -311 -364 q176 -127 311 -363q37 -66 68 -133l-150 -57q-39 104 -96 203q-111 188 -258 276z" />
<glyph unicode="&#xad;" d="M123 604v148h778v-148h-778z" />
<glyph unicode="&#xae;" d="M57 377v602q0 154 64 262q53 92 145 145q102 59 245.5 59.5t246.5 -59.5q92 -53 145 -145q63 -109 64 -262v-602q0 -154 -64 -260q-53 -92 -145 -148q-102 -59 -245.5 -59t-246.5 59q-92 53 -145 148q-64 108 -64 260zM182 377q0 -119 49 -203q41 -70 109 -108 q72 -41 172 -42t172 42q68 39 109 108q49 84 49 203v602q0 119 -49 203q-41 70 -109 110q-72 41 -172 41t-172 -41q-68 -39 -109 -110q-49 -84 -49 -203v-602zM264 264v827h262q74 0 129 -30q49 -29 78 -80q35 -61 35 -148.5t-35 -146.5q-29 -51 -78 -80l-24 -12 q37 -49 61 -97q76 -131 76 -233h-137q0 78 -58 176q-37 63 -96 135h-74v-311h-139zM403 698h123q41 0 68 27q37 37 37 108.5t-37 106.5q-27 27 -68 26h-123v-268z" />
<glyph unicode="&#xb4;" d="M354 1186l351 424l135 -107l-375 -405z" />
<glyph unicode="&#xb8;" d="M307 -291h205q29 0 45 17q12 12 12 31.5t-12 31.5q-16 16 -45 14h-82v197h164v-59q78 -23 115 -86q25 -41 24.5 -98.5t-24.5 -98.5q-23 -41 -66 -66q-53 -31 -131 -30h-205v147z" />
<glyph unicode="&#xbb;" d="M67 182q31 68 68 133q135 236 311 363q-176 127 -311 364q-37 66 -68 134l150 55q39 -104 96 -201q111 -188 258 -278v-148q-147 -90 -258 -276q-55 -96 -96 -203zM457 182q31 68 68 133q135 236 311 363q-176 127 -311 364q-37 66 -68 134l150 55q39 -104 96 -201 q111 -188 258 -278v-148q-147 -90 -258 -276q-55 -96 -96 -203z" />
<glyph unicode="&#x2c6;" d="M156 1262l266 309h180l266 -309l-141 -101l-215 289l-215 -289z" />
<glyph unicode="&#x2da;" d="M315 1352.5q0 62.5 27 107.5q23 39 61 64q45 27 108.5 26.5t109.5 -26.5q39 -23 61 -64q27 -45 27 -107.5t-27 -107.5q-23 -39 -61 -63q-45 -25 -108.5 -25t-109.5 25q-39 23 -61 63q-27 45 -27 107.5zM436 1354q0 -35 20.5 -55.5t55.5 -20.5t55.5 20.5t20.5 55.5 t-20.5 55.5t-55.5 20.5t-55.5 -20.5t-20.5 -55.5z" />
<glyph unicode="&#x2dc;" d="M137 1255q39 94 74 156q53 92 108 125q35 20 74 18q37 0 72 -18q47 -27 110 -127q37 -57 56 -74q23 20 51 68q33 55 70 145l135 -49q-39 -94 -74 -156q-53 -92 -108 -124q-35 -20 -74 -21q-37 0 -72 21q-47 27 -110 124q-37 57 -56 76q-23 -20 -51 -69q-33 -55 -70 -146z " />
<glyph unicode="&#x400;" d="M184 0v1505h717v-147h-553v-471h436v-148h-436v-592h553v-147h-717zM240 1890l135 107l274 -336l-112 -88z" />
<glyph unicode="&#x401;" d="M180 1823q0 41 16 70q14 27 41 40q29 16 70 17.5t70 -17.5q27 -14 41 -40q16 -29 16 -70t-16 -70q-14 -27 -41 -41q-29 -18 -70 -18t-70 18q-27 14 -41 41q-16 29 -16 70zM184 0v1505h717v-147h-553v-471h436v-148h-436v-592h553v-147h-717zM590 1823q0 41 16 70 q14 27 41 40q29 16 70 17.5t70 -17.5q27 -14 41 -40q16 -29 16 -70t-16 -70q-14 -27 -41 -41q-29 -18 -70 -18t-70 18q-27 14 -41 41q-16 29 -16 70z" />
<glyph unicode="&#x402;" d="M106 1358v147h439v-147h-158v-397q41 72 105 108q57 33 132.5 33t133.5 -33q63 -37 106 -108q61 -106 62 -275v-311q0 -133 -54 -225q-45 -76 -118 -119q-80 -47 -187 -47l-2 147q53 0 94 25q41 23 68 67q35 61 35 152v311q0 111 -41 180q-27 45 -66 68q-35 20 -81 20 t-80 -20q-39 -23 -66 -68q-41 -70 -41 -180v-686h-164v1358h-117z" />
<glyph unicode="&#x403;" d="M184 0v1505h734v-147h-570v-1358h-164zM375 1661l274 336l135 -107l-297 -317z" />
<glyph unicode="&#x404;" d="M106 399v707q0 135 56 233q47 82 131 129q92 53 219 53.5t219 -53.5q82 -47 129 -131q39 -70 51 -149l-159 -29q-6 57 -35 103q-31 53 -80 81q-53 31 -125 31t-125 -31q-49 -29 -80 -79q-37 -66 -37 -158v-279h437v-147h-437v-281q0 -92 37 -157q31 -51 80 -80 q53 -31 125 -31t125 31q51 29 80 82q27 47 35 102l159 -29q-10 -82 -51 -149q-47 -84 -129 -131q-92 -53 -219 -53t-219 53q-82 47 -131 129q-56 96 -56 233z" />
<glyph unicode="&#x405;" d="M113 313v4l161 23v-14q0 -49 25 -93q27 -45 72 -69q55 -33 135 -33q74 0 125 31q47 27 76 74q31 55 30.5 122.5t-37.5 133.5q-51 90 -219 182q-227 129 -299 256q-59 102 -59 215q0 111 51 198q45 80 127 125q90 53 217 54q135 0 232 -56q76 -45 118.5 -118.5 t42.5 -155.5v-4l-161 -23v15q0 49 -25 92q-27 45 -72 69q-55 33 -135 33q-74 0 -125 -31q-47 -27 -76 -73q-31 -55 -30.5 -123t37.5 -133q51 -90 219 -183q227 -129 299 -256q59 -102 59 -215q0 -111 -51 -198q-45 -80 -127 -125q-90 -53 -217 -53q-135 0 -232 55 q-76 45 -118.5 118.5t-42.5 155.5z" />
<glyph unicode="&#x406;" d="M225 0v147h205v1211h-205v147h574v-147h-205v-1211h205v-147h-574z" />
<glyph unicode="&#x407;" d="M180 1823q0 41 16 70q14 27 41 40q29 16 70 17.5t70 -17.5q27 -14 41 -40q16 -29 16 -70t-16 -70q-14 -27 -41 -41q-29 -18 -70 -18t-70 18q-27 14 -41 41q-16 29 -16 70zM225 0v147h205v1211h-205v147h574v-147h-205v-1211h205v-147h-574zM590 1823q0 41 16 70 q14 27 41 40q29 16 70 17.5t70 -17.5q27 -14 41 -40q16 -29 16 -70t-16 -70q-14 -27 -41 -41q-29 -18 -70 -18t-70 18q-27 14 -41 41q-16 29 -16 70z" />
<glyph unicode="&#x408;" d="M82 317l160 31q6 -61 37 -112q29 -51 75.5 -78t109 -27t107.5 27q47 27 76 78q39 66 39 163v959h-276v147h440v-1106q0 -139 -57 -239q-47 -82 -127 -127q-86 -49 -203 -49t-203 49q-80 45 -127 127q-41 71 -51 157z" />
<glyph unicode="&#x409;" d="M61 0v147q29 0 50 21q31 31 30 145q2 31 2 45l37 1147h414v-604q88 0 156 -39q72 -41 118 -121q66 -115 66 -291t-66 -290q-47 -80 -118 -121q-68 -39 -156 -39h-164v1358h-90l-35 -1004q-6 -188 -47 -260q-27 -45 -65 -67q-46 -27 -132 -27zM594 147q37 0 68 17 q35 20 61 65q47 82 47 221.5t-47 221.5q-27 45 -61 65q-31 16 -68 17v-607z" />
<glyph unicode="&#x40a;" d="M123 0v1505h164v-678h143v678h164v-604q88 0 156 -39q72 -41 118 -121q66 -115 66 -291t-66 -290q-47 -80 -118 -121q-68 -39 -156 -39h-164v680h-143v-680h-164zM594 147q37 0 68 17q35 20 61 65q47 82 47 221.5t-47 221.5q-27 45 -61 65q-31 16 -68 17v-607z" />
<glyph unicode="&#x40b;" d="M106 1358v147h439v-147h-158v-414q4 8 8 17q43 74 107 110q51 31 118.5 31t120.5 -31q61 -35 105 -110q72 -125 72 -326v-635h-164v635q0 147 -49 233q-27 47 -66 68q-31 18 -69 18t-68 -18q-37 -23 -66 -68q-49 -86 -49 -233v-635h-164v1358h-117z" />
<glyph unicode="&#x40c;" d="M123 0v1505h164v-696q236 258 360 475q82 143 82 221h172q0 -92 -98 -262q-84 -145 -209 -309q324 -698 324 -934h-164q0 209 -273 797q-88 -104 -194 -215v-582h-164zM375 1661l274 336l135 -107l-297 -317z" />
<glyph unicode="&#x40d;" d="M123 0v1505h164v-602q0 -74 -6 -629l393 1231h227v-1505h-164v602q0 150 4 481q2 92 2 148l-393 -1231h-227zM240 1890l135 107l274 -336l-112 -88z" />
<glyph unicode="&#x40e;" d="M123 1430v75h164v-75q0 -106 61 -287l162 -481l166 481q61 176 61 287v75h164v-75q0 -133 -70 -336l-323 -934q-16 -45 -16 -146v-14h-164v14q0 121 24 195l78 221l-237 664q-70 197 -70 336zM184 1944h164q0 -61 25 -105q43 -76 139 -76t139 76q25 43 25 105h164 q0 -104 -43 -181q-39 -66 -105 -104q-76 -43 -180 -43t-180 43q-66 39 -105 104q-43 75 -43 181z" />
<glyph unicode="&#x40f;" d="M123 0v1505h164v-1358h450v1358h164v-1505h-307v-420h-164v420h-307z" />
<glyph unicode="&#x410;" d="M123 0v152q0 410 307 1353h164q307 -944 307 -1353v-152h-164v152q0 104 -18 243h-414q-18 -141 -18 -243v-152h-164zM328 543h368q-55 315 -184 776q-129 -461 -184 -776z" />
<glyph unicode="&#x411;" d="M123 0v1505h700v-147h-536v-457h119q180 0 303 -72q98 -57 153 -149q55 -96 55.5 -228.5t-55.5 -228.5q-53 -94 -153 -151q-123 -72 -303 -72h-283zM287 147h119q123 0 206 50q68 39 105 102q37 66 37 153t-37 152q-37 63 -105 101q-84 49 -206 49h-119v-607z" />
<glyph unicode="&#x412;" d="M123 0v1505h358q115 0 199 -49q76 -43 123 -123q53 -94 53 -223q0 -115 -47 -197t-133 -125q129 -47 192 -159q49 -84 50 -203q0 -133 -56 -229q-51 -88 -137 -140q-100 -57 -244 -57h-358zM287 147h194q86 0 148 35q55 31 88 88q37 66 37 158t-37 158q-33 57 -88 88 q-61 35 -148 35h-194v-562zM287 856h194q119 0 176 98q35 61 35 154q0 90 -35 152q-57 98 -176 98h-194v-502z" />
<glyph unicode="&#x413;" d="M184 0v1505h734v-147h-570v-1358h-164z" />
<glyph unicode="&#x414;" d="M84 147h35l20 103q94 475 94 1112v143h629v-1358h39v-432h-164v285h-489v-285h-164v432zM287 147h411v1211h-301q0 -647 -96 -1137z" />
<glyph unicode="&#x415;" d="M184 0v1505h717v-147h-553v-471h436v-148h-436v-592h553v-147h-717z" />
<glyph unicode="&#x416;" d="M57 0l183 754l-183 751h164l164 -678h45v678h164v-678h45l164 678h164l-183 -751l183 -754h-164l-164 680h-45v-680h-164v680h-45l-164 -680h-164z" />
<glyph unicode="&#x417;" d="M96 317l160 35q8 -55 35 -100q33 -55 86 -88q57 -33 135 -33q76 0 131 33q53 31 88 86q39 70 39 172q0 98 -41 168q-70 119 -217 119h-117v147h117q129 0 188 105q37 63 37 153q0 92 -37 156q-29 49 -75 78q-47 27 -111.5 26.5t-114.5 -28.5q-47 -27 -75.5 -76 t-32.5 -109l-162 27q10 86 51 158q47 80 125 127q86 49 207 49t209 -49q80 -45 125 -127q55 -94 55 -230q0 -115 -47 -196q-51 -90 -147 -136q25 -10 45 -22q84 -49 131 -129q51 -88 51 -215q0 -141 -57 -242q-51 -88 -138 -137q-94 -55 -227 -55t-229 55q-86 49 -136 137 q-37 65 -51 141z" />
<glyph unicode="&#x418;" d="M123 0v1505h164v-602q0 -74 -6 -629l393 1231h227v-1505h-164v602q0 150 4 481q2 92 2 148l-393 -1231h-227z" />
<glyph unicode="&#x419;" d="M123 0v1505h164v-602q0 -74 -6 -629l393 1231h227v-1505h-164v602q0 150 4 481q2 92 2 148l-393 -1231h-227zM184 1944h164q0 -61 25 -105q43 -76 139 -76t139 76q25 43 25 105h164q0 -104 -43 -181q-39 -66 -105 -104q-76 -43 -180 -43t-180 43q-66 39 -105 104 q-43 75 -43 181z" />
<glyph unicode="&#x41a;" d="M123 0v1505h164v-696q236 258 360 475q82 143 82 221h172q0 -92 -98 -262q-84 -145 -209 -309q324 -698 324 -934h-164q0 209 -273 797q-88 -104 -194 -215v-582h-164z" />
<glyph unicode="&#x41b;" d="M92 0v147q35 0 55 23q29 29 33 188l41 1147h641v-1505h-164v1358h-319l-35 -1004q-6 -184 -47 -256q-27 -47 -68 -71q-47 -27 -137 -27z" />
<glyph unicode="&#x41c;" d="M123 0v1505h180l209 -811l209 811h180v-1505h-164v301q0 281 21 602q10 164 14 316l-199 -768h-122l-199 768q4 -152 14 -316q20 -322 21 -602v-301h-164z" />
<glyph unicode="&#x41d;" d="M123 0v1505h164v-641h450v641h164v-1505h-164v717h-450v-717h-164z" />
<glyph unicode="&#x41e;" d="M106 399v707q0 135 56 231q47 82 131 131q92 53 219 53.5t219 -53.5q82 -47 131 -131q55 -96 56 -231v-707q0 -135 -56 -231q-47 -82 -131 -131q-92 -53 -219 -53t-219 53q-82 47 -131 131q-56 96 -56 231zM270 399q0 -92 37 -157q31 -51 80 -80q53 -31 125 -31t125 31 q51 29 80 80q37 63 37 157v707q0 92 -37 158q-31 51 -80 79q-53 31 -125 31t-125 -31q-51 -29 -80 -79q-37 -63 -37 -158v-707z" />
<glyph unicode="&#x41f;" d="M123 0v1505h778v-1505h-164v1358h-450v-1358h-164z" />
<glyph unicode="&#x420;" d="M154 0v1505h360q123 0 215 -51q82 -47 131 -133q57 -100 57.5 -244.5t-57.5 -245.5q-49 -86 -131 -133q-90 -51 -215 -53h-197v-645h-163zM317 793h197q135 0 201 112q39 70 39 171.5t-39 168.5q-63 113 -201 113h-197v-565z" />
<glyph unicode="&#x421;" d="M106 399v707q0 135 56 233q47 82 131 129q92 53 219 53.5t219 -53.5q82 -47 129 -131q39 -70 51 -149l-159 -29q-6 57 -35 103q-31 53 -80 81q-53 31 -125 31t-125 -31q-49 -29 -80 -79q-37 -66 -37 -158v-707q0 -92 37 -157q31 -51 80 -80q53 -31 125 -31t125 31 q51 29 80 82q27 47 35 102l159 -29q-10 -82 -51 -149q-47 -84 -129 -131q-92 -53 -219 -53t-219 53q-82 47 -131 129q-56 96 -56 233z" />
<glyph unicode="&#x422;" d="M123 1358v147h778v-147h-307v-1358h-164v1358h-307z" />
<glyph unicode="&#x423;" d="M123 1430v75h164v-75q0 -106 61 -287l162 -481l166 481q61 176 61 287v75h164v-75q0 -133 -70 -336l-323 -934q-16 -45 -16 -146v-14h-164v14q0 121 24 195l78 221l-237 664q-70 197 -70 336z" />
<glyph unicode="&#x424;" d="M106 588v330q0 135 56 233q47 82 131 129q61 35 137 47v178h164v-178q76 -12 137 -47q82 -47 131 -129q55 -96 56 -233v-330q0 -135 -56 -234q-47 -82 -131 -129q-61 -35 -137 -47v-178h-164v178q-76 12 -137 47q-82 47 -131 129q-56 97 -56 234zM270 588q0 -92 37 -158 q31 -51 80 -80q20 -12 43 -18v842q-23 -6 -43 -19q-51 -29 -80 -80q-37 -63 -37 -157v-330zM594 332q23 6 43 18q51 29 80 80q37 63 37 158v330q0 92 -37 157q-31 51 -80 80q-20 12 -43 19v-842z" />
<glyph unicode="&#x425;" d="M123 0v76q0 190 113 387q10 18 22 37l160 254l-160 252q-12 18 -22 36q-113 197 -113 388v75h164v-75q0 -170 110 -345l115 -184l115 184q111 174 110 345v75h164v-75q0 -190 -113 -388q-10 -18 -22 -36l-160 -252l160 -254q12 -18 22 -37q113 -197 113 -387v-76h-164v76 q0 170 -110 344l-115 184l-115 -184q-111 -174 -110 -344v-76h-164z" />
<glyph unicode="&#x426;" d="M123 0v1505h164v-1358h450v1358h164v-1358h76v-432h-164v285h-690z" />
<glyph unicode="&#x427;" d="M123 852v653h164v-653q0 -88 35 -147q59 -104 190 -105h225v905h164v-1505h-164v453h-225q-123 0 -211 51q-78 45 -125 125q-53 92 -53 223z" />
<glyph unicode="&#x428;" d="M123 0v1505h164v-1358h143v1358h164v-1358h143v1358h164v-1505h-778z" />
<glyph unicode="&#x429;" d="M123 0v1505h164v-1358h143v1358h164v-1358h143v1358h164v-1358h76v-432h-164v285h-690z" />
<glyph unicode="&#x42a;" d="M74 1358v147h291v-604h65q164 0 281 -65q96 -55 149 -150q57 -100 57.5 -236.5t-57.5 -234.5q-53 -92 -149 -149q-115 -66 -281 -66h-229v1358h-127zM365 147h65q109 0 184 43q63 37 101 101q39 68 39 161t-39 158q-37 61 -101 101q-76 43 -184 43h-65v-607z" />
<glyph unicode="&#x42b;" d="M106 0v1505h164v-604q123 0 213 -51q86 -49 138 -137q61 -106 61 -261t-61 -264q-51 -88 -138 -137q-90 -51 -213 -51h-164zM270 147q68 0 119 29q51 31 86 88q43 76 43 187.5t-43 187.5q-33 57 -86 86q-51 29 -119 29v-607zM754 0v1505h164v-1505h-164z" />
<glyph unicode="&#x42c;" d="M123 0v1505h164v-604h119q180 0 303 -72q98 -57 153 -149q55 -96 55.5 -228.5t-55.5 -228.5q-53 -94 -153 -151q-123 -72 -303 -72h-283zM287 147h119q123 0 206 50q68 39 105 102q37 66 37 153t-37 152q-37 63 -105 101q-84 49 -206 49h-119v-607z" />
<glyph unicode="&#x42d;" d="M113 317l159 29q6 -57 35 -102q31 -53 80 -82q53 -31 125 -31t125 31q49 29 80 80q37 66 37 157v281h-437v147h437v279q0 92 -37 158q-31 51 -80 79q-53 31 -125 31t-125 -31q-51 -29 -80 -81q-27 -47 -35 -103l-159 29q10 82 51 149q47 84 129 131q92 53 219 53.5 t219 -53.5q82 -47 131 -129q55 -96 56 -233v-707q0 -135 -56 -233q-47 -82 -131 -129q-92 -53 -219 -53t-219 53q-82 47 -129 131q-39 69 -51 149z" />
<glyph unicode="&#x42e;" d="M106 0v1505h164v-678h97v359q0 121 49 203q37 63 95 98t139 35t140.5 -34t96.5 -99q47 -82 47 -203v-867q0 -121 -47 -202q-37 -63 -96.5 -98t-140.5 -35t-140 33.5t-94 99.5q-47 82 -49 202v361h-97v-680h-164zM530 319q0 -111 52 -159q29 -29 69.5 -29t69.5 29 q49 49 49 159v867q0 111 -49 160q-29 29 -70 28.5t-69 -28.5q-49 -49 -52 -160v-867z" />
<glyph unicode="&#x42f;" d="M106 0q0 215 166 504q45 80 103 160q-43 12 -80 34q-82 47 -131 133q-57 100 -57.5 245t57.5 245q49 86 131 133q90 51 215 51h360v-1505h-163v645h-152q-82 -111 -143 -215q-141 -246 -142 -430h-164zM270 1075.5q0 -100.5 39 -170.5q63 -113 201 -112h197v565h-197 q-135 0 -201 -113q-39 -69 -39 -169.5z" />
<glyph unicode="&#x430;" d="M106 305q0 94 39 160q41 72 123 119q113 66 283 65h186v94q0 63 -26 111q-25 43 -70 70q-55 31 -135 30q-82 0 -135 -32q-45 -25 -72 -70q-18 -33 -23 -70l-157 37q8 57 37 109q43 76 118 121q94 53 232 53q135 0 231 -55q78 -45 119 -117q45 -78 45 -187v-743h-164v152 q-47 -78 -123 -121q-82 -47 -192 -47q-100 0 -170 41q-63 37 -102 102q-44 76 -44 178zM270 305q0 -100 82 -145q49 -29 121 -29q82 0 141 35q55 31 86 86q37 63 37 154v96h-186q-115 0 -189 -41q-47 -27 -71 -70q-21 -37 -21 -86z" />
<glyph unicode="&#x431;" d="M106 451v307q0 319 78 454q47 80 119 121q47 27 150 56q188 51 366 116l55 -139q-182 -70 -374 -117q-76 -18 -109 -39q-47 -27 -78 -80q-37 -63 -45 -188q41 59 99 92q63 37 151 37q117 0 207 -53q84 -49 133 -133q59 -102 60 -250v-184q0 -166 -66 -279 q-51 -90 -137 -139t-203 -49t-203 49q-84 49 -137 139q-66 113 -66 279zM270 451q0 -125 47 -205q33 -57 84 -88q47 -27 110.5 -27t111.5 27q51 29 84 88q47 82 47 205v184q0 104 -41 176q-31 53 -82 82q-49 29 -117 31q-70 0 -121 -30t-82 -85q-41 -70 -41 -174v-184z" />
<glyph unicode="&#x432;" d="M123 0v1085h448q88 0 154 -36q57 -33 90 -93q41 -70 41 -165q0 -82 -33 -138q-29 -49 -78 -82q20 -8 39 -20q63 -37 101 -96q33 -57 33 -140q0 -94 -41 -163q-39 -66 -105 -105q-82 -47 -201 -47h-448zM287 147h284q61 0 105 25q35 20 55 55q23 37 23 90.5t-23 92.5 q-20 35 -55 57q-43 25 -105 25h-284v-345zM287 639h284q47 0 80 31q41 41 41 118.5t-41 118.5q-31 31 -80 31h-284v-299z" />
<glyph unicode="&#x433;" d="M184 0v1085h734v-147h-570v-938h-164z" />
<glyph unicode="&#x434;" d="M84 147h41l16 60q92 330 92 778v100h629v-938h39v-432h-164v285h-489v-285h-164v432zM293 147h405v791h-301q-4 -436 -98 -770z" />
<glyph unicode="&#x435;" d="M106 451v184q0 166 66 278q51 90 137 139.5t203 49.5t203 -49q84 -49 137 -140q66 -113 66 -278v-166h-648v-18q0 -119 47 -199q35 -59 86.5 -90t123 -31t122.5 31q55 31 90 90q20 33 31 74l150 -60q-14 -47 -39 -88q-53 -90 -140 -141q-90 -53 -215 -53t-215 53 q-86 51 -139 139q-66 113 -66 275zM270 616h484v19q0 125 -47 205q-33 57 -84 88q-47 27 -110.5 26.5t-111.5 -26.5q-51 -29 -84 -88q-47 -82 -47 -205v-19z" />
<glyph unicode="&#x436;" d="M57 0l183 543l-183 542h164l158 -469h51v469h164v-469h51l158 469h164l-183 -542l183 -543h-164l-158 469h-51v-469h-164v469h-51l-158 -469h-164z" />
<glyph unicode="&#x437;" d="M96 225l152 56q6 -14 14 -29q31 -53 84 -84q63 -37 164 -37q106 0 176 39q43 25 64 63q20 35 20 78t-20 78q-23 39 -66 64q-68 39 -172 39h-117v147h117q92 0 150 33q39 23 59 55q16 31 16 70t-18 69q-18 33 -55 54q-59 35 -152 34q-86 0 -139 -32q-45 -27 -72 -70 q-10 -18 -16 -41l-156 49q10 35 29 68q45 76 121 121q92 53 233 53q147 0 246 -58q72 -41 108 -104q35 -61 35 -141q0 -68 -29 -119q-33 -57 -98 -94q-18 -10 -39 -19q33 -12 62 -28q72 -41 106 -103q31 -53 31 -127q0 -86 -39 -151q-39 -68 -115 -113q-106 -61 -270 -61 q-154 0 -256 59q-86 49 -135 133q-15 24 -23 49z" />
<glyph unicode="&#x438;" d="M123 0v1085h164v-434q0 -53 -6 -454l393 888h227v-1085h-164v434q0 53 6 455l-393 -889h-227z" />
<glyph unicode="&#x439;" d="M123 0v1085h164v-434q0 -53 -6 -454l393 888h227v-1085h-164v434q0 53 6 455l-393 -889h-227zM184 1524h164q0 -61 25 -105q43 -76 139 -76t139 76q25 43 25 105h164q0 -104 -43 -181q-39 -66 -105 -104q-76 -43 -180 -43t-180 43q-66 39 -105 104q-43 75 -43 181z" />
<glyph unicode="&#x43a;" d="M123 0v1085h164v-477q324 242 418 406q25 43 24 71h172q0 -39 -35 -98q-78 -135 -268 -311q70 -111 127 -211q193 -334 193 -465h-164q0 106 -146 360q-55 98 -131 211q-86 -72 -190 -151v-420h-164z" />
<glyph unicode="&#x43b;" d="M92 0v147q33 0 55 21q31 31 33 143v47l41 727h641v-1085h-164v938h-321l-33 -588q-10 -186 -49 -254q-27 -45 -68 -69q-45 -27 -135 -27z" />
<glyph unicode="&#x43c;" d="M123 0v1085h180l209 -583l209 583h180v-1085h-164v217q0 203 21 434q10 119 14 228l-199 -553h-122l-199 553q4 -111 14 -228q20 -231 21 -434v-217h-164z" />
<glyph unicode="&#x43d;" d="M123 0v1085h164v-442h450v442h164v-1085h-164v496h-450v-496h-164z" />
<glyph unicode="&#x43e;" d="M106 451v184q0 166 66 278q51 90 137 139.5t203 49.5t203 -49q84 -49 137 -140q66 -113 66 -278v-184q0 -166 -66 -279q-51 -90 -137 -139t-203 -49t-203 49q-84 49 -137 139q-66 113 -66 279zM270 451q0 -125 47 -205q33 -57 84 -88q47 -27 110.5 -27t111.5 27 q51 29 84 88q47 82 47 205v184q0 125 -47 205q-33 57 -84 88q-47 27 -110.5 26.5t-111.5 -26.5q-51 -29 -84 -88q-47 -82 -47 -205v-184z" />
<glyph unicode="&#x43f;" d="M102 938v147h820v-147h-60v-938h-164v938h-372v-938h-164v938h-60z" />
<glyph unicode="&#x440;" d="M123 -420v1505h164v-155q4 6 6 12q47 82 119 123q66 37 151 37q92 0 162 -41q76 -43 125 -127q68 -119 68 -299v-184q0 -180 -68 -299q-49 -84 -125 -127q-70 -41 -162 -41q-86 0 -151 36q-72 41 -119 123q-4 6 -6 13v-576h-164zM287 451q0 -129 47 -213q31 -55 80 -82 q43 -25 100 -25q61 0 109 27q51 29 84 88q47 82 47 205v184q0 125 -47 205q-33 57 -84 88q-47 27 -109 26q-57 0 -100 -24q-47 -27 -80 -82q-47 -82 -47 -213v-184z" />
<glyph unicode="&#x441;" d="M106 451v184q0 164 66 278q51 90 137 138q88 51 206 51t206 -51q86 -49 137 -138q39 -66 53 -145l-155 -45q-10 63 -41 115q-33 57 -86 88q-49 29 -115 28q-63 0 -113 -28q-51 -31 -84 -86q-47 -82 -47 -205v-184q0 -123 47 -205q33 -57 84 -86q49 -29 113 -29 q66 0 115 29q53 31 86 88q29 51 41 114l155 -45q-14 -78 -53 -145q-51 -90 -137 -137q-88 -51 -207 -51t-205 51q-86 49 -137 137q-66 115 -66 279z" />
<glyph unicode="&#x442;" d="M123 938v147h778v-147h-307v-938h-164v938h-307z" />
<glyph unicode="&#x443;" d="M123 1010v75h164v-75q0 -106 61 -287l162 -481l166 481q61 176 61 287v75h164v-75q0 -133 -70 -336l-323 -934q-16 -45 -16 -146v-14h-164v14q0 121 24 195l78 221l-237 664q-70 197 -70 336z" />
<glyph unicode="&#x444;" d="M106 451v184q0 166 66 278q51 90 137 140q53 31 121 43v409h164v-409q68 -12 121 -43q84 -49 137 -140q66 -113 66 -278v-184q0 -166 -66 -279q-51 -90 -137 -139q-55 -31 -121 -43v-410h-164v410q-68 12 -121 43q-84 49 -137 139q-66 113 -66 279zM270 451 q0 -125 47 -205q33 -57 84 -88q14 -6 29 -13v795q-14 -6 -29 -12q-51 -29 -84 -88q-47 -82 -47 -205v-184zM594 145q14 6 29 13q51 29 84 88q47 82 47 205v184q0 125 -47 205q-33 57 -84 88q-14 6 -29 12v-795z" />
<glyph unicode="&#x445;" d="M123 0v10q0 68 82 211q31 55 55 88l156 234l-156 233q-23 33 -55 88q-82 143 -82 211v10h164v-10q0 -53 108 -217l117 -172l117 172q109 162 108 217v10h164v-10q0 -68 -82 -211q-31 -55 -55 -88l-156 -233l156 -234q23 -33 55 -88q82 -143 82 -211v-10h-164v10 q0 53 -108 217l-117 172l-117 -172q-109 -162 -108 -217v-10h-164z" />
<glyph unicode="&#x446;" d="M123 0v1085h164v-938h450v938h164v-938h76v-432h-164v285h-690z" />
<glyph unicode="&#x447;" d="M123 760v325h164v-325q0 -88 35 -148q59 -104 190 -104h225v577h164v-1085h-164v360h-225q-123 0 -211 52q-78 45 -125 125q-53 92 -53 223z" />
<glyph unicode="&#x448;" d="M123 0v1085h164v-938h143v938h164v-938h143v938h164v-1085h-778z" />
<glyph unicode="&#x449;" d="M123 0v1085h164v-938h143v938h164v-938h143v938h164v-938h76v-432h-164v285h-690z" />
<glyph unicode="&#x44a;" d="M74 938v147h291v-413h186q125 0 213 -51q72 -41 110 -111q43 -74 43.5 -175.5t-43.5 -172.5q-41 -70 -110 -111q-86 -51 -213 -51h-350v938h-127zM365 147h186q68 0 117 27q41 23 61 64q25 41 25 98t-25 98q-23 39 -61 62q-47 29 -117 28h-186v-377z" />
<glyph unicode="&#x44b;" d="M106 0v1085h164v-413h82q104 0 178 -43q68 -39 107 -107q45 -78 45 -186.5t-45 -185.5q-39 -68 -107 -107q-74 -43 -178 -43h-246zM270 147h82q94 0 140 76q27 45 26.5 111.5t-26.5 111.5q-45 78 -140 78h-82v-377zM754 0v1085h164v-1085h-164z" />
<glyph unicode="&#x44c;" d="M123 0v1085h164v-413h245q135 0 230 -56q74 -43 115 -112q41 -72 41 -169t-41 -169q-41 -70 -115 -113q-94 -53 -230 -53h-409zM287 147h245q80 0 134 31q43 25 65.5 65t22.5 93t-22.5 92t-65.5 64q-53 33 -134 32h-245v-377z" />
<glyph unicode="&#x44d;" d="M113 317l155 45q10 -63 41 -114q33 -57 86 -88q49 -29 115 -29q63 0 113 29q51 31 84 86q47 82 47 205v18h-437v147h437v19q0 123 -47 205q-33 57 -84 86q-49 29 -113 28q-66 0 -115 -28q-53 -31 -86 -88q-29 -51 -41 -115l-155 45q14 78 53 145q51 90 137 138 q88 51 207 51t205 -51q86 -49 137 -138q66 -115 66 -278v-184q0 -164 -66 -279q-51 -90 -137 -137q-88 -51 -206 -51t-206 51q-86 49 -137 137q-39 65 -53 145z" />
<glyph unicode="&#x44e;" d="M106 0v1085h164v-469h97v109q0 147 55 244q39 68 100 100q55 33 129 33t129 -33q59 -35 99 -100q55 -96 55 -244v-365q0 -147 -55 -243q-39 -68 -99 -101q-55 -33 -128.5 -32.5t-129.5 32.5q-59 35 -100 101q-55 96 -55 243v109h-97v-469h-164zM530 360q0 -145 60 -202 q27 -27 61.5 -27t61.5 27q57 57 57 202v365q0 145 -57 203q-27 27 -63 26.5t-60 -26.5q-57 -57 -60 -203v-365z" />
<glyph unicode="&#x44f;" d="M106 0q0 98 70 217q57 100 162 215q-47 10 -86 33q-63 37 -100 102q-45 78 -45.5 187.5t45.5 187.5q39 66 100 102q72 41 168 41h450v-1085h-163v424h-160q-156 -141 -225 -262q-51 -88 -52 -162h-164zM270 754.5q0 -68.5 27 -113.5q20 -35 51 -51q31 -18 72 -19h287v367 h-287q-41 0 -72 -18.5t-51 -51.5q-27 -45 -27 -113.5z" />
<glyph unicode="&#x450;" d="M106 451v184q0 166 66 278q51 90 137 139.5t203 49.5t203 -49q84 -49 137 -140q66 -113 66 -278v-166h-648v-18q0 -119 47 -199q35 -59 86.5 -90t123 -31t122.5 31q55 31 90 90q20 33 31 74l150 -60q-14 -47 -39 -88q-53 -90 -140 -141q-90 -53 -215 -53t-215 53 q-86 51 -139 139q-66 113 -66 275zM240 1470l135 107l274 -336l-112 -88zM270 616h484v19q0 125 -47 205q-33 57 -84 88q-47 27 -110.5 26.5t-111.5 -26.5q-51 -29 -84 -88q-47 -82 -47 -205v-19z" />
<glyph unicode="&#x451;" d="M106 451v184q0 166 66 278q51 90 137 139.5t203 49.5t203 -49q84 -49 137 -140q66 -113 66 -278v-166h-648v-18q0 -119 47 -199q35 -59 86.5 -90t123 -31t122.5 31q55 31 90 90q20 33 31 74l150 -60q-14 -47 -39 -88q-53 -90 -140 -141q-90 -53 -215 -53t-215 53 q-86 51 -139 139q-66 113 -66 275zM180 1403q0 41 16 70q14 27 41 40q29 16 70 17.5t70 -17.5q27 -14 41 -40q16 -29 16 -70t-16 -70q-14 -27 -41 -41q-29 -18 -70 -18t-70 18q-27 14 -41 41q-16 29 -16 70zM270 616h484v19q0 125 -47 205q-33 57 -84 88q-47 27 -110.5 26.5 t-111.5 -26.5q-51 -29 -84 -88q-47 -82 -47 -205v-19zM590 1403q0 41 16 70q14 27 41 40q29 16 70 17.5t70 -17.5q27 -14 41 -40q16 -29 16 -70t-16 -70q-14 -27 -41 -41q-29 -18 -70 -18t-70 18q-27 14 -41 41q-16 29 -16 70z" />
<glyph unicode="&#x452;" d="M37 1200v148h86v157h164v-157h225v-148h-225v-270q4 6 6 12q47 82 119 123q66 37 151.5 37t149.5 -37q72 -41 118 -123q70 -121 70 -307v-635q0 -111 -49 -195q-47 -80 -133 -131q-113 -66 -281 -65v147q111 0 185 43q55 33 86 82q29 51 28 119v635q0 129 -47 213 q-31 55 -80 82q-43 25 -98 24.5t-98 -24.5q-47 -27 -80 -82q-47 -82 -47 -213v-635h-164v1200h-86z" />
<glyph unicode="&#x453;" d="M184 0v1085h734v-147h-570v-938h-164zM375 1241l274 336l135 -107l-297 -317z" />
<glyph unicode="&#x454;" d="M106 451v184q0 164 66 278q51 90 137 138q88 51 206 51t206 -51q86 -49 137 -138q39 -66 53 -145l-155 -45q-10 63 -41 115q-33 57 -86 88q-49 29 -115 28q-63 0 -113 -28q-51 -31 -84 -86q-47 -82 -47 -205v-19h437v-147h-437v-18q0 -123 47 -205q33 -57 84 -86 q49 -29 113 -29q66 0 115 29q53 31 86 88q29 51 41 114l155 -45q-14 -78 -53 -145q-51 -90 -137 -137q-88 -51 -207 -51t-205 51q-86 49 -137 137q-66 115 -66 279z" />
<glyph unicode="&#x455;" d="M117 225l153 49q6 -18 17 -36q27 -47 75 -74q57 -33 146 -33q96 0 158 35q39 23 57 55q16 29 16 66q0 39 -20 73q-20 37 -62 62q-49 29 -163 41q-143 16 -215 57q-74 43 -115 115q-43 74 -43 164q0 80 35 141q37 63 108 104q100 57 252 58q143 0 240 -55q78 -45 123 -123 q18 -31 28 -64l-153 -49q-6 18 -17 37q-27 47 -75 74q-57 33 -146 32q-96 0 -158 -34q-39 -23 -57 -56q-16 -29 -16 -65q0 -39 20 -74q20 -37 62 -61q49 -29 163 -41q143 -16 215 -58q74 -43 115 -114q43 -74 43 -164q0 -80 -35 -142q-37 -63 -108 -104q-100 -57 -252 -57 q-143 0 -240 55q-78 45 -123 123q-18 30 -28 63z" />
<glyph unicode="&#x456;" d="M154 0v147h290v791h-262v147h426v-938h262v-147h-716zM385 1403q0 41 16 70q14 27 41 40q29 16 70 17.5t70 -17.5q27 -14 41 -40q16 -29 16 -70t-16 -70q-14 -27 -41 -41q-29 -18 -70 -18t-70 18q-27 14 -41 41q-16 29 -16 70z" />
<glyph unicode="&#x457;" d="M154 0v147h290v791h-262v147h426v-938h262v-147h-716zM180 1403q0 41 16 70q14 27 41 40q29 16 70 17.5t70 -17.5q27 -14 41 -40q16 -29 16 -70t-16 -70q-14 -27 -41 -41q-29 -18 -70 -18t-70 18q-27 14 -41 41q-16 29 -16 70zM590 1403q0 41 16 70q14 27 41 40 q29 16 70 17.5t70 -17.5q27 -14 41 -40q16 -29 16 -70t-16 -70q-14 -27 -41 -41q-29 -18 -70 -18t-70 18q-27 14 -41 41q-16 29 -16 70z" />
<glyph unicode="&#x458;" d="M27 -143l155 49q10 -57 35 -103q27 -47 68 -71q37 -20 84 -20.5t84 20.5q41 23 65 69q41 70 41 179v958h-276v147h440v-1105q0 -150 -59 -252q-45 -78 -119 -121t-175.5 -43t-175 43t-120.5 121q-33 59 -47 129zM487 1403q0 41 16 70q14 27 41 40q29 16 70 17.5t70 -17.5 q27 -14 41 -40q16 -29 16 -70t-16 -70q-14 -27 -41 -41q-29 -18 -70 -18t-70 18q-27 14 -41 41q-16 29 -16 70z" />
<glyph unicode="&#x459;" d="M61 0v147q29 0 50 21q29 29 30 135q2 37 2 55l37 727h414v-413h31q92 0 161 -41q63 -37 103 -103q45 -80 45 -193.5t-45 -193.5q-39 -66 -103 -102q-68 -39 -161 -39h-195v938h-92l-33 -588q-10 -190 -49 -258q-27 -45 -63 -67q-46 -25 -132 -25zM594 147h31q39 0 67 17 q31 18 51 51q27 47 27 120t-27 120q-20 35 -51 51q-29 18 -67 18h-31v-377z" />
<glyph unicode="&#x45a;" d="M123 0v1085h164v-469h143v469h164v-413h31q92 0 161 -41q63 -37 103 -103q45 -80 45 -193.5t-45 -193.5q-39 -66 -103 -102q-68 -39 -161 -39h-195v469h-143v-469h-164zM594 147h31q39 0 67 17q31 18 51 51q27 47 27 120t-27 120q-20 35 -51 51q-29 18 -67 18h-31v-377z " />
<glyph unicode="&#x45b;" d="M37 1200v148h86v157h164v-157h225v-148h-225v-270q4 6 6 12q47 82 119 123q66 37 151.5 37t149.5 -37q72 -41 118 -123q70 -121 70 -307v-635h-164v635q0 129 -47 213q-31 55 -80 82q-43 25 -98 24.5t-98 -24.5q-47 -27 -80 -82q-47 -82 -47 -213v-635h-164v1200h-86z " />
<glyph unicode="&#x45c;" d="M123 0v1085h164v-477q324 242 418 406q25 43 24 71h172q0 -39 -35 -98q-78 -135 -268 -311q70 -111 127 -211q193 -334 193 -465h-164q0 106 -146 360q-55 98 -131 211q-86 -72 -190 -151v-420h-164zM375 1241l274 336l135 -107l-297 -317z" />
<glyph unicode="&#x45d;" d="M123 0v1085h164v-434q0 -53 -6 -454l393 888h227v-1085h-164v434q0 53 6 455l-393 -889h-227zM240 1470l135 107l274 -336l-112 -88z" />
<glyph unicode="&#x45e;" d="M123 1010v75h164v-75q0 -106 61 -287l162 -481l166 481q61 176 61 287v75h164v-75q0 -133 -70 -336l-323 -934q-16 -45 -16 -146v-14h-164v14q0 121 24 195l78 221l-237 664q-70 197 -70 336zM184 1524h164q0 -61 25 -105q43 -76 139 -76t139 76q25 43 25 105h164 q0 -104 -43 -181q-39 -66 -105 -104q-76 -43 -180 -43t-180 43q-66 39 -105 104q-43 75 -43 181z" />
<glyph unicode="&#x45f;" d="M123 0v1085h164v-938h450v938h164v-1085h-307v-420h-164v420h-307z" />
<glyph unicode="&#x466;" d="M123 0v152q0 410 307 1353h164q307 -944 307 -1353v-152h-164v152q0 176 -53 454h-90v-606h-164v606h-90q-53 -279 -53 -454v-152h-164zM369 754h286q-53 250 -143 565q-90 -315 -143 -565z" />
<glyph unicode="&#x467;" d="M123 0v109q0 295 307 976h164q307 -682 307 -976v-109h-164v109q0 113 -43 286h-100v-395h-164v395h-100q-43 -174 -43 -286v-109h-164zM371 543h282q-53 176 -141 399q-88 -223 -141 -399z" />
<glyph unicode="&#x46a;" d="M57 0l183 866h108l-258 639h844l-258 -639h108l183 -866h-164l-152 719h-57v-719h-164v719h-57l-152 -719h-164zM313 1358l199 -492l199 492h-398z" />
<glyph unicode="&#x46b;" d="M57 0l183 598h108l-258 487h844l-258 -487h108l183 -598h-164l-137 451h-72v-451h-164v451h-72l-137 -451h-164zM332 938l180 -340l180 340h-360z" />
<glyph unicode="&#x474;" d="M123 1356v149h164v-149q0 -365 223 -1166q63 301 111 922q12 164 57 240q39 68 106 108q80 45 234 45v-147q-86 0 -131 -27q-41 -23 -64 -63q-29 -51 -39 -172q-76 -817 -190 -1096h-164q-307 946 -307 1356z" />
<glyph unicode="&#x475;" d="M123 977v108h164v-108q0 -260 227 -840q12 35 25 78q47 178 84 496q16 150 59 223q39 68 104 106q78 45 232 45v-147q-82 0 -127 -25q-39 -23 -64 -65q-27 -45 -41 -152q-78 -524 -192 -696h-164q-307 682 -307 977z" />
<glyph unicode="&#x476;" d="M66 1890l135 107l274 -336l-112 -88zM123 1356v149h164v-149q0 -365 223 -1166q63 301 111 922q12 164 57 240q39 68 106 108q80 45 234 45v-147q-86 0 -131 -27q-41 -23 -64 -63q-29 -51 -39 -172q-76 -817 -190 -1096h-164q-307 946 -307 1356zM414 1890l135 107 l274 -336l-112 -88z" />
<glyph unicode="&#x477;" d="M66 1470l135 107l274 -336l-112 -88zM123 977v108h164v-108q0 -260 227 -840q12 35 25 78q47 178 84 496q16 150 59 223q39 68 104 106q78 45 232 45v-147q-82 0 -127 -25q-39 -23 -64 -65q-27 -45 -41 -152q-78 -524 -192 -696h-164q-307 682 -307 977zM414 1470 l135 107l274 -336l-112 -88z" />
<glyph unicode="&#x478;" d="M29 399v707q0 174 51 285q33 70 82 102q43 29 97 29t97 -29q49 -33 82 -102q53 -109 51 -285v-707q0 -174 -51 -284q-33 -70 -82 -103q-43 -29 -97 -28.5t-97 28.5q-49 33 -82 103q-53 108 -51 284zM164 399q0 -184 53 -245q18 -23 42 -23t42 23q53 63 53 245v707 q0 184 -53 246q-18 23 -41.5 22.5t-42.5 -22.5q-53 -63 -53 -246v-707zM547 1010v75h137v-75q0 -106 33 -295l47 -275l49 275q33 180 33 295v75h137v-75q0 -129 -37 -326l-168 -934q-8 -51 -10 -156v-14h-135v14q0 117 12 187l53 293l-114 610q-35 189 -37 326z" />
<glyph unicode="&#x479;" d="M29 451v184q0 211 59 336q35 70 82 104q39 27 89 27t89 -27q47 -33 82 -104q59 -125 59 -336v-184q0 -211 -59 -336q-35 -70 -82 -105q-39 -27 -89 -26.5t-89 26.5q-47 33 -82 105q-59 125 -59 336zM164 451q0 -231 57 -299q16 -20 38 -20.5t38 20.5q57 68 57 299v184 q0 231 -57 299q-16 20 -37.5 20t-38.5 -20q-57 -68 -57 -299v-184zM547 1010v75h137v-75q0 -106 33 -295l47 -275l49 275q33 180 33 295v75h137v-75q0 -129 -37 -326l-168 -934q-8 -51 -10 -156v-14h-135v14q0 117 12 187l53 293l-114 610q-35 189 -37 326z" />
<glyph unicode="&#x490;" d="M184 0v1505h570v318h164v-465h-570v-1358h-164z" />
<glyph unicode="&#x491;" d="M184 0v1085h570v318h164v-465h-570v-938h-164z" />
<glyph unicode="&#x492;" d="M37 649v148h147v708h734v-147h-570v-561h189v-148h-189v-649h-164v649h-147z" />
<glyph unicode="&#x493;" d="M37 446v148h147v491h734v-147h-570v-344h189v-148h-189v-446h-164v446h-147z" />
<glyph unicode="&#x496;" d="M57 0l183 754l-183 751h164l164 -678h45v678h164v-678h45l164 678h164l-183 -751l148 -607h149v-432h-163v285h-115l-164 680h-45v-680h-164v680h-45l-164 -680h-164z" />
<glyph unicode="&#x497;" d="M57 0l183 543l-183 542h164l158 -469h51v469h164v-469h51l158 469h164l-183 -542l134 -396h163v-432h-163v285h-115l-158 469h-51v-469h-164v469h-51l-158 -469h-164z" />
<glyph unicode="&#x498;" d="M96 317l160 35q8 -55 35 -100q33 -55 86 -88q57 -33 135 -33q76 0 131 33q53 31 88 86q39 70 39 172q0 98 -41 168q-70 119 -217 119h-117v147h117q129 0 188 105q37 63 37 153q0 92 -37 156q-29 49 -75 78q-47 27 -111.5 26.5t-114.5 -28.5q-47 -27 -75.5 -76 t-32.5 -109l-162 27q10 86 51 158q47 80 125 127q86 49 207 49t209 -49q80 -45 125 -127q55 -94 55 -230q0 -115 -47 -196q-51 -90 -147 -136q25 -10 45 -22q84 -49 131 -129q51 -88 51 -215q0 -141 -57 -242q-51 -88 -138 -137q-94 -55 -227 -55t-229 55q-86 49 -136 137 q-37 65 -51 141zM307 -291h205q29 0 45 17q12 12 12 31.5t-12 31.5q-16 16 -45 14h-82v197h164v-59q78 -23 115 -86q25 -41 24.5 -98.5t-24.5 -98.5q-23 -41 -66 -66q-53 -31 -131 -30h-205v147z" />
<glyph unicode="&#x499;" d="M96 225l152 56q6 -14 14 -29q31 -53 84 -84q63 -37 164 -37q106 0 176 39q43 25 64 63q20 35 20 78t-20 78q-23 39 -66 64q-68 39 -172 39h-117v147h117q92 0 150 33q39 23 59 55q16 31 16 70t-18 69q-18 33 -55 54q-59 35 -152 34q-86 0 -139 -32q-45 -27 -72 -70 q-10 -18 -16 -41l-156 49q10 35 29 68q45 76 121 121q92 53 233 53q147 0 246 -58q72 -41 108 -104q35 -61 35 -141q0 -68 -29 -119q-33 -57 -98 -94q-18 -10 -39 -19q33 -12 62 -28q72 -41 106 -103q31 -53 31 -127q0 -86 -39 -151q-39 -68 -115 -113q-106 -61 -270 -61 q-154 0 -256 59q-86 49 -135 133q-15 24 -23 49zM307 -291h205q29 0 45 17q12 12 12 31.5t-12 31.5q-16 16 -45 14h-82v197h164v-59q78 -23 115 -86q25 -41 24.5 -98.5t-24.5 -98.5q-23 -41 -66 -66q-53 -31 -131 -30h-205v147z" />
<glyph unicode="&#x49a;" d="M123 0v1505h164v-696q236 258 360 475q82 143 82 221h172q0 -92 -98 -262q-84 -145 -209 -309q244 -522 303 -787h135v-432h-164v285h-114q0 209 -273 797q-88 -104 -194 -215v-582h-164z" />
<glyph unicode="&#x49b;" d="M123 0v1085h164v-477q324 242 418 406q25 43 24 71h172q0 -39 -35 -98q-78 -135 -268 -311q70 -111 127 -211q111 -193 158 -318h149v-432h-164v285h-114q0 106 -146 360q-55 98 -131 211q-86 -72 -190 -151v-420h-164z" />
<glyph unicode="&#x4a2;" d="M123 0v1505h164v-641h450v641h164v-1358h115v-432h-164v285h-115v717h-450v-717h-164z" />
<glyph unicode="&#x4a3;" d="M123 0v1085h164v-442h450v442h164v-938h115v-432h-164v285h-115v496h-450v-496h-164z" />
<glyph unicode="&#x4aa;" d="M106 399v707q0 135 56 233q47 82 131 129q92 53 219 53.5t219 -53.5q82 -47 129 -131q39 -70 51 -149l-159 -29q-6 57 -35 103q-31 53 -80 81q-53 31 -125 31t-125 -31q-49 -29 -80 -79q-37 -66 -37 -158v-707q0 -92 37 -157q31 -51 80 -80q53 -31 125 -31t125 31 q51 29 80 82q27 47 35 102l159 -29q-10 -82 -51 -149q-47 -84 -129 -131q-92 -53 -219 -53t-219 53q-82 47 -131 129q-56 96 -56 233zM307 -291h205q29 0 45 17q12 12 12 31.5t-12 31.5q-16 16 -45 14h-82v197h164v-59q78 -23 115 -86q25 -41 24.5 -98.5t-24.5 -98.5 q-23 -41 -66 -66q-53 -31 -131 -30h-205v147z" />
<glyph unicode="&#x4ab;" d="M106 451v184q0 164 66 278q51 90 137 138q88 51 206 51t206 -51q86 -49 137 -138q39 -66 53 -145l-155 -45q-10 63 -41 115q-33 57 -86 88q-49 29 -115 28q-63 0 -113 -28q-51 -31 -84 -86q-47 -82 -47 -205v-184q0 -123 47 -205q33 -57 84 -86q49 -29 113 -29 q66 0 115 29q53 31 86 88q29 51 41 114l155 -45q-14 -78 -53 -145q-51 -90 -137 -137q-88 -51 -207 -51t-205 51q-86 49 -137 137q-66 115 -66 279zM307 -291h205q29 0 45 17q12 12 12 31.5t-12 31.5q-16 16 -45 14h-82v197h164v-59q78 -23 115 -86q25 -41 24.5 -98.5 t-24.5 -98.5q-23 -41 -66 -66q-53 -31 -131 -30h-205v147z" />
<glyph unicode="&#x4ac;" d="M123 1358v147h778v-147h-307v-1211h115v-432h-164v285h-115v1358h-307z" />
<glyph unicode="&#x4ad;" d="M123 938v147h778v-147h-307v-791h115v-432h-164v285h-115v938h-307z" />
<glyph unicode="&#x4ae;" d="M123 1415v90h164v-90q0 -211 112 -428l113 -213l113 213q113 217 112 428v90h164v-90q0 -244 -133 -495l-174 -334v-586h-164v586l-174 334q-133 251 -133 495z" />
<glyph unicode="&#x4af;" d="M123 995v90h164v-90q0 -211 112 -428l113 -213l113 213q113 217 112 428v90h164v-90q0 -244 -133 -495l-174 -334v-586h-164v586l-174 334q-133 251 -133 495z" />
<glyph unicode="&#x4b0;" d="M123 1415v90h164v-90q0 -211 112 -428l113 -213l113 213q113 217 112 428v90h164v-90q0 -244 -133 -495l-174 -334v-586h-164v586l-174 334q-133 251 -133 495zM244 528v147h536v-147h-536z" />
<glyph unicode="&#x4b1;" d="M123 995v90h164v-90q0 -211 112 -428l113 -213l113 213q113 217 112 428v90h164v-90q0 -244 -133 -495l-174 -334v-586h-164v586l-174 334q-133 251 -133 495zM244 108v147h536v-147h-536z" />
<glyph unicode="&#x4b2;" d="M123 0v76q0 190 113 387q10 18 22 37l160 254l-160 252q-12 18 -22 36q-113 197 -113 388v75h164v-75q0 -170 110 -345l115 -184l115 184q111 174 110 345v75h164v-75q0 -190 -113 -388q-10 -18 -22 -36l-160 -252l160 -254q12 -18 22 -37q92 -160 109 -316h119v-432 h-164v285h-115v76q0 170 -110 344l-115 184l-115 -184q-111 -174 -110 -344v-76h-164z" />
<glyph unicode="&#x4b3;" d="M123 0v10q0 68 82 211q31 55 55 88l156 234l-156 233q-23 33 -55 88q-82 143 -82 211v10h164v-10q0 -53 108 -217l117 -172l117 172q109 162 108 217v10h164v-10q0 -68 -82 -211q-31 -55 -55 -88l-156 -233l156 -234q23 -33 55 -88q23 -39 39 -74h158v-432h-164v285h-115 v10q0 53 -108 217l-117 172l-117 -172q-109 -162 -108 -217v-10h-164z" />
<glyph unicode="&#x4b6;" d="M123 852v653h164v-653q0 -88 35 -147q59 -104 190 -105h225v905h164v-1358h115v-432h-164v285h-115v453h-225q-123 0 -211 51q-78 45 -125 125q-53 92 -53 223z" />
<glyph unicode="&#x4b7;" d="M123 760v325h164v-325q0 -88 35 -148q59 -104 190 -104h225v577h164v-938h115v-432h-164v285h-115v360h-225q-123 0 -211 52q-78 45 -125 125q-53 92 -53 223z" />
<glyph unicode="&#x4b8;" d="M123 852v653h164v-653q0 -88 35 -147q29 -49 73 -76q16 -10 35 -15v213h164v-227h143v905h164v-1505h-164v453h-143v-199h-164v205q-72 12 -129 45q-78 45 -125 125q-53 92 -53 223z" />
<glyph unicode="&#x4b9;" d="M123 760v325h164v-325q0 -88 35 -148q29 -49 73 -75q16 -10 35 -17v162h164v-174h143v577h164v-1085h-164v360h-143v-251h-164v258q-72 12 -129 45q-78 45 -125 125q-53 92 -53 223z" />
<glyph unicode="&#x4ba;" d="M123 0v1505h164v-452h225q123 0 211 -52q78 -45 125 -124q53 -92 53 -224v-653h-164v653q0 88 -35 148q-59 104 -190 104h-225v-905h-164z" />
<glyph unicode="&#x4bb;" d="M123 0v1505h164v-575q4 6 6 12q47 82 119 123q66 37 151.5 37t149.5 -37q72 -41 118 -123q70 -121 70 -307v-635h-164v635q0 129 -47 213q-31 55 -80 82q-43 25 -98 24.5t-98 -24.5q-47 -27 -80 -82q-47 -82 -47 -213v-635h-164z" />
<glyph unicode="&#x4c0;" d="M225 0v147h205v1211h-205v147h574v-147h-205v-1211h205v-147h-574z" />
<glyph unicode="&#x4c1;" d="M57 0l183 754l-183 751h164l164 -678h45v678h164v-678h45l164 678h164l-183 -751l183 -754h-164l-164 680h-45v-680h-164v680h-45l-164 -680h-164zM184 1944h164q0 -61 25 -105q43 -76 139 -76t139 76q25 43 25 105h164q0 -104 -43 -181q-39 -66 -105 -104 q-76 -43 -180 -43t-180 43q-66 39 -105 104q-43 75 -43 181z" />
<glyph unicode="&#x4c2;" d="M57 0l183 543l-183 542h164l158 -469h51v469h164v-469h51l158 469h164l-183 -542l183 -543h-164l-158 469h-51v-469h-164v469h-51l-158 -469h-164zM184 1524h164q0 -61 25 -105q43 -76 139 -76t139 76q25 43 25 105h164q0 -104 -43 -181q-39 -66 -105 -104 q-76 -43 -180 -43t-180 43q-66 39 -105 104q-43 75 -43 181z" />
<glyph unicode="&#x4cf;" d="M154 0v147h290v1211h-262v147h426v-1358h262v-147h-716z" />
<glyph unicode="&#x4d0;" d="M123 0v152q0 410 307 1353h164q307 -944 307 -1353v-152h-164v152q0 104 -18 243h-414q-18 -141 -18 -243v-152h-164zM184 1944h164q0 -61 25 -105q43 -76 139 -76t139 76q25 43 25 105h164q0 -104 -43 -181q-39 -66 -105 -104q-76 -43 -180 -43t-180 43q-66 39 -105 104 q-43 75 -43 181zM328 543h368q-55 315 -184 776q-129 -461 -184 -776z" />
<glyph unicode="&#x4d1;" d="M106 305q0 94 39 160q41 72 123 119q113 66 283 65h186v94q0 63 -26 111q-25 43 -70 70q-55 31 -135 30q-82 0 -135 -32q-45 -25 -72 -70q-18 -33 -23 -70l-157 37q8 57 37 109q43 76 118 121q94 53 232 53q135 0 231 -55q78 -45 119 -117q45 -78 45 -187v-743h-164v152 q-47 -78 -123 -121q-82 -47 -192 -47q-100 0 -170 41q-63 37 -102 102q-44 76 -44 178zM184 1524h164q0 -61 25 -105q43 -76 139 -76t139 76q25 43 25 105h164q0 -104 -43 -181q-39 -66 -105 -104q-76 -43 -180 -43t-180 43q-66 39 -105 104q-43 75 -43 181zM270 305 q0 -100 82 -145q49 -29 121 -29q82 0 141 35q55 31 86 86q37 63 37 154v96h-186q-115 0 -189 -41q-47 -27 -71 -70q-21 -37 -21 -86z" />
<glyph unicode="&#x4d2;" d="M123 0v152q0 410 307 1353h164q307 -944 307 -1353v-152h-164v152q0 104 -18 243h-414q-18 -141 -18 -243v-152h-164zM180 1823q0 41 16 70q14 27 41 40q29 16 70 17.5t70 -17.5q27 -14 41 -40q16 -29 16 -70t-16 -70q-14 -27 -41 -41q-29 -18 -70 -18t-70 18 q-27 14 -41 41q-16 29 -16 70zM328 543h368q-55 315 -184 776q-129 -461 -184 -776zM590 1823q0 41 16 70q14 27 41 40q29 16 70 17.5t70 -17.5q27 -14 41 -40q16 -29 16 -70t-16 -70q-14 -27 -41 -41q-29 -18 -70 -18t-70 18q-27 14 -41 41q-16 29 -16 70z" />
<glyph unicode="&#x4d3;" d="M106 305q0 94 39 160q41 72 123 119q113 66 283 65h186v94q0 63 -26 111q-25 43 -70 70q-55 31 -135 30q-82 0 -135 -32q-45 -25 -72 -70q-18 -33 -23 -70l-157 37q8 57 37 109q43 76 118 121q94 53 232 53q135 0 231 -55q78 -45 119 -117q45 -78 45 -187v-743h-164v152 q-47 -78 -123 -121q-82 -47 -192 -47q-100 0 -170 41q-63 37 -102 102q-44 76 -44 178zM180 1403q0 41 16 70q14 27 41 40q29 16 70 17.5t70 -17.5q27 -14 41 -40q16 -29 16 -70t-16 -70q-14 -27 -41 -41q-29 -18 -70 -18t-70 18q-27 14 -41 41q-16 29 -16 70zM270 305 q0 -100 82 -145q49 -29 121 -29q82 0 141 35q55 31 86 86q37 63 37 154v96h-186q-115 0 -189 -41q-47 -27 -71 -70q-21 -37 -21 -86zM590 1403q0 41 16 70q14 27 41 40q29 16 70 17.5t70 -17.5q27 -14 41 -40q16 -29 16 -70t-16 -70q-14 -27 -41 -41q-29 -18 -70 -18t-70 18 q-27 14 -41 41q-16 29 -16 70z" />
<glyph unicode="&#x4d4;" d="M123 0v152q0 412 278 1353h500v-147h-262v-471h225v-148h-225v-592h262v-147h-426v395h-172q-16 -137 -16 -243v-152h-164zM324 543h151v725q-104 -426 -151 -725z" />
<glyph unicode="&#x4d5;" d="M90 291q0 115 47 194q43 74 115 115q76 43 178 49v166q0 82 -37 119q-20 20 -48 20t-48 -20q-37 -37 -37 -113v-4l-164 2v8q0 90 41 160q31 55 82 84q53 31 126 31t124 -31q23 -14 43 -33q18 18 43 33q53 31 127 31t127 -31t84 -86q41 -70 41 -170v-346h-340v-199 q0 -80 37 -116q23 -23 56.5 -23t55.5 23q37 37 37 110v4l164 -2v-8q0 -88 -39 -156q-33 -55 -86 -86q-55 -33 -132 -32.5t-132 32.5q-23 14 -43 31q-20 -18 -43 -33q-53 -31 -127 -30q-70 0 -121 30q-53 31 -86 88q-45 76 -45 189zM254 289q0 -98 41 -137q20 -20 47 -21 q29 0 51 21q37 37 37 118v232q-100 -8 -147 -90q-29 -49 -29 -123zM594 616h176v199q0 82 -37 119q-20 20 -51 20t-51 -20q-37 -37 -37 -119v-199z" />
<glyph unicode="&#x4d6;" d="M184 0v1505h717v-147h-553v-471h436v-148h-436v-592h553v-147h-717zM184 1944h164q0 -61 25 -105q43 -76 139 -76t139 76q25 43 25 105h164q0 -104 -43 -181q-39 -66 -105 -104q-76 -43 -180 -43t-180 43q-66 39 -105 104q-43 75 -43 181z" />
<glyph unicode="&#x4d7;" d="M106 451v184q0 166 66 278q51 90 137 139.5t203 49.5t203 -49q84 -49 137 -140q66 -113 66 -278v-166h-648v-18q0 -119 47 -199q35 -59 86.5 -90t123 -31t122.5 31q55 31 90 90q20 33 31 74l150 -60q-14 -47 -39 -88q-53 -90 -140 -141q-90 -53 -215 -53t-215 53 q-86 51 -139 139q-66 113 -66 275zM184 1524h164q0 -61 25 -105q43 -76 139 -76t139 76q25 43 25 105h164q0 -104 -43 -181q-39 -66 -105 -104q-76 -43 -180 -43t-180 43q-66 39 -105 104q-43 75 -43 181zM270 616h484v19q0 125 -47 205q-33 57 -84 88q-47 27 -110.5 26.5 t-111.5 -26.5q-51 -29 -84 -88q-47 -82 -47 -205v-19z" />
<glyph unicode="&#x4d8;" d="M104 1239q14 47 39 88q53 90 140 141q90 53 215 53.5t215 -53.5q86 -51 139 -139q66 -113 66 -274v-604q0 -166 -66 -279q-51 -90 -137 -139t-203 -49t-203 49q-84 49 -137 139q-66 113 -66 279v376h648v228q0 119 -47 198q-35 59 -86.5 90t-123 31t-122.5 -31 q-55 -31 -90 -90q-20 -33 -31 -73zM270 451q0 -125 47 -205q33 -57 84 -88q47 -27 110.5 -27t111.5 27q51 29 84 88q47 82 47 205v229h-484v-229z" />
<glyph unicode="&#x4d9;" d="M104 819q14 47 39 88q53 90 140 142q90 53 215 53t215 -53q86 -51 139 -140q66 -113 66 -274v-184q0 -166 -66 -279q-51 -90 -137 -139t-203 -49t-203 49q-84 49 -137 139q-66 113 -66 279v165h648v19q0 119 -47 199q-35 59 -86.5 89.5t-123 30.5t-122.5 -30 q-55 -31 -90 -90q-20 -33 -31 -74zM270 451q0 -125 47 -205q33 -57 84 -88q47 -27 110.5 -27t111.5 27q51 29 84 88q47 82 47 205v18h-484v-18z" />
<glyph unicode="&#x4da;" d="M104 1239q14 47 39 88q53 90 140 141q90 53 215 53.5t215 -53.5q86 -51 139 -139q66 -113 66 -274v-604q0 -166 -66 -279q-51 -90 -137 -139t-203 -49t-203 49q-84 49 -137 139q-66 113 -66 279v376h648v228q0 119 -47 198q-35 59 -86.5 90t-123 31t-122.5 -31 q-55 -31 -90 -90q-20 -33 -31 -73zM180 1823q0 41 16 70q14 27 41 40q29 16 70 17.5t70 -17.5q27 -14 41 -40q16 -29 16 -70t-16 -70q-14 -27 -41 -41q-29 -18 -70 -18t-70 18q-27 14 -41 41q-16 29 -16 70zM270 451q0 -125 47 -205q33 -57 84 -88q47 -27 110.5 -27 t111.5 27q51 29 84 88q47 82 47 205v229h-484v-229zM590 1823q0 41 16 70q14 27 41 40q29 16 70 17.5t70 -17.5q27 -14 41 -40q16 -29 16 -70t-16 -70q-14 -27 -41 -41q-29 -18 -70 -18t-70 18q-27 14 -41 41q-16 29 -16 70z" />
<glyph unicode="&#x4db;" d="M104 819q14 47 39 88q53 90 140 142q90 53 215 53t215 -53q86 -51 139 -140q66 -113 66 -274v-184q0 -166 -66 -279q-51 -90 -137 -139t-203 -49t-203 49q-84 49 -137 139q-66 113 -66 279v165h648v19q0 119 -47 199q-35 59 -86.5 89.5t-123 30.5t-122.5 -30 q-55 -31 -90 -90q-20 -33 -31 -74zM180 1403q0 41 16 70q14 27 41 40q29 16 70 17.5t70 -17.5q27 -14 41 -40q16 -29 16 -70t-16 -70q-14 -27 -41 -41q-29 -18 -70 -18t-70 18q-27 14 -41 41q-16 29 -16 70zM270 451q0 -125 47 -205q33 -57 84 -88q47 -27 110.5 -27 t111.5 27q51 29 84 88q47 82 47 205v18h-484v-18zM590 1403q0 41 16 70q14 27 41 40q29 16 70 17.5t70 -17.5q27 -14 41 -40q16 -29 16 -70t-16 -70q-14 -27 -41 -41q-29 -18 -70 -18t-70 18q-27 14 -41 41q-16 29 -16 70z" />
<glyph unicode="&#x4dc;" d="M57 0l183 754l-183 751h164l164 -678h45v678h164v-678h45l164 678h164l-183 -751l183 -754h-164l-164 680h-45v-680h-164v680h-45l-164 -680h-164zM180 1823q0 41 16 70q14 27 41 40q29 16 70 17.5t70 -17.5q27 -14 41 -40q16 -29 16 -70t-16 -70q-14 -27 -41 -41 q-29 -18 -70 -18t-70 18q-27 14 -41 41q-16 29 -16 70zM590 1823q0 41 16 70q14 27 41 40q29 16 70 17.5t70 -17.5q27 -14 41 -40q16 -29 16 -70t-16 -70q-14 -27 -41 -41q-29 -18 -70 -18t-70 18q-27 14 -41 41q-16 29 -16 70z" />
<glyph unicode="&#x4dd;" d="M57 0l183 543l-183 542h164l158 -469h51v469h164v-469h51l158 469h164l-183 -542l183 -543h-164l-158 469h-51v-469h-164v469h-51l-158 -469h-164zM180 1403q0 41 16 70q14 27 41 40q29 16 70 17.5t70 -17.5q27 -14 41 -40q16 -29 16 -70t-16 -70q-14 -27 -41 -41 q-29 -18 -70 -18t-70 18q-27 14 -41 41q-16 29 -16 70zM590 1403q0 41 16 70q14 27 41 40q29 16 70 17.5t70 -17.5q27 -14 41 -40q16 -29 16 -70t-16 -70q-14 -27 -41 -41q-29 -18 -70 -18t-70 18q-27 14 -41 41q-16 29 -16 70z" />
<glyph unicode="&#x4de;" d="M96 317l160 35q8 -55 35 -100q33 -55 86 -88q57 -33 135 -33q76 0 131 33q53 31 88 86q39 70 39 172q0 98 -41 168q-70 119 -217 119h-117v147h117q129 0 188 105q37 63 37 153q0 92 -37 156q-29 49 -75 78q-47 27 -111.5 26.5t-114.5 -28.5q-47 -27 -75.5 -76 t-32.5 -109l-162 27q10 86 51 158q47 80 125 127q86 49 207 49t209 -49q80 -45 125 -127q55 -94 55 -230q0 -115 -47 -196q-51 -90 -147 -136q25 -10 45 -22q84 -49 131 -129q51 -88 51 -215q0 -141 -57 -242q-51 -88 -138 -137q-94 -55 -227 -55t-229 55q-86 49 -136 137 q-37 65 -51 141zM180 1823q0 41 16 70q14 27 41 40q29 16 70 17.5t70 -17.5q27 -14 41 -40q16 -29 16 -70t-16 -70q-14 -27 -41 -41q-29 -18 -70 -18t-70 18q-27 14 -41 41q-16 29 -16 70zM590 1823q0 41 16 70q14 27 41 40q29 16 70 17.5t70 -17.5q27 -14 41 -40 q16 -29 16 -70t-16 -70q-14 -27 -41 -41q-29 -18 -70 -18t-70 18q-27 14 -41 41q-16 29 -16 70z" />
<glyph unicode="&#x4df;" d="M96 225l152 56q6 -14 14 -29q31 -53 84 -84q63 -37 164 -37q106 0 176 39q43 25 64 63q20 35 20 78t-20 78q-23 39 -66 64q-68 39 -172 39h-117v147h117q92 0 150 33q39 23 59 55q16 31 16 70t-18 69q-18 33 -55 54q-59 35 -152 34q-86 0 -139 -32q-45 -27 -72 -70 q-10 -18 -16 -41l-156 49q10 35 29 68q45 76 121 121q92 53 233 53q147 0 246 -58q72 -41 108 -104q35 -61 35 -141q0 -68 -29 -119q-33 -57 -98 -94q-18 -10 -39 -19q33 -12 62 -28q72 -41 106 -103q31 -53 31 -127q0 -86 -39 -151q-39 -68 -115 -113q-106 -61 -270 -61 q-154 0 -256 59q-86 49 -135 133q-15 24 -23 49zM180 1403q0 41 16 70q14 27 41 40q29 16 70 17.5t70 -17.5q27 -14 41 -40q16 -29 16 -70t-16 -70q-14 -27 -41 -41q-29 -18 -70 -18t-70 18q-27 14 -41 41q-16 29 -16 70zM590 1403q0 41 16 70q14 27 41 40q29 16 70 17.5 t70 -17.5q27 -14 41 -40q16 -29 16 -70t-16 -70q-14 -27 -41 -41q-29 -18 -70 -18t-70 18q-27 14 -41 41q-16 29 -16 70z" />
<glyph unicode="&#x4e0;" d="M113 317l155 48q10 -57 37 -105q33 -55 84 -84q49 -29 111 -29q63 0 110 27q49 29 82 84q45 78 45 195.5t-45 195.5q-31 53 -78 80q-45 27 -102 27h-233v147l368 455h-524v147h721v-147l-369 -455h37q221 0 326 -180q63 -111 63 -268q0 -160 -63 -269q-51 -88 -133 -137 q-86 -49 -204 -49t-204 49q-84 47 -135 135q-35 61 -49 133z" />
<glyph unicode="&#x4e1;" d="M113 -103l155 48q10 -57 37 -105q33 -55 84 -84q49 -29 111 -29q63 0 110 27q49 29 82 84q45 78 45 195.5t-45 195.5q-31 53 -78 80q-45 27 -102 27h-233v147l368 455h-524v147h721v-147l-369 -455h37q221 0 326 -180q63 -111 63 -268q0 -160 -63 -269q-51 -88 -133 -137 q-86 -49 -204 -49t-204 49q-84 47 -135 135q-35 61 -49 133z" />
<glyph unicode="&#x4e2;" d="M123 0v1505h164v-602q0 -74 -6 -629l393 1231h227v-1505h-164v602q0 150 4 481q2 92 2 148l-393 -1231h-227zM205 1749v148h614v-148h-614z" />
<glyph unicode="&#x4e3;" d="M123 0v1085h164v-434q0 -53 -6 -454l393 888h227v-1085h-164v434q0 53 6 455l-393 -889h-227zM205 1329v148h614v-148h-614z" />
<glyph unicode="&#x4e4;" d="M123 0v1505h164v-602q0 -74 -6 -629l393 1231h227v-1505h-164v602q0 150 4 481q2 92 2 148l-393 -1231h-227zM180 1823q0 41 16 70q14 27 41 40q29 16 70 17.5t70 -17.5q27 -14 41 -40q16 -29 16 -70t-16 -70q-14 -27 -41 -41q-29 -18 -70 -18t-70 18q-27 14 -41 41 q-16 29 -16 70zM590 1823q0 41 16 70q14 27 41 40q29 16 70 17.5t70 -17.5q27 -14 41 -40q16 -29 16 -70t-16 -70q-14 -27 -41 -41q-29 -18 -70 -18t-70 18q-27 14 -41 41q-16 29 -16 70z" />
<glyph unicode="&#x4e5;" d="M123 0v1085h164v-434q0 -53 -6 -454l393 888h227v-1085h-164v434q0 53 6 455l-393 -889h-227zM180 1403q0 41 16 70q14 27 41 40q29 16 70 17.5t70 -17.5q27 -14 41 -40q16 -29 16 -70t-16 -70q-14 -27 -41 -41q-29 -18 -70 -18t-70 18q-27 14 -41 41q-16 29 -16 70z M590 1403q0 41 16 70q14 27 41 40q29 16 70 17.5t70 -17.5q27 -14 41 -40q16 -29 16 -70t-16 -70q-14 -27 -41 -41q-29 -18 -70 -18t-70 18q-27 14 -41 41q-16 29 -16 70z" />
<glyph unicode="&#x4e6;" d="M106 399v707q0 135 56 231q47 82 131 131q92 53 219 53.5t219 -53.5q82 -47 131 -131q55 -96 56 -231v-707q0 -135 -56 -231q-47 -82 -131 -131q-92 -53 -219 -53t-219 53q-82 47 -131 131q-56 96 -56 231zM180 1823q0 41 16 70q14 27 41 40q29 16 70 17.5t70 -17.5 q27 -14 41 -40q16 -29 16 -70t-16 -70q-14 -27 -41 -41q-29 -18 -70 -18t-70 18q-27 14 -41 41q-16 29 -16 70zM270 399q0 -92 37 -157q31 -51 80 -80q53 -31 125 -31t125 31q51 29 80 80q37 63 37 157v707q0 92 -37 158q-31 51 -80 79q-53 31 -125 31t-125 -31 q-51 -29 -80 -79q-37 -63 -37 -158v-707zM590 1823q0 41 16 70q14 27 41 40q29 16 70 17.5t70 -17.5q27 -14 41 -40q16 -29 16 -70t-16 -70q-14 -27 -41 -41q-29 -18 -70 -18t-70 18q-27 14 -41 41q-16 29 -16 70z" />
<glyph unicode="&#x4e7;" d="M106 451v184q0 166 66 278q51 90 137 139.5t203 49.5t203 -49q84 -49 137 -140q66 -113 66 -278v-184q0 -166 -66 -279q-51 -90 -137 -139t-203 -49t-203 49q-84 49 -137 139q-66 113 -66 279zM180 1403q0 41 16 70q14 27 41 40q29 16 70 17.5t70 -17.5q27 -14 41 -40 q16 -29 16 -70t-16 -70q-14 -27 -41 -41q-29 -18 -70 -18t-70 18q-27 14 -41 41q-16 29 -16 70zM270 451q0 -125 47 -205q33 -57 84 -88q47 -27 110.5 -27t111.5 27q51 29 84 88q47 82 47 205v184q0 125 -47 205q-33 57 -84 88q-47 27 -110.5 26.5t-111.5 -26.5 q-51 -29 -84 -88q-47 -82 -47 -205v-184zM590 1403q0 41 16 70q14 27 41 40q29 16 70 17.5t70 -17.5q27 -14 41 -40q16 -29 16 -70t-16 -70q-14 -27 -41 -41q-29 -18 -70 -18t-70 18q-27 14 -41 41q-16 29 -16 70z" />
<glyph unicode="&#x4e8;" d="M106 399v707q0 135 56 231q47 82 131 131q92 53 219 53.5t219 -53.5q82 -47 131 -131q55 -96 56 -231v-707q0 -135 -56 -231q-47 -82 -131 -131q-92 -53 -219 -53t-219 53q-82 47 -131 131q-56 96 -56 231zM270 399q0 -92 37 -157q31 -51 80 -80q53 -31 125 -31t125 31 q51 29 80 80q37 63 37 157v281h-484v-281zM270 827h484v279q0 92 -37 158q-31 51 -80 79q-53 31 -125 31t-125 -31q-51 -29 -80 -79q-37 -63 -37 -158v-279z" />
<glyph unicode="&#x4e9;" d="M106 451v184q0 166 66 278q51 90 137 139.5t203 49.5t203 -49q84 -49 137 -140q66 -113 66 -278v-184q0 -166 -66 -279q-51 -90 -137 -139t-203 -49t-203 49q-84 49 -137 139q-66 113 -66 279zM270 451q0 -125 47 -205q33 -57 84 -88q47 -27 110.5 -27t111.5 27 q51 29 84 88q47 82 47 205v18h-484v-18zM270 616h484v19q0 125 -47 205q-33 57 -84 88q-47 27 -110.5 26.5t-111.5 -26.5q-51 -29 -84 -88q-47 -82 -47 -205v-19z" />
<glyph unicode="&#x4ea;" d="M106 399v707q0 135 56 231q47 82 131 131q92 53 219 53.5t219 -53.5q82 -47 131 -131q55 -96 56 -231v-707q0 -135 -56 -231q-47 -82 -131 -131q-92 -53 -219 -53t-219 53q-82 47 -131 131q-56 96 -56 231zM180 1823q0 41 16 70q14 27 41 40q29 16 70 17.5t70 -17.5 q27 -14 41 -40q16 -29 16 -70t-16 -70q-14 -27 -41 -41q-29 -18 -70 -18t-70 18q-27 14 -41 41q-16 29 -16 70zM270 399q0 -92 37 -157q31 -51 80 -80q53 -31 125 -31t125 31q51 29 80 80q37 63 37 157v281h-484v-281zM270 827h484v279q0 92 -37 158q-31 51 -80 79 q-53 31 -125 31t-125 -31q-51 -29 -80 -79q-37 -63 -37 -158v-279zM590 1823q0 41 16 70q14 27 41 40q29 16 70 17.5t70 -17.5q27 -14 41 -40q16 -29 16 -70t-16 -70q-14 -27 -41 -41q-29 -18 -70 -18t-70 18q-27 14 -41 41q-16 29 -16 70z" />
<glyph unicode="&#x4eb;" d="M106 451v184q0 166 66 278q51 90 137 139.5t203 49.5t203 -49q84 -49 137 -140q66 -113 66 -278v-184q0 -166 -66 -279q-51 -90 -137 -139t-203 -49t-203 49q-84 49 -137 139q-66 113 -66 279zM180 1403q0 41 16 70q14 27 41 40q29 16 70 17.5t70 -17.5q27 -14 41 -40 q16 -29 16 -70t-16 -70q-14 -27 -41 -41q-29 -18 -70 -18t-70 18q-27 14 -41 41q-16 29 -16 70zM270 451q0 -125 47 -205q33 -57 84 -88q47 -27 110.5 -27t111.5 27q51 29 84 88q47 82 47 205v18h-484v-18zM270 616h484v19q0 125 -47 205q-33 57 -84 88q-47 27 -110.5 26.5 t-111.5 -26.5q-51 -29 -84 -88q-47 -82 -47 -205v-19zM590 1403q0 41 16 70q14 27 41 40q29 16 70 17.5t70 -17.5q27 -14 41 -40q16 -29 16 -70t-16 -70q-14 -27 -41 -41q-29 -18 -70 -18t-70 18q-27 14 -41 41q-16 29 -16 70z" />
<glyph unicode="&#x4ec;" d="M113 317l159 29q6 -57 35 -102q31 -53 80 -82q53 -31 125 -31t125 31q49 29 80 80q37 66 37 157v281h-437v147h437v279q0 92 -37 158q-31 51 -80 79q-53 31 -125 31t-125 -31q-51 -29 -80 -81q-27 -47 -35 -103l-159 29q10 82 51 149q47 84 129 131q92 53 219 53.5 t219 -53.5q82 -47 131 -129q55 -96 56 -233v-707q0 -135 -56 -233q-47 -82 -131 -129q-92 -53 -219 -53t-219 53q-82 47 -129 131q-39 69 -51 149zM180 1823q0 41 16 70q14 27 41 40q29 16 70 17.5t70 -17.5q27 -14 41 -40q16 -29 16 -70t-16 -70q-14 -27 -41 -41 q-29 -18 -70 -18t-70 18q-27 14 -41 41q-16 29 -16 70zM590 1823q0 41 16 70q14 27 41 40q29 16 70 17.5t70 -17.5q27 -14 41 -40q16 -29 16 -70t-16 -70q-14 -27 -41 -41q-29 -18 -70 -18t-70 18q-27 14 -41 41q-16 29 -16 70z" />
<glyph unicode="&#x4ed;" d="M113 317l155 45q10 -63 41 -114q33 -57 86 -88q49 -29 115 -29q63 0 113 29q51 31 84 86q47 82 47 205v18h-437v147h437v19q0 123 -47 205q-33 57 -84 86q-49 29 -113 28q-66 0 -115 -28q-53 -31 -86 -88q-29 -51 -41 -115l-155 45q14 78 53 145q51 90 137 138 q88 51 207 51t205 -51q86 -49 137 -138q66 -115 66 -278v-184q0 -164 -66 -279q-51 -90 -137 -137q-88 -51 -206 -51t-206 51q-86 49 -137 137q-39 65 -53 145zM180 1403q0 41 16 70q14 27 41 40q29 16 70 17.5t70 -17.5q27 -14 41 -40q16 -29 16 -70t-16 -70 q-14 -27 -41 -41q-29 -18 -70 -18t-70 18q-27 14 -41 41q-16 29 -16 70zM590 1403q0 41 16 70q14 27 41 40q29 16 70 17.5t70 -17.5q27 -14 41 -40q16 -29 16 -70t-16 -70q-14 -27 -41 -41q-29 -18 -70 -18t-70 18q-27 14 -41 41q-16 29 -16 70z" />
<glyph unicode="&#x4ee;" d="M123 1430v75h164v-75q0 -106 61 -287l162 -481l166 481q61 176 61 287v75h164v-75q0 -133 -70 -336l-323 -934q-16 -45 -16 -146v-14h-164v14q0 121 24 195l78 221l-237 664q-70 197 -70 336zM205 1749v148h614v-148h-614z" />
<glyph unicode="&#x4ef;" d="M123 1010v75h164v-75q0 -106 61 -287l162 -481l166 481q61 176 61 287v75h164v-75q0 -133 -70 -336l-323 -934q-16 -45 -16 -146v-14h-164v14q0 121 24 195l78 221l-237 664q-70 197 -70 336zM205 1329v148h614v-148h-614z" />
<glyph unicode="&#x4f0;" d="M123 1430v75h164v-75q0 -106 61 -287l162 -481l166 481q61 176 61 287v75h164v-75q0 -133 -70 -336l-323 -934q-16 -45 -16 -146v-14h-164v14q0 121 24 195l78 221l-237 664q-70 197 -70 336zM180 1823q0 41 16 70q14 27 41 40q29 16 70 17.5t70 -17.5q27 -14 41 -40 q16 -29 16 -70t-16 -70q-14 -27 -41 -41q-29 -18 -70 -18t-70 18q-27 14 -41 41q-16 29 -16 70zM590 1823q0 41 16 70q14 27 41 40q29 16 70 17.5t70 -17.5q27 -14 41 -40q16 -29 16 -70t-16 -70q-14 -27 -41 -41q-29 -18 -70 -18t-70 18q-27 14 -41 41q-16 29 -16 70z" />
<glyph unicode="&#x4f1;" d="M123 1010v75h164v-75q0 -106 61 -287l162 -481l166 481q61 176 61 287v75h164v-75q0 -133 -70 -336l-323 -934q-16 -45 -16 -146v-14h-164v14q0 121 24 195l78 221l-237 664q-70 197 -70 336zM180 1403q0 41 16 70q14 27 41 40q29 16 70 17.5t70 -17.5q27 -14 41 -40 q16 -29 16 -70t-16 -70q-14 -27 -41 -41q-29 -18 -70 -18t-70 18q-27 14 -41 41q-16 29 -16 70zM590 1403q0 41 16 70q14 27 41 40q29 16 70 17.5t70 -17.5q27 -14 41 -40q16 -29 16 -70t-16 -70q-14 -27 -41 -41q-29 -18 -70 -18t-70 18q-27 14 -41 41q-16 29 -16 70z" />
<glyph unicode="&#x4f2;" d="M123 1430v75h164v-75q0 -106 61 -287l162 -481l166 481q61 176 61 287v75h164v-75q0 -133 -70 -336l-323 -934q-16 -45 -16 -146v-14h-164v14q0 121 24 195l78 221l-237 664q-70 197 -70 336zM201 1661l274 336l135 -107l-297 -317zM549 1661l274 336l135 -107l-297 -317 z" />
<glyph unicode="&#x4f3;" d="M123 1010v75h164v-75q0 -106 61 -287l162 -481l166 481q61 176 61 287v75h164v-75q0 -133 -70 -336l-323 -934q-16 -45 -16 -146v-14h-164v14q0 121 24 195l78 221l-237 664q-70 197 -70 336zM201 1241l274 336l135 -107l-297 -317zM549 1241l274 336l135 -107l-297 -317 z" />
<glyph unicode="&#x4f4;" d="M123 852v653h164v-653q0 -88 35 -147q59 -104 190 -105h225v905h164v-1505h-164v453h-225q-123 0 -211 51q-78 45 -125 125q-53 92 -53 223zM180 1823q0 41 16 70q14 27 41 40q29 16 70 17.5t70 -17.5q27 -14 41 -40q16 -29 16 -70t-16 -70q-14 -27 -41 -41 q-29 -18 -70 -18t-70 18q-27 14 -41 41q-16 29 -16 70zM590 1823q0 41 16 70q14 27 41 40q29 16 70 17.5t70 -17.5q27 -14 41 -40q16 -29 16 -70t-16 -70q-14 -27 -41 -41q-29 -18 -70 -18t-70 18q-27 14 -41 41q-16 29 -16 70z" />
<glyph unicode="&#x4f5;" d="M123 760v325h164v-325q0 -88 35 -148q59 -104 190 -104h225v577h164v-1085h-164v360h-225q-123 0 -211 52q-78 45 -125 125q-53 92 -53 223zM180 1403q0 41 16 70q14 27 41 40q29 16 70 17.5t70 -17.5q27 -14 41 -40q16 -29 16 -70t-16 -70q-14 -27 -41 -41 q-29 -18 -70 -18t-70 18q-27 14 -41 41q-16 29 -16 70zM590 1403q0 41 16 70q14 27 41 40q29 16 70 17.5t70 -17.5q27 -14 41 -40q16 -29 16 -70t-16 -70q-14 -27 -41 -41q-29 -18 -70 -18t-70 18q-27 14 -41 41q-16 29 -16 70z" />
<glyph unicode="&#x4f8;" d="M106 0v1505h164v-604q123 0 213 -51q86 -49 138 -137q61 -106 61 -261t-61 -264q-51 -88 -138 -137q-90 -51 -213 -51h-164zM180 1823q0 41 16 70q14 27 41 40q29 16 70 17.5t70 -17.5q27 -14 41 -40q16 -29 16 -70t-16 -70q-14 -27 -41 -41q-29 -18 -70 -18t-70 18 q-27 14 -41 41q-16 29 -16 70zM270 147q68 0 119 29q51 31 86 88q43 76 43 187.5t-43 187.5q-33 57 -86 86q-51 29 -119 29v-607zM590 1823q0 41 16 70q14 27 41 40q29 16 70 17.5t70 -17.5q27 -14 41 -40q16 -29 16 -70t-16 -70q-14 -27 -41 -41q-29 -18 -70 -18t-70 18 q-27 14 -41 41q-16 29 -16 70zM754 0v1505h164v-1505h-164z" />
<glyph unicode="&#x4f9;" d="M106 0v1085h164v-413h82q104 0 178 -43q68 -39 107 -107q45 -78 45 -186.5t-45 -185.5q-39 -68 -107 -107q-74 -43 -178 -43h-246zM180 1403q0 41 16 70q14 27 41 40q29 16 70 17.5t70 -17.5q27 -14 41 -40q16 -29 16 -70t-16 -70q-14 -27 -41 -41q-29 -18 -70 -18 t-70 18q-27 14 -41 41q-16 29 -16 70zM270 147h82q94 0 140 76q27 45 26.5 111.5t-26.5 111.5q-45 78 -140 78h-82v-377zM590 1403q0 41 16 70q14 27 41 40q29 16 70 17.5t70 -17.5q27 -14 41 -40q16 -29 16 -70t-16 -70q-14 -27 -41 -41q-29 -18 -70 -18t-70 18 q-27 14 -41 41q-16 29 -16 70zM754 0v1085h164v-1085h-164z" />
<glyph unicode="&#x2000;" horiz-adv-x="998" />
<glyph unicode="&#x2001;" horiz-adv-x="1997" />
<glyph unicode="&#x2002;" horiz-adv-x="998" />
<glyph unicode="&#x2003;" horiz-adv-x="1997" />
<glyph unicode="&#x2004;" horiz-adv-x="665" />
<glyph unicode="&#x2005;" horiz-adv-x="499" />
<glyph unicode="&#x2006;" horiz-adv-x="332" />
<glyph unicode="&#x2007;" horiz-adv-x="332" />
<glyph unicode="&#x2008;" horiz-adv-x="249" />
<glyph unicode="&#x2009;" horiz-adv-x="399" />
<glyph unicode="&#x200a;" horiz-adv-x="110" />
<glyph unicode="&#x2010;" d="M123 604v148h778v-148h-778z" />
<glyph unicode="&#x2011;" d="M123 604v148h778v-148h-778z" />
<glyph unicode="&#x2012;" d="M123 604v148h778v-148h-778z" />
<glyph unicode="&#x2013;" d="M123 604v148h778v-148h-778z" />
<glyph unicode="&#x2014;" d="M0 604v148h1024v-148h-1024z" />
<glyph unicode="&#x2018;" d="M354 1065q0 223 129 446q33 55 72 111l127 -84q-33 -47 -61 -94q-63 -111 -91 -223q82 -6 119 -70q20 -37 20.5 -87t-20.5 -87q-18 -33 -51 -49q-37 -20 -87 -21.5t-85 21.5q-33 18 -51 49q-21 37 -21 88z" />
<glyph unicode="&#x2019;" d="M342 964q33 47 61 94q63 111 91 222q-82 6 -119 71q-20 37 -20.5 87.5t20.5 86.5q18 33 51 50q37 20 87 21t85 -21q33 -18 51 -50q20 -37 21 -88q0 -223 -129 -446q-33 -55 -72 -111z" />
<glyph unicode="&#x201a;" d="M342 -332q33 47 61 94q63 111 91 222q-82 6 -119 71q-20 37 -20.5 87.5t20.5 86.5q18 33 51 50q37 20 87 21t85 -21q33 -18 51 -50q20 -37 21 -88q0 -223 -129 -446q-33 -55 -72 -111z" />
<glyph unicode="&#x201c;" d="M125 1065q0 223 129 446q33 55 72 111l127 -84q-33 -47 -61 -94q-63 -111 -91 -223q82 -6 119 -70q20 -37 20.5 -87t-20.5 -87q-18 -33 -51 -49q-37 -20 -87 -21.5t-85 21.5q-33 18 -51 49q-21 37 -21 88zM583 1065q0 223 129 446q33 55 72 111l127 -84q-33 -47 -61 -94 q-63 -111 -91 -223q82 -6 119 -70q20 -37 20.5 -87t-20.5 -87q-18 -33 -51 -49q-37 -20 -87 -21.5t-85 21.5q-33 18 -51 49q-21 37 -21 88z" />
<glyph unicode="&#x201d;" d="M113 964q33 47 61 94q63 111 91 222q-82 6 -119 71q-20 37 -20.5 87.5t20.5 86.5q18 33 51 50q37 20 87 21t85 -21q33 -18 51 -50q20 -37 21 -88q0 -223 -129 -446q-33 -55 -72 -111zM571 964q33 47 61 94q63 111 91 222q-82 6 -119 71q-20 37 -20.5 87.5t20.5 86.5 q18 33 51 50q37 20 87 21t85 -21q33 -18 51 -50q20 -37 21 -88q0 -223 -129 -446q-33 -55 -72 -111z" />
<glyph unicode="&#x201e;" d="M113 -332q33 47 61 94q63 111 91 222q-82 6 -119 71q-20 37 -20.5 87.5t20.5 86.5q18 33 51 50q37 20 87 21t85 -21q33 -18 51 -50q20 -37 21 -88q0 -223 -129 -446q-33 -55 -72 -111zM571 -332q33 47 61 94q63 111 91 222q-82 6 -119 71q-20 37 -20.5 87.5t20.5 86.5 q18 33 51 50q37 20 87 21t85 -21q33 -18 51 -50q20 -37 21 -88q0 -223 -129 -446q-33 -55 -72 -111z" />
<glyph unicode="&#x2022;" d="M352 678.5q0 51.5 21 87.5q18 33 51 52q37 20 88 20t88 -20q33 -18 51 -52q20 -37 20.5 -88t-20.5 -88q-18 -33 -51 -51q-37 -20 -88 -20t-88 20q-33 18 -51 51q-21 37 -21 88.5z" />
<glyph unicode="&#x2026;" d="M72 83q0 46 26.5 72.5t71.5 26.5t71.5 -26.5t26.5 -72.5t-26.5 -72.5t-71.5 -26.5t-71.5 26.5t-26.5 72.5zM414 83q0 46 26.5 72.5t71.5 26.5t71.5 -26.5t26.5 -72.5t-26.5 -72.5t-71.5 -26.5t-71.5 26.5t-26.5 72.5zM756 83q0 46 26.5 72.5t71.5 26.5t71.5 -26.5 t26.5 -72.5t-26.5 -72.5t-71.5 -26.5t-71.5 26.5t-26.5 72.5z" />
<glyph unicode="&#x202f;" horiz-adv-x="399" />
<glyph unicode="&#x2039;" d="M258 604v148q147 90 258 278q55 96 96 201l150 -55q-31 -68 -68 -134q-135 -236 -311 -364q176 -127 311 -363q37 -66 68 -133l-150 -57q-39 104 -96 203q-111 188 -258 276z" />
<glyph unicode="&#x203a;" d="M262 182q31 68 68 133q135 236 311 363q-176 127 -311 364q-37 66 -68 134l150 55q39 -104 96 -201q111 -188 258 -278v-148q-147 -90 -258 -276q-55 -96 -96 -203z" />
<glyph unicode="&#x205f;" horiz-adv-x="499" />
<glyph unicode="&#x20ac;" d="M37 528v148h69v153h-69v148h69v129q0 135 56 233q47 82 131 129q92 53 219 53.5t219 -53.5q82 -47 129 -131q39 -70 51 -149l-159 -29q-6 57 -35 103q-31 53 -80 81q-53 31 -125 31t-125 -31q-49 -29 -80 -79q-37 -66 -37 -158v-129h398v-148h-398v-153h398v-148h-398 v-129q0 -92 37 -157q31 -51 80 -80q53 -31 125 -31t125 31q51 29 80 82q27 47 35 102l159 -29q-10 -82 -51 -149q-47 -84 -129 -131q-92 -53 -219 -53t-219 53q-82 47 -131 129q-55 96 -56 233v129h-69z" />
<glyph unicode="&#x2122;" d="M14 1513v119h617l127 -438l127 438h125v-844h-131v170q0 158 22 336q8 74 14 146l-114 -398h-86l-115 398q6 -70 14 -146q23 -178 23 -336v-170h-131v725h-174v-725h-131v725h-187z" />
<glyph unicode="&#x25fc;" horiz-adv-x="1085" d="M0 0v1085h1085v-1085h-1085z" />
</font>
</defs>
</svg>
