<?xml version="1.0" standalone="no"?>
<!DOCTYPE svg PUBLIC "-//W3C//DTD SVG 1.1//EN" "http://www.w3.org/Graphics/SVG/1.1/DTD/svg11.dtd" >
<svg xmlns="http://www.w3.org/2000/svg">
<metadata></metadata>
<defs>
<font id="iosevkalight" horiz-adv-x="1024" >
<font-face units-per-em="2048" ascent="1638" descent="-410" />
<missing-glyph horiz-adv-x="500" />
<glyph horiz-adv-x="0" />
<glyph horiz-adv-x="682" />
<glyph unicode=" " />
<glyph unicode="!" d="M393 102.5q0 55.5 32 87t87 31.5t87 -31.5t32 -87t-32 -87t-87 -31.5t-87 31.5t-32 87zM449 532v973h126v-973h-126z" />
<glyph unicode="&#x22;" d="M237 1581h140q0 -332 -9 -659h-122q-11 329 -9 659zM647 1581h140q0 -332 -9 -659h-122q-11 329 -9 659z" />
<glyph unicode="#" d="M131 270v115h164v586h-164v114h164v529h129v-529h176v529h129v-529h164v-114h-164v-586h164v-115h-164v-526h-129v526h-176v-526h-129v526h-164zM424 385h176v586h-176v-586z" />
<glyph unicode="$" d="M121 307v10l127 15q0 -8 -2 -17q0 -55 28 -102q29 -49 80 -78q61 -37 152 -37q82 0 141 35q53 31 84 82q35 61 35 135t-41 144q-53 92 -197 176q-14 8 -42.5 23.5t-43.5 23.5q-184 106 -254 227q-57 100 -57 209q0 106 51 195q45 78 123 122q63 37 144 48v198h126v-196 q96 -10 168 -52q76 -43 119 -116.5t41 -153.5v-10l-127 -14q0 8 2 16q0 55 -28 102q-29 49 -80 78q-61 37 -152 37q-82 0 -141 -35q-53 -31 -84 -82q-35 -61 -35 -135t41 -143q53 -92 197 -176q14 -8 42.5 -23.5t43.5 -24.5q184 -106 254 -227q57 -100 57 -209 q0 -106 -51 -194q-45 -78 -123 -123q-63 -37 -144 -47v-197h-126v195q-96 10 -168 51q-76 43 -119 116.5t-41 153.5z" />
<glyph unicode="%" d="M131 0h141l621 1505h-141zM131 1053v452h191v-452h-191zM702 0v451h191v-451h-191z" />
<glyph unicode="&#x26;" d="M115 383q0 113 59 215q43 76 158 168q-41 53 -68 98q-96 166 -94 322q0 111 47 190q39 68 102 107q68 39 163.5 39t164.5 -39q66 -37 103 -107q47 -82 49 -186q0 -109 -58.5 -209t-236.5 -229q59 -72 141 -156q80 -84 137 -152v310h127v-355q0 -66 -12 -120 q72 -139 72 -279h-127q0 61 -17 123q-41 -53 -102 -88q-88 -51 -211 -51t-211 51q-82 47 -131 129q-57 98 -55 219zM242 383q0 -90 41 -160q33 -57 90 -90q59 -35 139 -35t137 33q80 45 113 141q-59 98 -221 260q-76 76 -135 144q-84 -70 -119 -129q-45 -80 -45 -164z M297 1186q0 -121 80 -260q23 -39 55 -84q145 104 195 190q45 78 43 158q0 74 -31 129q-25 43 -63.5 65.5t-91 22.5t-91.5 -22.5t-63 -65.5q-33 -55 -33 -133z" />
<glyph unicode="'" d="M442 1581h140q0 -332 -9 -659h-122q-11 329 -9 659z" />
<glyph unicode="(" d="M246 679q0 456 200 802q78 133 181 248l94 -78q-92 -102 -162 -221q-186 -324 -186 -751t186 -753q70 -119 162 -219l-94 -78q-104 113 -181 246q-200 348 -200 804z" />
<glyph unicode=")" d="M303 -293q92 102 162 219q186 324 186 752t-186 752q-70 119 -162 221l94 78q104 -113 181 -248q201 -348 200.5 -803t-200.5 -803q-78 -133 -181 -246z" />
<glyph unicode="*" d="M84 1270l39 108l336 -121l-10 363h126l-10 -363l336 121l39 -108l-348 -105l225 -288l-104 -68l-201 295l-201 -295l-104 68l225 288z" />
<glyph unicode="+" d="M131 621v114h318v363h126v-363h318v-114h-318v-361h-126v361h-318z" />
<glyph unicode="," d="M369 -358q12 18 24 39q88 152 113 303q-78 2 -111 61q-18 31 -18 73t18 72q16 27 43 43q31 18 74 18.5t74 -18.5q27 -16 43 -43q18 -31 18 -73q0 -246 -143 -492q-12 -23 -27 -45z" />
<glyph unicode="-" d="M131 621v114h762v-114h-762z" />
<glyph unicode="." d="M377 118q0 42 18 72q16 27 43 43q31 18 74 18.5t74 -18.5q27 -16 43 -43q18 -31 18 -72.5t-18 -72.5q-16 -27 -43 -43q-31 -18 -74 -18t-74 18q-27 16 -43 43q-18 31 -18 73z" />
<glyph unicode="/" d="M131 -371l629 2100h133l-629 -2100h-133z" />
<glyph unicode="0" d="M115 451v604q0 168 65 282q51 88 135 136.5t197 48.5t197 -48.5t135 -136.5q66 -115 65 -282v-604q0 -168 -65 -283q-51 -88 -135 -136t-197 -48t-197 48t-135 136q-65 115 -65 283zM242 512l528 664q-12 59 -39 104q-37 63 -94 96q-53 31 -125 31t-125 -31 q-57 -33 -94 -96q-51 -90 -51 -225v-543zM254 330q12 -59 39 -105q37 -63 94 -96q53 -31 125 -31t125 31q57 33 94 96q51 90 51 226v542z" />
<glyph unicode="1" d="M139 1268l371 237h127v-1505h-127v1364l-303 -193z" />
<glyph unicode="2" d="M121 1188q8 86 49 155q47 80 127 127q88 51 212 51.5t212 -51.5q80 -45 127 -127q53 -94 53 -206q0 -121 -67 -238q-61 -109 -250 -264q-182 -152 -248 -262q-57 -100 -72 -258h629v-115h-762v2q0 272 86 424q72 125 270 281q176 141 232 239q55 94 55 189q0 84 -39 151 q-33 55 -86 86q-59 35 -139 35t-139 -33q-55 -31 -88 -88q-31 -53 -37 -119z" />
<glyph unicode="3" d="M104 317l123 29q10 -61 41 -115q37 -63 97 -96q61 -37 145 -37q86 0 149 37q59 35 95 96q45 78 45 175q0 94 -45 169q-41 72 -113 113q-88 51 -262 53v115q164 0 248 47q66 37 102.5 102.5t36.5 141.5q0 80 -37 145q-31 53 -84 82q-55 33 -131 33t-131 -33 q-51 -31 -83 -84t-36 -119l-127 17q8 88 49 162q45 78 123 123q86 49 205 49t205 -49q78 -45 121 -123q53 -92 53 -201q0 -100 -47 -184q-47 -82 -133 -131q-35 -20 -84 -35q55 -16 96 -39q92 -53 145 -146q55 -94 56 -211q0 -127 -60 -231q-49 -86 -135 -135 q-92 -53 -220 -53t-220 53q-86 49 -135 137q-40 65 -52 143z" />
<glyph unicode="4" d="M115 487v115l489 903h156v-903h133v-115h-133v-487h-127v487h-518zM242 602h391v717z" />
<glyph unicode="5" d="M121 317l119 43q14 -72 47 -129q39 -68 96 -102q53 -31 125 -31q70 0 121 31q57 35 96 100q57 98 57 252q0 156 -57 258q-37 66 -94 97q-49 29 -117 28.5t-117 -28.5q-57 -33 -96 -99q-25 -41 -37 -92l-114 51v809h704v-114h-575v-494q25 20 49 37q80 47 186.5 46 t185.5 -46q84 -47 138 -139q72 -125 71 -314q0 -186 -71 -309q-53 -92 -138 -141q-82 -47 -192.5 -47t-194.5 47q-84 49 -137 141q-39 65 -55 145z" />
<glyph unicode="6" d="M115 451v4q0 422 153 686q111 193 293 297q74 43 154 67l39 -108q-61 -20 -119 -56q-160 -92 -254 -258q-59 -100 -92 -229q12 8 26 16q84 49 197 49.5t197 -48t135 -136.5q66 -115 65 -282v-2q0 -168 -65 -283q-51 -88 -135 -136t-197 -48t-197 48t-135 136 q-65 115 -65 283zM242 451q0 -135 51 -226q37 -63 94 -96q53 -31 125 -31t125 31q57 33 94 96q51 90 51 226v2q0 135 -51 225q-37 63 -94 96q-53 31 -125 31t-125 -31q-57 -33 -94 -96q-51 -88 -51 -223v-4z" />
<glyph unicode="7" d="M131 1391v114h762v-114l-481 -1391h-136l482 1391h-627z" />
<glyph unicode="8" d="M115 346q0 104 57 205q59 102 234 219q-150 104 -203 199q-57 98 -58 205q0 102 50 184q43 74 114 115q84 49 203 49t203 -49q74 -43 114 -115q47 -82 50 -184q0 -104 -58 -205q-53 -94 -203 -199q174 -117 234 -219q57 -98 57 -205q0 -102 -49 -186q-45 -76 -123 -123 q-92 -53 -225 -53t-225 53q-80 45 -123 123q-49 84 -49 186zM242 346q0 -72 32 -129q31 -51 84 -82q63 -37 153.5 -37t154.5 37q53 31 84 82q33 57 32 129q0 78 -43 152q-55 96 -227 204q-172 -109 -227 -204q-43 -74 -43 -152zM274 1174q0 -78 43 -152q49 -88 195 -184 q145 96 195 184q43 74 43 152q0 72 -31 124q-29 49 -78 78q-53 31 -129 31t-129 -31q-49 -29 -78 -78q-33 -54 -31 -124z" />
<glyph unicode="9" d="M115 1032v23q0 168 65 282q51 88 135 136.5t197 48.5t195 -47q84 -49 135 -140q68 -119 67 -291v-518q0 -213 -80 -350q-55 -96 -141 -147q-80 -45 -185.5 -45t-183.5 45q-86 49 -141 147q-37 66 -57 141l115 52q16 -76 51 -136q41 -72 100 -106q51 -29 116.5 -29 t114.5 29q57 33 99 102q66 113 65 297v209q-2 -6 -6 -10q-47 -80 -117 -123q-63 -37 -151 -37q-109 0 -193 49q-84 47 -135 138q-65 114 -65 280zM242 1032q0 -135 51 -225q37 -63 94 -96q53 -31 123 -31q72 0 127 33q57 33 94 96q51 88 51 223v12q0 143 -53 236 q-37 63 -94 96q-53 31 -123 31q-72 0 -125 -31q-57 -33 -94 -96q-51 -90 -51 -225v-23z" />
<glyph unicode=":" d="M377 118q0 42 18 72q16 27 43 43q31 18 74 18.5t74 -18.5q27 -16 43 -43q18 -31 18 -72.5t-18 -72.5q-16 -27 -43 -43q-31 -18 -74 -18t-74 18q-27 16 -43 43q-18 31 -18 73zM377 968q0 42 18 72q16 27 43 43q31 18 74 18.5t74 -18.5q27 -16 43 -43q18 -31 18 -72.5 t-18 -72.5q-16 -27 -43 -43q-31 -18 -74 -18t-74 18q-27 16 -43 43q-18 31 -18 73z" />
<glyph unicode=";" d="M369 -358q12 18 24 39q88 152 113 303q-78 2 -111 61q-18 31 -18 73t18 72q16 27 43 43q31 18 74 18.5t74 -18.5q27 -16 43 -43q18 -31 18 -73q0 -246 -143 -492q-12 -23 -27 -45zM377 968q0 42 18 72q16 27 43 43q31 18 74 18.5t74 -18.5q27 -16 43 -43q18 -31 18 -72.5 t-18 -72.5q-16 -27 -43 -43q-31 -18 -74 -18t-74 18q-27 16 -43 43q-18 31 -18 73z" />
<glyph unicode="&#x3c;" d="M131 608v140l725 503l74 -96l-697 -477l697 -477l-74 -95z" />
<glyph unicode="=" d="M131 392v114h762v-114h-762zM131 852v114h762v-114h-762z" />
<glyph unicode="&#x3e;" d="M94 201l697 477l-697 477l74 96l725 -503v-140l-725 -502z" />
<glyph unicode="?" d="M121 1188v12q0 82 41 152q43 74 119 116q92 53 225 54q127 0 217 -52q78 -45 121 -120q49 -86 49 -191q0 -115 -62 -221q-33 -57 -120 -158q-61 -70 -88 -114q-47 -82 -48 -213l-126 -2q0 174 59 278q33 55 119 152q66 76 94 125q45 78 45 155q0 70 -33 129 q-31 51 -82 82q-59 35 -145 35q-90 0 -152 -37q-51 -29 -80 -78q-27 -47 -28 -102q0 -8 2 -16zM393 102.5q0 55.5 32 87t87 31.5t87 -31.5t32 -87t-32 -87t-87 -31.5t-87 31.5t-32 87z" />
<glyph unicode="@" d="M131 29v1300q0 141 57 240q47 82 125 127q84 47 199 48t199 -48q80 -45 125 -127q57 -98 57 -240v-1018q0 -106 -41 -176q-29 -51 -76 -78q-43 -25 -102 -24q-66 0 -116 28.5t-81 79.5q-39 68 -39 170v631q0 100 39 168q63 111 199 111h90v108q0 109 -43 182 q-33 57 -86 88t-125 31t-125 -30.5t-86 -88.5q-43 -74 -43 -182v-1300q0 -109 43 -183q33 -57 86 -87.5t125 -30.5h324v-115h-324q-115 0 -199 49q-78 45 -125 125q-57 99 -57 242zM565 311q0 -94 45 -137q27 -27 64 -27q31 0 49 21q43 43 43 143v795h-90q-39 0 -66 -27 q-43 -43 -45 -137v-631z" />
<glyph unicode="A" d="M131 0v152q0 410 318 1353h126q317 -944 318 -1353v-152h-127v152q0 117 -27 276h-454q-25 -162 -27 -276v-152h-127zM305 543h414q-61 319 -207 788q-146 -469 -207 -788z" />
<glyph unicode="B" d="M131 0v1505h346q113 0 195 -47q74 -43 119 -121q53 -92 53 -219q0 -117 -47 -198q-43 -74 -117 -117q-16 -8 -31 -17q143 -45 211 -165q49 -84 49 -203q0 -129 -55 -223q-49 -86 -135 -138q-100 -57 -242 -57h-346zM258 115h219q141 0 223 83t82 222q0 98 -41 168 q-37 61 -96 96q-70 41 -168 41h-219v-610zM258 840h219q137 0 201 112q39 68 39 164t-39 164q-63 111 -201 111h-219v-551z" />
<glyph unicode="C" d="M115 399v707q0 137 57 235q47 82 127 129q88 51 212 51h2q122 0 210 -51q82 -47 129 -129q41 -70 51 -153l-125 -23q-8 66 -39 117q-35 57 -90 90q-59 33 -138 34h-5q-76 0 -133 -32q-55 -33 -88 -92q-43 -74 -43 -176v-707q0 -104 43 -176q33 -57 88 -92q57 -33 138 -33 t138 33q55 33 90 92q31 53 39 117l125 -23q-10 -84 -51 -153q-47 -82 -129 -129q-88 -51 -211 -51t-213 51q-82 47 -127 129q-57 98 -57 235z" />
<glyph unicode="D" d="M131 0v1505h324q129 0 225 -55q94 -53 154 -158q76 -133 75 -325v-428q0 -195 -75 -326q-59 -102 -154 -158q-98 -55 -225 -55h-324zM258 115h197q86 0 153.5 39t112.5 116q61 106 61 269v428q0 162 -61 268q-45 76 -113 117q-68 39 -153 39h-197v-1276z" />
<glyph unicode="E" d="M197 0v1505h696v-114h-569v-521h454v-114h-454v-641h569v-115h-696z" />
<glyph unicode="F" d="M197 0v1505h696v-114h-569v-521h454v-114h-454v-756h-127z" />
<glyph unicode="G" d="M115 399v707q0 137 57 235q47 82 127 129q88 51 212 52h2q123 0 210 -52q82 -47 129 -129q41 -70 51 -153l-125 -23q-8 66 -39 117q-35 57 -90 90q-59 33 -138 34h-5q-76 0 -133 -32q-55 -33 -88 -92q-43 -74 -43 -176v-707q0 -104 43 -176q33 -59 88 -92q57 -33 137 -33 q74 0 127 31t86 88q43 74 43 182v297h-254v115h381v-412q0 -141 -57 -241q-47 -82 -125 -127q-84 -47 -201 -47q-123 0 -209 51q-82 47 -131 129q-55 98 -55 235z" />
<glyph unicode="H" d="M131 0v1505h127v-657h508v657h127v-1505h-127v733h-508v-733h-127z" />
<glyph unicode="I" d="M225 0v115h224v1276h-224v114h574v-114h-224v-1276h224v-115h-574z" />
<glyph unicode="J" d="M88 317l125 25q8 -68 39 -125q33 -57 87 -88t127 -31t127 31t87 88q43 74 43 182v992h-295v114h422v-1106q0 -141 -57 -239q-47 -82 -125 -127q-84 -49 -201 -49t-201 49q-80 45 -127 127q-41 71 -51 157z" />
<glyph unicode="K" d="M131 0v1505h127v-753q281 295 420 536q80 139 82 217h133q0 -88 -92 -248q-88 -154 -226 -325q334 -696 334 -932h-127q0 213 -295 825q-102 -121 -229 -247v-578h-127z" />
<glyph unicode="L" d="M197 0v1505h127v-1390h585v-115h-712z" />
<glyph unicode="M" d="M131 0v1505h170l211 -823l211 823h170v-1505h-127v301q0 193 4 506q4 262 4 440l-203 -796h-118l-203 796q0 -100 2 -248q6 -510 6 -698v-301h-127z" />
<glyph unicode="N" d="M131 0v1505h184l451 -1302v1302h127v-1505h-184l-451 1303v-1303h-127z" />
<glyph unicode="O" d="M115 399v707q0 137 55 235q47 82 131 129q88 51 211 51h2q121 0 209 -51q82 -47 131 -129q55 -98 55 -235v-707q0 -137 -55 -235q-47 -82 -131 -129q-88 -51 -211 -51t-211 51q-82 47 -131 129q-55 98 -55 235zM242 399q0 -104 43 -176q33 -59 88 -92q57 -33 138 -33 t140 33q55 33 88 92q41 72 43 176v707q0 104 -43 176q-33 59 -88 92q-59 33 -139 33t-139 -33q-55 -33 -88 -92q-41 -72 -43 -176v-707z" />
<glyph unicode="P" d="M164 0v1505h344q123 0 213 -51q82 -47 131 -133q57 -100 57 -242.5t-57 -242.5q-49 -84 -131 -131q-90 -51 -213 -54h-217v-651h-127zM291 766h217q156 0 231 127q43 76 43 185.5t-43 185.5q-74 127 -231 127h-217v-625z" />
<glyph unicode="Q" d="M115 399v707q0 137 55 235q47 82 131 129q88 51 211 52h2q122 0 209 -52q82 -47 131 -129q55 -98 55 -235v-707q0 -137 -55 -235q-47 -82 -131 -129q-43 -25 -92 -37l74 -299h-127l-72 285q-119 2 -205 51q-82 47 -131 129q-55 98 -55 235zM242 399q0 -104 43 -176 q33 -59 88 -92q57 -33 138 -33t140 33q55 33 88 92q41 72 43 176v707q0 104 -43 176q-33 59 -88 92q-59 33 -139 33t-139 -33q-55 -33 -88 -92q-41 -72 -43 -176v-707z" />
<glyph unicode="R" d="M131 0v1505h377q123 0 213 -51q82 -47 131 -133q57 -100 57 -242.5t-57 -242.5q-49 -84 -131 -131q-45 -27 -98 -39q78 -106 135 -209q152 -260 151 -457h-127q0 174 -133 401q-70 119 -170 250h-221v-651h-127zM258 766h250q156 0 231 127q43 76 43 185.5t-43 185.5 q-74 127 -231 127h-250v-625z" />
<glyph unicode="S" d="M121 307v10l127 15q0 -8 -2 -17q0 -55 28 -102q29 -49 80 -78q61 -37 152 -37q82 0 141 35q53 31 84 82q35 61 35 135t-41 144q-53 92 -197 176q-14 8 -42.5 23.5t-43.5 23.5q-184 106 -254 227q-57 100 -57 209q0 106 51 195q45 78 123 122q88 51 213 52q133 0 225 -54 q76 -42 119 -116q41 -70 41 -147v-7v-10l-127 -14q0 8 2 16q0 55 -28 102q-29 49 -80 78q-61 37 -152 37q-82 0 -141 -35q-53 -31 -84 -82q-35 -61 -35 -135t41 -143q53 -92 197 -176q14 -8 42.5 -23.5t43.5 -24.5q184 -106 254 -227q57 -100 57 -209q0 -106 -51 -194 q-45 -78 -123 -123q-88 -51 -213 -51q-133 0 -225 53q-76 43 -119 117q-41 70 -41 146v7z" />
<glyph unicode="T" d="M131 1391v114h762v-114h-318v-1391h-126v1391h-318z" />
<glyph unicode="U" d="M131 399v1106h127v-1106q0 -109 43 -182q33 -57 86 -88t125 -31t125 31t86 88q43 74 43 182v1106h127v-1106q0 -141 -57 -241q-47 -82 -125 -127q-84 -47 -199 -47t-199 47q-80 45 -125 127q-57 98 -57 241z" />
<glyph unicode="V" d="M131 1356v149h127v-149q0 -367 254 -1182q254 813 254 1182v149h127v-149q0 -410 -318 -1356h-126q-318 946 -318 1356z" />
<glyph unicode="W" d="M131 1128v377h127v-377q0 -285 74 -882l131 657h98l131 -657q74 598 74 882v377h127v-377q0 -342 -154 -1128h-96l-131 655l-131 -655h-96q-154 786 -154 1128z" />
<glyph unicode="X" d="M131 0v76q0 182 107 366q14 25 30 50l170 262l-170 260q-16 25 -30 49q-106 186 -107 367v75h127v-75q0 -174 117 -353l137 -211l137 211q117 180 117 353v75h127v-75q0 -182 -107 -367q-14 -25 -30 -49l-170 -260l170 -262q16 -25 30 -50q106 -186 107 -366v-76h-127v76 q0 174 -117 352l-137 211l-137 -211q-117 -180 -117 -352v-76h-127z" />
<glyph unicode="Y" d="M131 1415v90h127v-90q0 -215 119 -434l135 -248l135 248q119 219 119 434v90h127v-90q0 -242 -135 -489l-183 -336v-590h-126v590l-183 336q-135 247 -135 489z" />
<glyph unicode="Z" d="M131 0v115l614 1276h-614v114h762v-114l-614 -1276h614v-115h-762z" />
<glyph unicode="[" d="M246 -371v2100h571v-115h-444v-1870h444v-115h-571z" />
<glyph unicode="\" d="M131 1729l629 -2100h133l-629 2100h-133z" />
<glyph unicode="]" d="M207 -256h444v1870h-444v115h571v-2100h-571v115z" />
<glyph unicode="^" d="M147 1188l297 393h136l297 -393l-107 -70l-258 367l-258 -367z" />
<glyph unicode="_" d="M131 0v114h762v-114h-762z" />
<glyph unicode="`" d="M205 1513l106 80l324 -413l-88 -66z" />
<glyph unicode="a" d="M115 297q0 90 37 158q41 70 120 114q111 63 279 64h215v106q0 78 -33 133q-29 51 -80 80q-61 35 -147 35q-90 0 -152 -37q-49 -29 -78 -78q-23 -39 -26 -81l-123 28q8 59 37 113q43 74 117 117q92 53 225 53q129 0 221 -53q76 -45 119 -117q47 -82 47 -193v-739h-127v162 q-47 -82 -129 -127q-88 -51 -203 -51q-104 0 -176 41q-63 37 -102 102q-41 72 -41 170zM242 299q0 -115 94 -170q53 -31 131 -31q92 0 162 39q61 35 96 99q41 72 41 170v112h-215q-125 0 -205 -45q-53 -31 -80 -78q-24 -41 -24 -96z" />
<glyph unicode="b" d="M131 0v1505h127v-585q4 10 10 18q47 82 121 125q68 39 158 39q96 0 168 -41q76 -45 127 -129q67 -117 67 -292v-5v-184q0 -178 -67 -297q-49 -84 -127 -129q-72 -41 -168 -41q-90 0 -158 39q-74 43 -121 124q-6 8 -10 19v-166h-127zM258 451q0 -141 53 -232 q35 -61 88 -92q49 -29 115 -29q70 0 123 31q57 33 94 96q51 90 51 226v184q0 135 -51 225q-37 63 -94 96q-53 31 -123 31q-66 0 -115 -29q-53 -31 -88 -92q-53 -90 -53 -231v-184z" />
<glyph unicode="c" d="M115 451v184q0 166 65 280q51 88 135 137.5t199 49.5t201 -49q84 -49 135 -138q39 -68 53 -147l-121 -37q-12 70 -45 127q-37 63 -94 98q-55 31 -129 31q-72 0 -127 -31q-57 -33 -94 -98q-51 -90 -51 -223v-184q0 -135 51 -224q37 -63 94 -98q55 -31 127 -31q74 0 129 31 q57 33 94 98q33 55 45 127l121 -37q-14 -80 -53 -147q-51 -88 -135 -137t-200 -49t-200 49t-135 137q-65 115 -65 281z" />
<glyph unicode="d" d="M115 451v184q0 178 67 297q49 84 127 129q72 41 168 41q90 0 158 -39q74 -43 121 -125q6 -8 10 -18v585h127v-1505h-127v166q-4 -10 -10 -19q-47 -82 -121 -124q-33 -18 -73 -28.5t-85 -10.5q-96 0 -168 41q-76 45 -127 129q-67 119 -67 297zM242 451q0 -135 51 -226 q37 -63 94 -96q53 -31 123 -31q66 0 115 29q53 31 88 92q53 90 53 232v184q0 141 -53 231q-35 61 -88 92q-49 29 -115 29q-70 0 -123 -31q-57 -33 -94 -96q-51 -90 -51 -225v-184z" />
<glyph unicode="e" d="M115 451v184q0 168 65 283q51 88 135 136t197 48t197 -48t135 -136q65 -113 65 -278v-5v-150h-667v-34q0 -131 51 -220q37 -66 96 -100q57 -33 137 -33q78 0 137.5 35t98.5 100q20 37 33 80l116 -47q-14 -49 -41 -92q-51 -90 -137 -139q-88 -51 -207.5 -51t-208.5 51 q-86 49 -137 139q-65 113 -65 277zM242 600h540v35q0 135 -51 225q-37 63 -94 96q-53 31 -125 31t-125 -31q-57 -33 -94 -96q-51 -90 -51 -225v-35z" />
<glyph unicode="f" d="M131 901v115h236v203q0 121 47 202q37 63 96 99q60 35 141 35l2 -1q82 0 141.5 -34.5t98.5 -98.5q31 -55 41 -121l-123 -32q-6 53 -31 96q-23 39 -55 57q-31 18 -72 19h-2q-40 0 -69 -19q-33 -18 -56 -57q-32 -55 -32 -140v-5v-203h360v-115h-360v-901h-127v901h-236z " />
<glyph unicode="g" d="M94 -100q0 84 37 143q35 59 98 100q-29 23 -45 54q-25 42 -25 92q0 52 27 100q25 43 70 74q-59 41 -96 102q-45 78 -45 185.5t45 183.5q41 72 116 117q88 51 216 51q72 0 133 -17h317v-114l-145 6q16 -18 28 -43q45 -78 45 -184.5t-45 -184.5q-41 -72 -116 -114 q-88 -51 -217 -52q-74 0 -136 17q-31 -12 -53 -33q-31 -31 -31 -72t29 -69q41 -41 148 -43h112q137 0 232 -56q68 -39 104 -100q35 -61 35 -147q0 -88 -39 -156q-41 -70 -119 -115q-104 -61 -262 -61q-156 0 -260 59q-78 45 -117 117q-39 70 -41 160zM223 -100 q0 -57 25 -103q27 -47 80 -76q74 -43 184 -43q115 0 188 43q51 31 80 76q25 43 25 99q0 51 -23 90q-23 37 -63 61q-63 37 -158 37h-110q-82 0 -142 -35q-43 -25 -65 -63q-21 -37 -21 -86zM242 750.5q0 -72.5 30 -125.5q29 -49 78 -78q59 -33 142 -33t143 33q49 29 78 78 q31 52 31 123q-1 75 -31 129q-29 49 -78 77q-49 27 -115 31l-28 2q-84 0 -142 -33q-49 -29 -78 -77q-30 -54 -30 -126.5z" />
<glyph unicode="h" d="M131 0v1505h127v-585q4 10 10 18q47 82 121 125q68 39 157 39t156 -39q74 -43 121 -125q70 -119 70 -303v-635h-127v635q0 141 -53 231q-35 61 -88 92q-49 29 -112.5 29t-113.5 -29q-53 -31 -88 -92q-53 -90 -53 -231v-635h-127z" />
<glyph unicode="i" d="M154 0v115h309v856h-281v114h408v-970h280v-115h-716zM410 1403q0 47 27.5 74.5t74.5 27.5t74.5 -27.5t27.5 -74.5t-27.5 -75t-74.5 -28t-74.5 28t-27.5 75z" />
<glyph unicode="j" d="M45 -143l119 39q10 -66 41 -117t74 -78q39 -23 90 -23t90 23q43 25 73 76q45 78 46 203v991h-295v114h422v-1105q0 -156 -60 -259q-45 -76 -115 -118q-68 -39 -159.5 -39t-161.5 39q-70 41 -115 118q-35 62 -49 136zM519 1403q0 47 27.5 74.5t74.5 27.5t74.5 -27.5 t27.5 -74.5t-27.5 -75t-74.5 -28t-74.5 28t-27.5 75z" />
<glyph unicode="k" d="M131 0v1505h127v-944q371 270 475 451q25 45 27 73h133q0 -37 -33 -94q-80 -137 -280 -317q94 -143 163 -264q166 -289 166 -410h-127q0 102 -135 336q-68 117 -162 256q-100 -84 -227 -176v-416h-127z" />
<glyph unicode="l" d="M154 0v115h309v1276h-281v114h408v-1390h280v-115h-716z" />
<glyph unicode="m" d="M115 0v1085h127v-75l4 4q29 49 65 71q31 16 68 17q39 0 72 -19q39 -23 69 -73q16 -29 29 -64q12 37 29 68q29 49 67 71q31 16 68 17q39 0 71 -19q39 -23 70 -73q55 -96 55 -262v-748h-127v748q0 164 -57 219q-20 20 -47 20t-45 -20q-55 -55 -58 -219v-748h-126v748 q0 164 -58 219q-20 20 -46 20t-46 -20q-55 -55 -57 -219v-748h-127z" />
<glyph unicode="n" d="M131 0v1085h127v-165q4 10 10 18q47 82 121 125q68 39 157 39t156 -39q74 -43 121 -125q70 -119 70 -303v-635h-127v635q0 141 -53 231q-35 61 -88 92q-49 29 -112.5 29t-113.5 -29q-53 -31 -88 -92q-53 -90 -53 -231v-635h-127z" />
<glyph unicode="o" d="M115 451v184q0 168 65 283q51 88 135 136t197 48t197 -48t135 -136q65 -113 65 -278v-5v-184q0 -168 -65 -283q-51 -88 -135 -136t-197 -48t-197 48t-135 136q-65 115 -65 283zM242 451q0 -135 51 -226q37 -63 94 -96q53 -31 125 -31t125 31q57 33 94 96q51 90 51 226 v184q0 135 -51 225q-37 63 -94 96q-53 31 -125 31t-125 -31q-57 -33 -94 -96q-51 -90 -51 -225v-184z" />
<glyph unicode="p" d="M131 -420v1505h127v-165q4 10 10 18q47 82 121 125q68 39 158 39q96 0 168 -41q76 -45 127 -129q67 -117 67 -292v-5v-184q0 -178 -67 -297q-49 -84 -127 -129q-72 -41 -168 -41q-90 0 -158 39q-74 43 -121 124q-6 8 -10 19v-586h-127zM258 451q0 -141 53 -232 q35 -61 88 -92q49 -29 115 -29q70 0 123 31q57 33 94 96q51 90 51 226v184q0 135 -51 225q-37 63 -94 96q-53 31 -123 31q-66 0 -115 -29q-53 -31 -88 -92q-53 -90 -53 -231v-184z" />
<glyph unicode="q" d="M115 451v184q0 178 67 297q49 84 127 129q72 41 168 41q90 0 158 -39q74 -43 121 -125q6 -8 10 -18v165h127v-1505h-127v586q-4 -10 -10 -19q-47 -82 -121 -124q-33 -18 -73 -28.5t-85 -10.5q-96 0 -168 41q-76 45 -127 129q-67 119 -67 297zM242 451q0 -135 51 -226 q37 -63 94 -96q53 -31 123 -31q66 0 115 29q53 31 88 92q53 90 53 232v184q0 141 -53 231q-35 61 -88 92q-49 29 -115 29q-70 0 -123 -31q-57 -33 -94 -96q-51 -90 -51 -225v-184z" />
<glyph unicode="r" d="M254 0v1085h127v-215q16 43 37 82q47 80 112 119q55 31 125 31q76 0 140.5 -37t101.5 -102q16 -29 27 -62l-119 -53q-8 29 -23 55q-25 45 -63 66q-31 18 -72 18q-61 0 -108 -26q-55 -33 -95 -99q-63 -109 -63 -287v-575h-127z" />
<glyph unicode="s" d="M125 225l121 37q6 -25 20 -45q31 -51 80 -82q63 -37 162 -37q106 0 174 39q45 25 66 64q20 35 20 80t-23 84q-25 43 -71 69q-53 31 -172 45q-147 18 -219 62q-72 41 -113 112q-41 70 -41 152q0 78 35 137q35 61 104 102q98 57 248 58q141 0 234 -53q76 -43 120 -121 q18 -33 29 -68l-121 -37q-16 51 -55 92q-20 20 -45 35q-63 37 -162 37q-106 0 -174 -39q-45 -25 -66 -63q-20 -35 -20 -80t23 -84q25 -43 71 -70q53 -31 172 -45q147 -18 219 -61q72 -41 113 -113q41 -70 41 -151q0 -78 -35 -138q-35 -61 -104 -102q-98 -57 -248 -57 q-141 0 -234 53q-76 43 -120 121q-19 32 -29 67z" />
<glyph unicode="t" d="M106 971v114h240v420h127v-420h350v-114h-350v-586q0 -117 43 -192q29 -49 70 -72q37 -23 87 -23t87 23q43 25 71 74q37 61 41 145l125 -23q-8 -100 -55 -180q-43 -74 -111 -114q-68 -39 -157.5 -39t-157.5 39q-70 39 -113 114q-57 100 -57 248v586h-240z" />
<glyph unicode="u" d="M131 451v634h127v-634q0 -141 53 -232q35 -61 88 -92q49 -29 112.5 -29t113.5 29q53 31 88 92q53 90 53 232v634h127v-1085h-127v166q-4 -10 -10 -19q-47 -82 -121 -124q-68 -39 -157 -39t-156 39q-74 43 -121 124q-70 120 -70 304z" />
<glyph unicode="v" d="M131 977v108h127v-108q0 -262 254 -842q254 582 254 842v108h127v-108q0 -295 -318 -977h-126q-318 682 -318 977z" />
<glyph unicode="w" d="M131 815v270h127v-270q0 -205 74 -635l131 471h98l131 -471q72 430 74 635v270h127v-270q0 -248 -154 -815h-96l-131 473l-131 -473h-96q-154 569 -154 815z" />
<glyph unicode="x" d="M131 0v10q0 59 72 185q35 59 67 106l166 242l-166 241q-33 47 -67 107q-72 123 -72 184v10h127v-10q0 -57 117 -225l137 -199l137 199q115 166 117 225v10h127v-10q0 -59 -72 -184q-35 -59 -67 -107l-166 -241l166 -242q33 -47 67 -106q72 -123 72 -185v-10h-127v10 q0 57 -117 226l-137 198l-137 -198q-115 -166 -117 -226v-10h-127z" />
<glyph unicode="y" d="M131 1010v75h127v-75q0 -100 64 -283l188 -545l192 545q63 180 64 283v75h127v-75q0 -121 -72 -322l-329 -942q-16 -49 -19 -152v-14h-127v14q0 119 25 191l75 217l-243 686q-72 199 -72 322z" />
<glyph unicode="z" d="M131 0v115l608 856h-608v114h762v-114l-608 -856h608v-115h-762z" />
<glyph unicode="{" d="M207 621v114q76 0 131 33q49 29 78 78q33 57 33 137v440q0 84 36 150q37 63 107 102q90 53 225 54v-115q-90 0 -151 -35q-45 -25 -68 -64.5t-23 -91.5v-440q0 -115 -47 -197q-39 -66 -102 -108q63 -41 102 -107q47 -82 47 -198v-439q0 -51 23 -91t68 -64q61 -35 151 -35 v-115q-135 0 -225 52q-70 39 -106.5 104t-36.5 149v439q0 80 -33 139q-29 49 -78 78q-55 31 -131 31z" />
<glyph unicode="|" d="M449 -371v2100h126v-2100h-126z" />
<glyph unicode="}" d="M207 -256q90 0 151 35q45 25 68 64.5t23 90.5v439q0 115 47 198q39 66 102 107q-63 41 -102 108q-47 82 -47 197v440q0 102 -91 156q-61 35 -151 35v115q135 0 225 -54q70 -39 107 -102q37 -66 36 -150v-440q0 -80 33 -137q29 -49 78 -78q55 -31 131 -33v-114 q-76 0 -131 -31q-49 -29 -78 -78q-33 -57 -33 -139v-439q0 -84 -36 -149q-37 -63 -107 -104q-90 -53 -225 -52v115z" />
<glyph unicode="~" d="M78 473q55 147 106 234q55 94 111 127q33 18 67 20q35 0 66 -18q55 -31 135 -172q53 -92 78 -119q14 -14 21 -15q2 0 6 5q31 16 71 88q47 80 101 223l106 -37q-55 -147 -106 -234q-55 -94 -111 -129q-33 -18 -67.5 -18t-65.5 18q-55 31 -135 170q-53 92 -78 119 q-14 14 -21 15q-2 0 -6 -2q-31 -16 -71 -89q-47 -80 -101 -223z" />
<glyph unicode="&#xa0;" />
<glyph unicode="&#xa2;" d="M115 451v184q0 166 65 280q51 88 135 138q59 35 134 45v196h126v-196q78 -10 140 -45q84 -49 135 -138q39 -68 53 -147l-121 -37q-12 70 -45 127q-37 63 -94 98q-55 31 -129 31q-72 0 -127 -31q-57 -33 -94 -98q-51 -90 -51 -223v-184q0 -135 51 -224q37 -63 94 -98 q55 -31 127 -31q74 0 129 31q57 33 94 98q33 55 45 127l121 -37q-14 -80 -53 -147q-51 -88 -135 -137q-61 -35 -140 -45v-197h-126v197q-74 10 -134 45q-84 49 -135 137q-65 115 -65 281z" />
<glyph unicode="&#xa3;" d="M131 0v115q53 45 90 108q61 106 62 309v209h-113v115h113v250q0 168 63 276q41 72 103 107q55 33 129.5 33t132.5 -33q61 -37 102 -107q37 -63 51 -147l-116 -45q-10 80 -43 135q-27 45 -62 66q-29 16 -63.5 16t-61.5 -16q-35 -20 -59 -62q-47 -82 -47 -223v-250h252 v-115h-252v-209q0 -238 -74 -364q-16 -29 -35 -53h590v-115h-762z" />
<glyph unicode="&#xa5;" d="M131 320v114h762v-114h-762zM131 621v114h762v-114h-762zM131 1415v90h127v-90q0 -215 119 -434l135 -248l135 248q119 219 119 434v90h127v-90q0 -242 -135 -489l-183 -336v-590h-126v590l-183 336q-135 247 -135 489z" />
<glyph unicode="&#xa8;" d="M205 1403q0 47 27.5 74.5t74.5 27.5t74.5 -27.5t27.5 -74.5t-27.5 -75t-74.5 -28t-74.5 28t-27.5 75zM615 1403q0 47 27.5 74.5t74.5 27.5t74.5 -27.5t27.5 -74.5t-27.5 -75t-74.5 -28t-74.5 28t-27.5 75z" />
<glyph unicode="&#xa9;" d="M66 397v564q0 154 63 262q53 92 145 145q98 59 237.5 59t238.5 -59q92 -53 145 -145q63 -109 63 -262v-564q0 -154 -63 -264q-53 -92 -145 -145q-100 -57 -238.5 -57.5t-237.5 57.5q-92 53 -145 145q-63 108 -63 264zM182 397q0 -123 51 -209q41 -70 109 -110 q72 -41 170 -41t170 41q68 39 109 110q49 86 51 209v564q0 123 -51 208q-41 70 -109 111q-72 41 -170 41t-170 -41q-68 -39 -109 -111q-49 -86 -51 -208v-564zM258 483v389q0 68 29 117q27 47 75 76q61 35 150 37q88 0 150 -35q49 -29 75 -78q20 -35 27 -72l-105 -24 q-4 41 -34 71q-39 39 -113 39q-51 0 -86 -20q-61 -35 -61 -111v-389q0 -76 61 -110q35 -20 86 -21q72 0 113 39q31 31 34 72l105 -25q-6 -37 -27 -72q-29 -49 -75 -75q-61 -35 -149.5 -35t-150.5 35q-49 29 -75 75q-29 49 -29 117z" />
<glyph unicode="&#xab;" d="M74 621v114q152 90 264 285q57 98 97 205l118 -43q-33 -78 -77 -152q-133 -231 -306 -352q172 -121 306 -352q43 -74 77 -150l-118 -45q-41 106 -97 207q-110 193 -264 283zM454 621v114q152 90 264 285q57 98 97 205l118 -43q-33 -78 -77 -152q-133 -231 -306 -352 q172 -121 306 -352q43 -74 77 -150l-118 -45q-41 106 -97 207q-110 193 -264 283z" />
<glyph unicode="&#xad;" d="M131 621v114h762v-114h-762z" />
<glyph unicode="&#xae;" d="M66 397v564q0 154 63 262q53 92 145 145q98 59 237.5 59t238.5 -59q92 -53 145 -145q63 -109 63 -262v-564q0 -154 -63 -264q-53 -92 -145 -145q-100 -57 -238.5 -57.5t-237.5 57.5q-92 53 -145 145q-63 108 -63 264zM182 397q0 -123 51 -209q41 -70 109 -110 q72 -41 170 -41t170 41q68 39 109 110q49 86 51 209v564q0 123 -51 208q-41 70 -109 111q-72 41 -170 41t-170 -41q-68 -39 -109 -111q-49 -86 -51 -208v-564zM266 264v827h264q72 0 125 -30q47 -27 78 -78q35 -59 34 -143t-34 -144q-29 -49 -78 -78q-20 -12 -45 -18 q53 -68 90 -129q68 -115 66 -207h-107q0 72 -53 164q-43 76 -119 160h-112v-324h-109zM375 686h155q72 0 107 59q23 39 22.5 95.5t-22.5 95.5q-35 59 -107 59h-155v-309z" />
<glyph unicode="&#xb4;" d="M389 1180l324 413l106 -80l-342 -399z" />
<glyph unicode="&#xb8;" d="M307 -324h205q49 0 76 27q18 18 18 47t-18 47q-25 25 -76 27h-63v176h126v-68q94 -18 136 -90q23 -39 22.5 -92t-23 -93t-65.5 -65q-53 -31 -133 -30h-205v114z" />
<glyph unicode="&#xbb;" d="M91 176q33 78 77 150q133 231 306 352q-172 121 -306 352q-43 74 -77 152l118 43q41 -106 97 -205q111 -193 264 -285v-114q-152 -90 -264 -283q-57 -98 -97 -207zM471 176q33 78 77 150q133 231 306 352q-172 121 -306 352q-43 74 -77 152l118 43q41 -106 97 -205 q111 -193 264 -285v-114q-152 -90 -264 -283q-57 -98 -97 -207z" />
<glyph unicode="&#x2c6;" d="M188 1247l254 314h140l254 -314l-111 -78l-213 293l-213 -293z" />
<glyph unicode="&#x2da;" d="M340 1364q0 55 22 94q20 35 56 55q39 23 94 23t94 -23q35 -20 56 -55q23 -39 22.5 -94t-22.5 -94q-20 -35 -56 -56q-39 -23 -94 -22.5t-94 22.5q-35 20 -56 56q-22 39 -22 94zM436 1364q0 -35 20.5 -55.5t55.5 -20.5t55.5 20.5t20.5 55.5t-20.5 55.5t-55.5 20.5 t-55.5 -20.5t-20.5 -55.5z" />
<glyph unicode="&#x2dc;" d="M152 1241q43 113 81 180q47 82 97 111q31 16 61.5 16t61.5 -16q45 -27 110 -135q41 -68 60 -88q4 -4 10 -9q25 14 55 72q37 63 78 170l106 -37q-43 -113 -81 -180q-47 -82 -97 -111q-31 -16 -61 -18q-31 0 -62 18q-45 27 -110 136q-41 68 -60 86q-4 4 -10 8 q-25 -14 -55 -70q-37 -63 -78 -170z" />
<glyph unicode="&#x400;" d="M197 0v1505h696v-114h-569v-521h454v-114h-454v-641h569v-115h-696zM254 1903l106 80l258 -334l-88 -66z" />
<glyph unicode="&#x401;" d="M197 0v1505h696v-114h-569v-521h454v-114h-454v-641h569v-115h-696zM205 1823q0 47 27.5 74.5t74.5 27.5t74.5 -27.5t27.5 -74.5t-27.5 -75t-74.5 -28t-74.5 28t-27.5 75zM615 1823q0 47 27.5 74.5t74.5 27.5t74.5 -27.5t27.5 -74.5t-27.5 -75t-74.5 -28t-74.5 28 t-27.5 75z" />
<glyph unicode="&#x402;" d="M115 1391v114h430v-114h-189v-441q43 78 111 117q59 35 140 35t141 -35q66 -37 108 -113q61 -106 62 -268v-328q0 -127 -52 -215q-43 -74 -114 -114q-78 -45 -185 -45v114q127 0 187 105q37 63 37 155v328q0 121 -46 199q-31 53 -75 78q-41 25 -96.5 24.5t-96.5 -24.5 q-45 -27 -76 -78q-45 -78 -45 -199v-686h-127v1391h-114z" />
<glyph unicode="&#x403;" d="M197 0v1505h712v-114h-585v-1391h-127zM406 1649l258 334l106 -80l-276 -320z" />
<glyph unicode="&#x404;" d="M115 399v707q0 137 57 235q47 82 127 129q88 51 212 51.5t212 -51.5q82 -47 129 -129q41 -70 51 -153l-125 -23q-8 66 -39 117q-35 57 -90 90q-59 33 -138 34t-138 -32q-55 -33 -88 -92q-43 -74 -43 -176v-295h460v-115h-460v-297q0 -104 43 -176q33 -57 88 -92 q57 -33 138 -33t138 33q55 33 90 92q31 53 39 117l125 -23q-10 -84 -51 -153q-47 -82 -129 -129q-88 -51 -211 -51t-213 51q-82 47 -127 129q-57 98 -57 235z" />
<glyph unicode="&#x405;" d="M121 307v10l127 15q0 -8 -2 -17q0 -55 28 -102q29 -49 80 -78q61 -37 152 -37q82 0 141 35q53 31 84 82q35 61 35 135t-41 144q-53 92 -197 176q-14 8 -42.5 23.5t-43.5 23.5q-184 106 -254 227q-57 100 -57 209q0 106 51 195q45 78 123 122q88 51 213 52q133 0 225 -54 q76 -43 119 -116.5t41 -153.5v-10l-127 -14q0 8 2 16q0 55 -28 102q-29 49 -80 78q-61 37 -152 37q-82 0 -141 -35q-53 -31 -84 -82q-35 -61 -35 -135t41 -143q53 -92 197 -176q14 -8 42.5 -23.5t43.5 -24.5q184 -106 254 -227q57 -100 57 -209q0 -106 -51 -194 q-45 -78 -123 -123q-88 -51 -213 -51q-133 0 -225 53q-76 43 -119 116.5t-41 153.5z" />
<glyph unicode="&#x406;" d="M225 0v115h224v1276h-224v114h574v-114h-224v-1276h224v-115h-574z" />
<glyph unicode="&#x407;" d="M205 1823q0 47 27.5 74.5t74.5 27.5t74.5 -27.5t27.5 -74.5t-27.5 -75t-74.5 -28t-74.5 28t-27.5 75zM225 0v115h224v1276h-224v114h574v-114h-224v-1276h224v-115h-574zM615 1823q0 47 27.5 74.5t74.5 27.5t74.5 -27.5t27.5 -74.5t-27.5 -75t-74.5 -28t-74.5 28 t-27.5 75z" />
<glyph unicode="&#x408;" d="M88 317l125 25q8 -68 39 -125q33 -57 87 -88t127 -31t127 31t87 88q43 74 43 182v992h-295v114h422v-1106q0 -141 -57 -239q-47 -82 -125 -127q-84 -49 -201 -49t-201 49q-80 45 -127 127q-41 71 -51 157z" />
<glyph unicode="&#x409;" d="M66 0v115q29 0 49 20q35 35 35 148v75l38 1147h387v-620q94 0 166 -41q74 -43 121 -123q63 -111 63.5 -278t-63.5 -279q-47 -82 -121 -123q-72 -41 -166 -41h-126v1391h-138l-35 -1037q-6 -207 -43 -270q-23 -41 -57 -61q-40 -23 -110 -23zM575 115q53 0 95 24 q47 27 80 80q49 86 49 223.5t-49 223.5q-31 55 -80 82q-41 23 -95 22v-655z" />
<glyph unicode="&#x40a;" d="M131 0v1505h127v-694h191v694h126v-620q94 0 166 -41q74 -43 121 -123q63 -111 63.5 -278t-63.5 -279q-47 -82 -121 -123q-72 -41 -166 -41h-126v696h-191v-696h-127zM575 115q53 0 95 24q47 27 80 80q49 86 49 223.5t-49 223.5q-31 55 -80 82q-41 23 -95 22v-655z" />
<glyph unicode="&#x40b;" d="M115 1391v114h430v-114h-189v-457q6 12 13 22q43 76 108 115q55 31 127 31t125 -31q63 -37 109 -115q72 -123 71 -321v-635h-127v635q0 158 -55 252q-31 53 -76 80q-37 20 -83 20t-83 -20q-45 -25 -73 -80q-55 -94 -56 -252v-635h-127v1391h-114z" />
<glyph unicode="&#x40c;" d="M131 0v1505h127v-753q281 295 420 536q80 139 82 217h133q0 -88 -92 -248q-88 -154 -226 -325q334 -696 334 -932h-127q0 213 -295 825q-102 -121 -229 -247v-578h-127zM406 1649l258 334l106 -80l-276 -320z" />
<glyph unicode="&#x40d;" d="M131 0v1505h127v-1302l451 1302h184v-1505h-127v1303l-451 -1303h-184zM254 1903l106 80l258 -334l-88 -66z" />
<glyph unicode="&#x40e;" d="M131 1430v75h127v-75q0 -100 64 -283l188 -545l192 545q63 180 64 283v75h127v-75q0 -121 -72 -322l-329 -942q-16 -49 -19 -152v-14h-127v14q0 119 25 191l75 217l-243 686q-72 199 -72 322zM203 1944h127q0 -76 30 -127q23 -41 61 -63.5t91 -22.5t91 22.5t61 63.5 q31 51 30 127h127q0 -109 -43 -187q-37 -66 -102 -100q-70 -39 -165 -40t-163 40q-63 37 -102 100q-45 76 -43 187z" />
<glyph unicode="&#x40f;" d="M131 0v1505h127v-1390h508v1390h127v-1505h-318v-420h-126v420h-318z" />
<glyph unicode="&#x410;" d="M131 0v152q0 410 318 1353h126q317 -944 318 -1353v-152h-127v152q0 117 -27 276h-454q-25 -162 -27 -276v-152h-127zM305 543h414q-61 319 -207 788q-146 -469 -207 -788z" />
<glyph unicode="&#x411;" d="M131 0v1505h686v-114h-559v-506h148q176 0 299 -70q98 -55 149 -147q55 -94 55 -224.5t-55 -224.5q-53 -92 -149 -149q-121 -70 -299 -70h-275zM258 115h148q133 0 223 53q72 41 112 108q41 70 41 166.5t-41 165.5q-39 68 -112 111q-90 53 -223 51h-148v-655z" />
<glyph unicode="&#x412;" d="M131 0v1505h346q113 0 195 -47q74 -43 119 -121q53 -92 53 -219q0 -117 -47 -198q-43 -74 -117 -117q-16 -8 -31 -17q143 -45 211 -165q49 -84 49 -203q0 -129 -55 -223q-49 -86 -135 -138q-100 -57 -242 -57h-346zM258 115h219q141 0 223 83t82 222q0 98 -41 168 q-37 61 -96 96q-70 41 -168 41h-219v-610zM258 840h219q137 0 201 112q39 68 39 164t-39 164q-63 111 -201 111h-219v-551z" />
<glyph unicode="&#x413;" d="M197 0v1505h712v-114h-585v-1391h-127z" />
<glyph unicode="&#x414;" d="M92 115h37l21 116q90 483 90 1129v145h614v-1390h39v-416h-127v301h-545v-301h-129v416zM258 115h469v1276h-360v-31q0 -655 -93 -1151z" />
<glyph unicode="&#x415;" d="M197 0v1505h696v-114h-569v-521h454v-114h-454v-641h569v-115h-696z" />
<glyph unicode="&#x416;" d="M66 0l180 754l-180 751h127l165 -694h91v694h126v-694h91l165 694h127l-180 -751l180 -754h-127l-165 696h-91v-696h-126v696h-91l-165 -696h-127z" />
<glyph unicode="&#x417;" d="M104 317l125 25q8 -61 37 -111q35 -61 96 -96q63 -37 149.5 -37t150.5 37q59 35 94 94q43 74 43 185q0 106 -43 180q-76 131 -244 131h-115v115h115q147 0 215 116q39 68 39 166q0 100 -39 168q-33 55 -84 86q-55 31 -130 31t-128 -30.5t-84 -86t-39 -121.5l-125 19 q8 88 51 162q45 80 123 123q84 49 202 49t204 -49q78 -45 123 -125q53 -92 53 -224q0 -117 -47 -198q-43 -76 -121 -121q-20 -12 -43 -21q35 -12 63 -28q82 -47 129 -129q51 -90 52 -215q0 -139 -58 -240q-49 -86 -133 -135q-92 -53 -222 -53t-224 53q-84 49 -133 135 q-40 67 -52 145z" />
<glyph unicode="&#x418;" d="M131 0v1505h127v-1302l451 1302h184v-1505h-127v1303l-451 -1303h-184z" />
<glyph unicode="&#x419;" d="M131 0v1505h127v-1302l451 1302h184v-1505h-127v1303l-451 -1303h-184zM203 1944h127q0 -76 30 -127q23 -41 61 -63.5t91 -22.5t91 22.5t61 63.5q31 51 30 127h127q0 -109 -43 -187q-37 -66 -102 -100q-70 -39 -165 -40t-163 40q-63 37 -102 100q-45 76 -43 187z" />
<glyph unicode="&#x41a;" d="M131 0v1505h127v-753q281 295 420 536q80 139 82 217h133q0 -88 -92 -248q-88 -154 -226 -325q334 -696 334 -932h-127q0 213 -295 825q-102 -121 -229 -247v-578h-127z" />
<glyph unicode="&#x41b;" d="M98 0v115q31 0 54 22q35 35 36 166v55l37 1147h629v-1505h-127v1391h-377l-35 -1037q-6 -203 -45 -268q-25 -41 -59 -61q-41 -25 -113 -25z" />
<glyph unicode="&#x41c;" d="M131 0v1505h170l211 -823l211 823h170v-1505h-127v301q0 193 4 506q4 262 4 440l-203 -796h-118l-203 796q0 -100 2 -248q6 -510 6 -698v-301h-127z" />
<glyph unicode="&#x41d;" d="M131 0v1505h127v-657h508v657h127v-1505h-127v733h-508v-733h-127z" />
<glyph unicode="&#x41e;" d="M115 399v707q0 137 55 235q47 82 131 129q88 51 211 51.5t211 -51.5q82 -47 131 -129q55 -98 55 -235v-707q0 -137 -55 -235q-47 -82 -131 -129q-88 -51 -211 -51t-211 51q-82 47 -131 129q-55 98 -55 235zM242 399q0 -104 43 -176q33 -59 88 -92q57 -33 138 -33t140 33 q55 33 88 92q41 72 43 176v707q0 104 -43 176q-33 59 -88 92q-59 33 -139 33t-139 -33q-55 -33 -88 -92q-41 -72 -43 -176v-707z" />
<glyph unicode="&#x41f;" d="M131 0v1505h762v-1505h-127v1391h-508v-1391h-127z" />
<glyph unicode="&#x420;" d="M164 0v1505h344q123 0 213 -51q82 -47 131 -133q57 -100 57 -242.5t-57 -242.5q-49 -84 -131 -131q-90 -51 -213 -54h-217v-651h-127zM291 766h217q156 0 231 127q43 76 43 185.5t-43 185.5q-74 127 -231 127h-217v-625z" />
<glyph unicode="&#x421;" d="M115 399v707q0 137 57 235q47 82 127 129q88 51 212 51.5t212 -51.5q82 -47 129 -129q41 -70 51 -153l-125 -23q-8 66 -39 117q-35 57 -90 90q-59 33 -138 34t-138 -32q-55 -33 -88 -92q-43 -74 -43 -176v-707q0 -104 43 -176q33 -57 88 -92q57 -33 138 -33t138 33 q55 33 90 92q31 53 39 117l125 -23q-10 -84 -51 -153q-47 -82 -129 -129q-88 -51 -211 -51t-213 51q-82 47 -127 129q-57 98 -57 235z" />
<glyph unicode="&#x422;" d="M131 1391v114h762v-114h-318v-1391h-126v1391h-318z" />
<glyph unicode="&#x423;" d="M131 1430v75h127v-75q0 -100 64 -283l188 -545l192 545q63 180 64 283v75h127v-75q0 -121 -72 -322l-329 -942q-16 -49 -19 -152v-14h-127v14q0 119 25 191l75 217l-243 686q-72 199 -72 322z" />
<glyph unicode="&#x424;" d="M115 588v330q0 137 55 235q47 82 131 129q63 37 148 47v176h126v-176q84 -10 148 -47q82 -47 131 -129q55 -98 55 -235v-330q0 -137 -55 -236q-47 -82 -131 -129q-66 -37 -148 -47v-176h-126v176q-84 10 -148 47q-82 47 -131 129q-55 99 -55 236zM242 588q0 -104 43 -176 q33 -59 88 -93q35 -18 76 -26v919q-41 -8 -76 -26q-55 -33 -88 -92q-41 -72 -43 -176v-330zM575 293q41 8 76 26q55 33 88 93q41 72 43 176v330q0 104 -43 176q-33 59 -88 92q-35 18 -76 26v-919z" />
<glyph unicode="&#x425;" d="M131 0v76q0 182 107 366q14 25 30 50l170 262l-170 260q-16 25 -30 49q-106 186 -107 367v75h127v-75q0 -174 117 -353l137 -211l137 211q117 180 117 353v75h127v-75q0 -182 -107 -367q-14 -25 -30 -49l-170 -260l170 -262q16 -25 30 -50q106 -186 107 -366v-76h-127v76 q0 174 -117 352l-137 211l-137 -211q-117 -180 -117 -352v-76h-127z" />
<glyph unicode="&#x426;" d="M131 0v1505h127v-1390h508v1390h127v-1390h68v-416h-130v301h-700z" />
<glyph unicode="&#x427;" d="M131 868v637h127v-637q0 -98 41 -168q68 -117 213 -116h254v921h127v-1505h-127v469h-254q-119 0 -205 49q-78 45 -123 125q-53 94 -53 225z" />
<glyph unicode="&#x428;" d="M131 0v1505h127v-1390h191v1390h126v-1390h191v1390h127v-1505h-762z" />
<glyph unicode="&#x429;" d="M131 0v1505h127v-1390h191v1390h126v-1390h191v1390h127v-1390h68v-416h-130v301h-700z" />
<glyph unicode="&#x42a;" d="M78 1391v114h256v-620h96q162 0 277 -66q94 -55 145 -145q57 -98 57 -231.5t-57 -231.5q-53 -92 -145 -145q-113 -66 -277 -66h-223v1391h-129zM334 115h96q119 0 201 47q70 41 108 108q41 72 42 172.5t-42 171.5q-39 68 -108 109q-82 47 -201 47h-96v-655z" />
<glyph unicode="&#x42b;" d="M115 0v1505h127v-620h12q137 0 235 -56q88 -51 140 -139q59 -102 58 -246.5t-58 -246.5q-51 -88 -140 -142q-98 -55 -235 -55h-139zM242 115h12q92 0 160 39q63 37 100 100q45 78 45 188.5t-45 188.5q-37 66 -100 100q-68 39 -160 39h-12v-655zM782 0v1505h127v-1505 h-127z" />
<glyph unicode="&#x42c;" d="M131 0v1505h127v-620h148q176 0 299 -70q98 -55 149 -147q55 -94 55 -224.5t-55 -224.5q-53 -92 -149 -149q-121 -70 -299 -70h-275zM258 115h148q133 0 223 53q72 41 112 108q41 70 41 166.5t-41 165.5q-39 68 -112 111q-90 53 -223 51h-148v-655z" />
<glyph unicode="&#x42d;" d="M121 317l125 23q8 -66 39 -117q35 -59 90 -92q59 -33 138 -33t138 33q55 33 88 92q43 74 43 176v297h-460v115h460v295q0 104 -43 176q-33 57 -88 92q-57 33 -139 33q-80 -2 -137 -35q-55 -33 -90 -90q-31 -53 -39 -117l-125 23q10 84 51 153q47 82 129 129 q88 51 211 51.5t213 -51.5q82 -47 127 -129q57 -98 57 -235v-707q0 -137 -57 -235q-47 -82 -127 -129q-88 -51 -212 -51t-212 51q-82 47 -129 129q-41 69 -51 153z" />
<glyph unicode="&#x42e;" d="M115 0v1505h127v-694h100v375q0 119 47 200q37 63 98 101q61 35 146.5 35t147 -35t98.5 -101q47 -82 47 -200v-867q0 -119 -47 -200q-37 -63 -99 -101q-61 -35 -146 -34.5t-146.5 35t-98.5 100.5q-47 82 -47 200v377h-100v-696h-127zM469 319q0 -86 33 -143 q23 -39 57 -59q33 -18 75 -18.5t75 18.5q35 20 57 59q33 57 33 143v867q0 86 -33 143q-23 39 -57 60q-33 18 -75 18t-75 -18q-35 -20 -57 -60q-33 -57 -33 -143v-867z" />
<glyph unicode="&#x42f;" d="M115 0q0 197 151 457q57 100 135 209q-53 12 -98 39q-82 47 -131 131q-57 100 -57 243.5t57 241.5q49 84 131 133q90 51 213 51h344v-1505h-127v651h-188q-102 -131 -170 -250q-133 -229 -133 -401h-127zM242 1078.5q0 -109.5 43 -185.5q74 -127 231 -127h217v625h-217 q-156 0 -231 -127q-43 -76 -43 -185.5z" />
<glyph unicode="&#x430;" d="M115 297q0 90 37 158q41 70 120 114q111 63 279 64h215v106q0 78 -33 133q-29 51 -80 80q-61 35 -147 35q-90 0 -152 -37q-49 -29 -78 -78q-23 -39 -26 -81l-123 28q8 59 37 113q43 74 117 117q92 53 225 53q129 0 221 -53q76 -45 119 -117q47 -82 47 -193v-739h-127v162 q-47 -82 -129 -127q-88 -51 -203 -51q-104 0 -176 41q-63 37 -102 102q-41 72 -41 170zM242 299q0 -115 94 -170q53 -31 131 -31q92 0 162 39q61 35 96 99q41 72 41 170v112h-215q-125 0 -205 -45q-53 -31 -80 -78q-24 -41 -24 -96z" />
<glyph unicode="&#x431;" d="M115 451v305q0 319 78 456q47 80 118 121q47 27 152 56q188 51 366 116l43 -108q-182 -68 -374 -117q-82 -20 -117 -43q-51 -31 -86 -88q-43 -78 -53 -236q45 78 116 119q66 39 158 39q115 0 203 -51q82 -47 131 -133q59 -104 59 -252v-184q0 -168 -65 -283 q-51 -88 -135 -136t-197 -48t-197 48t-135 136q-65 115 -65 283zM242 451q0 -135 51 -226q37 -63 94 -96q53 -31 125 -31t125 31q57 33 94 96q51 90 51 226v184q0 117 -45 194q-35 61 -92 95q-55 33 -131 32.5t-133 -34t-94 -93.5q-45 -78 -45 -194v-184z" />
<glyph unicode="&#x432;" d="M131 0v1085h436q86 0 148 -36q55 -33 90 -91q39 -68 39 -159q0 -82 -33 -139.5t-92 -90.5q31 -10 59 -24q63 -37 99 -96q33 -57 32 -140q0 -90 -39 -159q-37 -63 -104 -103q-82 -47 -199 -47h-436zM258 115h309q74 0 125 28q41 25 66 66q25 43 24.5 102.5t-25 100.5 t-65.5 65q-51 29 -125 31h-309v-393zM258 623h309q84 0 125 69q25 43 25 104.5t-25 104.5q-41 70 -125 70h-309v-348z" />
<glyph unicode="&#x433;" d="M197 0v1085h712v-114h-585v-971h-127z" />
<glyph unicode="&#x434;" d="M92 115h39l21 73q88 340 88 795v102h614v-970h39v-416h-127v301h-545v-301h-129v416zM262 115h465v856h-360q-2 -463 -93 -813z" />
<glyph unicode="&#x435;" d="M115 451v184q0 168 65 283q51 88 135 136t197 48t197 -48t135 -136q66 -115 65 -283v-150h-667v-34q0 -131 51 -220q37 -66 96 -100q57 -33 137 -33q78 0 137.5 35t98.5 100q20 37 33 80l116 -47q-14 -49 -41 -92q-51 -90 -137 -139q-88 -51 -207.5 -51t-208.5 51 q-86 49 -137 139q-65 113 -65 277zM242 600h540v35q0 135 -51 225q-37 63 -94 96q-53 31 -125 31t-125 -31q-57 -33 -94 -96q-51 -90 -51 -225v-35z" />
<glyph unicode="&#x436;" d="M66 0l180 543l-180 542h127l161 -485h95v485h126v-485h95l161 485h127l-180 -542l180 -543h-127l-161 485h-95v-485h-126v485h-95l-161 -485h-127z" />
<glyph unicode="&#x437;" d="M104 225l119 41q6 -18 17 -35q33 -59 92 -92q70 -41 178 -41q117 0 192 43q49 29 74 72q23 39 23 90t-23 90q-25 43 -76 72q-74 43 -188 43h-115v115h115q102 0 166 36q45 25 67 64q20 35 20.5 82t-20.5 82q-23 37 -65 63q-66 37 -168 37q-94 0 -154 -35q-49 -29 -79 -80 q-14 -23 -21 -47l-121 35q10 37 31 72q43 74 117 117q90 53 227 53q143 0 242 -55q70 -41 104 -103q35 -59 35 -139q0 -68 -29 -117q-33 -57 -98 -96q-27 -16 -57 -27q43 -14 79 -35q72 -41 107 -102q31 -55 31 -127q0 -84 -37 -147q-39 -68 -113 -109q-104 -61 -266 -61 q-152 0 -250 57q-84 49 -131 131q-15 26 -25 53z" />
<glyph unicode="&#x438;" d="M131 0v1085h127v-940l451 940h184v-1085h-127v940l-451 -940h-184z" />
<glyph unicode="&#x439;" d="M131 0v1085h127v-940l451 940h184v-1085h-127v940l-451 -940h-184zM203 1524h127q0 -76 30 -127q23 -41 61 -63.5t91 -22.5t91 22.5t61 63.5q31 51 30 127h127q0 -109 -43 -187q-37 -66 -102 -100q-70 -39 -165 -40t-163 40q-63 37 -102 100q-45 76 -43 187z" />
<glyph unicode="&#x43a;" d="M131 0v1085h127v-524q371 270 475 451q25 45 27 73h133q0 -37 -33 -94q-80 -137 -280 -317q94 -143 163 -264q166 -289 166 -410h-127q0 102 -135 336q-68 117 -162 256q-100 -84 -227 -176v-416h-127z" />
<glyph unicode="&#x43b;" d="M98 0v115q31 0 54 22q33 33 34 156q0 43 2 65l37 727h629v-1085h-127v971h-379l-33 -619q-10 -207 -47 -268q-23 -41 -57 -61q-41 -23 -113 -23z" />
<glyph unicode="&#x43c;" d="M131 0v1085h170l211 -593l211 593h170v-1085h-127v217q0 133 4 385t4 297l-203 -573h-118l-203 573q0 -45 4 -297t4 -385v-217h-127z" />
<glyph unicode="&#x43d;" d="M131 0v1085h127v-458h508v458h127v-1085h-127v512h-508v-512h-127z" />
<glyph unicode="&#x43e;" d="M115 451v184q0 168 65 283q51 88 135 136t197 48t197 -48t135 -136q66 -115 65 -283v-184q0 -168 -65 -283q-51 -88 -135 -136t-197 -48t-197 48t-135 136q-65 115 -65 283zM242 451q0 -135 51 -226q37 -63 94 -96q53 -31 125 -31t125 31q57 33 94 96q51 90 51 226v184 q0 135 -51 225q-37 63 -94 96q-53 31 -125 31t-125 -31q-57 -33 -94 -96q-51 -90 -51 -225v-184z" />
<glyph unicode="&#x43f;" d="M113 971v114h798v-114h-57v-971h-127v971h-430v-971h-127v971h-57z" />
<glyph unicode="&#x440;" d="M131 -420v1505h127v-165q4 10 10 18q47 82 121 125q68 39 158 39q96 0 168 -41q76 -45 127 -129q68 -119 67 -297v-184q0 -178 -67 -297q-49 -84 -127 -129q-72 -41 -168 -41q-90 0 -158 39q-74 43 -121 124q-6 8 -10 19v-586h-127zM258 451q0 -141 53 -232 q35 -61 88 -92q49 -29 115 -29q70 0 123 31q57 33 94 96q51 90 51 226v184q0 135 -51 225q-37 63 -94 96q-53 31 -123 31q-66 0 -115 -29q-53 -31 -88 -92q-53 -90 -53 -231v-184z" />
<glyph unicode="&#x441;" d="M115 451v184q0 166 65 280q51 88 135 137.5t199 49.5t201 -49q84 -49 135 -138q39 -68 53 -147l-121 -37q-12 70 -45 127q-37 63 -94 98q-55 31 -129 31q-72 0 -127 -31q-57 -33 -94 -98q-51 -90 -51 -223v-184q0 -135 51 -224q37 -63 94 -98q55 -31 127 -31q74 0 129 31 q57 33 94 98q33 55 45 127l121 -37q-14 -80 -53 -147q-51 -88 -135 -137t-200 -49t-200 49t-135 137q-65 115 -65 281z" />
<glyph unicode="&#x442;" d="M131 971v114h762v-114h-318v-971h-126v971h-318z" />
<glyph unicode="&#x443;" d="M131 1010v75h127v-75q0 -100 64 -283l188 -545l192 545q63 180 64 283v75h127v-75q0 -121 -72 -322l-329 -942q-16 -49 -19 -152v-14h-127v14q0 119 25 191l75 217l-243 686q-72 199 -72 322z" />
<glyph unicode="&#x444;" d="M115 451v184q0 168 65 283q51 88 135 135q59 35 134 45v407h126v-407q74 -10 134 -45q84 -47 135 -135q66 -115 65 -283v-184q0 -168 -65 -283q-51 -88 -135 -135q-59 -35 -134 -45v-408h-126v408q-74 10 -134 45q-84 47 -135 135q-65 115 -65 283zM242 451 q0 -135 51 -226q37 -63 94 -96q29 -16 62 -25v877q-33 -8 -62 -25q-57 -33 -94 -96q-51 -90 -51 -225v-184zM575 104q33 8 62 25q57 33 94 96q51 90 51 226v184q0 135 -51 225q-37 63 -94 96q-29 16 -62 25v-877z" />
<glyph unicode="&#x445;" d="M131 0v10q0 59 72 185q35 59 67 106l166 242l-166 241q-33 47 -67 107q-72 123 -72 184v10h127v-10q0 -57 117 -225l137 -199l137 199q115 166 117 225v10h127v-10q0 -59 -72 -184q-35 -59 -67 -107l-166 -241l166 -242q33 -47 67 -106q72 -123 72 -185v-10h-127v10 q0 57 -117 226l-137 198l-137 -198q-115 -166 -117 -226v-10h-127z" />
<glyph unicode="&#x446;" d="M131 0v1085h127v-970h508v970h127v-970h68v-416h-130v301h-700z" />
<glyph unicode="&#x447;" d="M131 776v309h127v-309q0 -98 41 -168q68 -117 213 -116h254v593h127v-1085h-127v377h-254q-119 0 -205 49q-78 45 -123 125q-53 94 -53 225z" />
<glyph unicode="&#x448;" d="M131 0v1085h127v-970h191v970h126v-970h191v970h127v-1085h-762z" />
<glyph unicode="&#x449;" d="M131 0v1085h127v-970h191v970h126v-970h191v970h127v-970h68v-416h-130v301h-700z" />
<glyph unicode="&#x44a;" d="M78 971v114h256v-430h217q123 0 207 -49q70 -41 110 -108q41 -72 41 -170.5t-41 -169.5q-39 -68 -110 -109q-84 -49 -207 -49h-344v971h-129zM334 115h217q78 0 133 30q45 27 72 72q27 47 26.5 110.5t-26.5 110.5q-25 43 -72 70q-55 33 -133 33h-217v-426z" />
<glyph unicode="&#x44b;" d="M115 0v1085h127v-430h120q102 0 179 -43q66 -39 102 -104q43 -76 43 -181.5t-43 -181.5q-39 -66 -102 -102q-74 -43 -179 -43h-247zM242 115h120q59 0 103 24q41 23 65 66q29 51 29 122.5t-29 123.5q-25 41 -65 63q-43 27 -103 27h-120v-426zM782 0v1085h127v-1085h-127z " />
<glyph unicode="&#x44c;" d="M131 0v1085h127v-430h274q133 0 226 -53q72 -41 110 -110q41 -70 41 -165.5t-41 -164.5q-39 -68 -110 -109q-92 -53 -226 -53h-401zM258 115h274q88 0 150 35q47 27 73.5 71.5t26.5 105t-26.5 105.5t-73.5 72q-61 37 -150 37h-274v-426z" />
<glyph unicode="&#x44d;" d="M121 317l121 37q12 -70 45 -127q37 -63 94 -98q55 -31 129 -31q72 0 127 31q57 33 94 98q51 90 51 224v34h-460v115h460v35q0 135 -51 223q-37 63 -94 98q-55 31 -127 31q-74 0 -129 -31q-57 -33 -94 -98q-33 -55 -45 -127l-121 37q14 80 53 147q51 88 135 137.5 t200 49.5t200 -49t135 -138q66 -115 65 -280v-184q0 -166 -65 -281q-51 -88 -135 -137t-199 -49t-201 49q-84 49 -135 137q-39 67 -53 147z" />
<glyph unicode="&#x44e;" d="M115 0v1085h127v-485h100v125q0 143 55 240q39 68 101 104q57 33 135 33t137 -33q61 -35 100 -104q55 -94 56 -240v-365q0 -143 -56 -239q-39 -68 -100 -105q-57 -33 -135 -32.5t-137 32.5q-61 35 -101 105q-55 94 -55 239v125h-100v-485h-127zM469 360q0 -115 41 -184 q25 -41 59 -61q29 -16 66 -16.5t65 16.5q35 20 58 61q41 70 41 184v365q0 115 -41 184q-25 41 -58 62q-29 16 -66.5 16t-64.5 -16q-35 -20 -59 -62q-41 -70 -41 -184v-365z" />
<glyph unicode="&#x44f;" d="M115 0q0 92 63.5 202.5t190.5 237.5q-61 8 -111 37q-61 37 -100 101q-43 76 -43 183t43 183q37 66 100 100q70 41 164 41h438v-1085h-127v438h-194q-172 -152 -246 -278q-51 -88 -51 -160h-127zM243 762q-1 -74 29 -125q49 -84 150 -84h311v418h-311q-102 0 -150 -84 q-28 -51 -29 -125z" />
<glyph unicode="&#x450;" d="M115 451v184q0 168 65 283q51 88 135 136t197 48t197 -48t135 -136q66 -115 65 -283v-150h-667v-34q0 -131 51 -220q37 -66 96 -100q57 -33 137 -33q78 0 137.5 35t98.5 100q20 37 33 80l116 -47q-14 -49 -41 -92q-51 -90 -137 -139q-88 -51 -207.5 -51t-208.5 51 q-86 49 -137 139q-65 113 -65 277zM242 600h540v35q0 135 -51 225q-37 63 -94 96q-53 31 -125 31t-125 -31q-57 -33 -94 -96q-51 -90 -51 -225v-35zM254 1483l106 80l258 -334l-88 -66z" />
<glyph unicode="&#x451;" d="M115 451v184q0 168 65 283q51 88 135 136t197 48t197 -48t135 -136q66 -115 65 -283v-150h-667v-34q0 -131 51 -220q37 -66 96 -100q57 -33 137 -33q78 0 137.5 35t98.5 100q20 37 33 80l116 -47q-14 -49 -41 -92q-51 -90 -137 -139q-88 -51 -207.5 -51t-208.5 51 q-86 49 -137 139q-65 113 -65 277zM205 1403q0 47 27.5 74.5t74.5 27.5t74.5 -27.5t27.5 -74.5t-27.5 -75t-74.5 -28t-74.5 28t-27.5 75zM242 600h540v35q0 135 -51 225q-37 63 -94 96q-53 31 -125 31t-125 -31q-57 -33 -94 -96q-51 -90 -51 -225v-35zM615 1403 q0 47 27.5 74.5t74.5 27.5t74.5 -27.5t27.5 -74.5t-27.5 -75t-74.5 -28t-74.5 28t-27.5 75z" />
<glyph unicode="&#x452;" d="M39 1217v114h92v174h127v-174h254v-114h-254v-297q4 10 10 18q47 82 121 125q68 39 157 39t156 -39q74 -43 121 -125q70 -119 70 -303v-635q0 -106 -47 -186q-45 -78 -127 -125q-109 -63 -270 -64v115q117 0 194 45q59 35 90 88q31 55 33 127v635q0 141 -53 231 q-35 61 -88 92q-49 29 -112.5 29t-113.5 -29q-53 -31 -88 -92q-53 -90 -53 -231v-635h-127v1217h-92z" />
<glyph unicode="&#x453;" d="M197 0v1085h712v-114h-585v-971h-127zM406 1229l258 334l106 -80l-276 -320z" />
<glyph unicode="&#x454;" d="M115 451v184q0 166 65 280q51 88 135 137.5t199 49.5t201 -49q84 -49 135 -138q39 -68 53 -147l-121 -37q-12 70 -45 127q-37 63 -94 98q-55 31 -129 31q-72 0 -127 -31q-57 -33 -94 -98q-51 -90 -51 -223v-35h460v-115h-460v-34q0 -135 51 -224q37 -63 94 -98 q55 -31 127 -31q74 0 129 31q57 33 94 98q33 55 45 127l121 -37q-14 -80 -53 -147q-51 -88 -135 -137t-200 -49t-200 49t-135 137q-65 115 -65 281z" />
<glyph unicode="&#x455;" d="M125 225l121 37q6 -25 20 -45q31 -51 80 -82q63 -37 162 -37q106 0 174 39q45 25 66 64q20 35 20 80t-23 84q-25 43 -71 69q-53 31 -172 45q-147 18 -219 62q-72 41 -113 112q-41 70 -41 152q0 78 35 137q35 61 104 102q98 57 248 58q141 0 234 -53q76 -43 120 -121 q18 -33 29 -68l-121 -37q-16 51 -55 92q-20 20 -45 35q-63 37 -162 37q-106 0 -174 -39q-45 -25 -66 -63q-20 -35 -20 -80t23 -84q25 -43 71 -70q53 -31 172 -45q147 -18 219 -61q72 -41 113 -113q41 -70 41 -151q0 -78 -35 -138q-35 -61 -104 -102q-98 -57 -248 -57 q-141 0 -234 53q-76 43 -120 121q-19 32 -29 67z" />
<glyph unicode="&#x456;" d="M154 0v115h309v856h-281v114h408v-970h280v-115h-716zM410 1403q0 47 27.5 74.5t74.5 27.5t74.5 -27.5t27.5 -74.5t-27.5 -75t-74.5 -28t-74.5 28t-27.5 75z" />
<glyph unicode="&#x457;" d="M154 0v115h309v856h-281v114h408v-970h280v-115h-716zM205 1403q0 47 27.5 74.5t74.5 27.5t74.5 -27.5t27.5 -74.5t-27.5 -75t-74.5 -28t-74.5 28t-27.5 75zM615 1403q0 47 27.5 74.5t74.5 27.5t74.5 -27.5t27.5 -74.5t-27.5 -75t-74.5 -28t-74.5 28t-27.5 75z" />
<glyph unicode="&#x458;" d="M45 -143l119 39q10 -66 41 -117t74 -78q39 -23 90 -23t90 23q43 25 73 76q45 78 46 203v991h-295v114h422v-1105q0 -156 -60 -259q-45 -76 -115 -118q-68 -39 -159.5 -39t-161.5 39q-70 41 -115 118q-35 62 -49 136zM519 1403q0 47 27.5 74.5t74.5 27.5t74.5 -27.5 t27.5 -74.5t-27.5 -75t-74.5 -28t-74.5 28t-27.5 75z" />
<glyph unicode="&#x459;" d="M66 0v115q29 0 49 20q33 33 35 152v71l38 727h387v-430h54q88 0 153 -39q61 -35 99 -98q45 -78 45 -190.5t-45 -190.5q-37 -63 -99 -100q-63 -37 -153 -37h-180v971h-140l-33 -619q-10 -211 -45 -270q-23 -39 -57 -59q-38 -23 -108 -23zM575 115h54q45 0 79.5 20.5 t59.5 59.5q31 53 31 133t-31 133q-23 39 -59 59q-35 20 -80 21h-54v-426z" />
<glyph unicode="&#x45a;" d="M131 0v1085h127v-485h191v485h126v-430h54q88 0 153 -39q61 -35 99 -98q45 -78 45 -190.5t-45 -190.5q-37 -63 -99 -100q-63 -37 -153 -37h-180v485h-191v-485h-127zM575 115h54q45 0 79.5 20.5t59.5 59.5q31 53 31 133t-31 133q-23 39 -59 59q-35 20 -80 21h-54v-426z " />
<glyph unicode="&#x45b;" d="M39 1217v114h92v174h127v-174h254v-114h-254v-297q4 10 10 18q47 82 121 125q68 39 157 39t156 -39q74 -43 121 -125q70 -119 70 -303v-635h-127v635q0 141 -53 231q-35 61 -88 92q-49 29 -112.5 29t-113.5 -29q-53 -31 -88 -92q-53 -90 -53 -231v-635h-127v1217h-92z " />
<glyph unicode="&#x45c;" d="M131 0v1085h127v-524q371 270 475 451q25 45 27 73h133q0 -37 -33 -94q-80 -137 -280 -317q94 -143 163 -264q166 -289 166 -410h-127q0 102 -135 336q-68 117 -162 256q-100 -84 -227 -176v-416h-127zM406 1229l258 334l106 -80l-276 -320z" />
<glyph unicode="&#x45d;" d="M131 0v1085h127v-940l451 940h184v-1085h-127v940l-451 -940h-184zM254 1483l106 80l258 -334l-88 -66z" />
<glyph unicode="&#x45e;" d="M131 1010v75h127v-75q0 -100 64 -283l188 -545l192 545q63 180 64 283v75h127v-75q0 -121 -72 -322l-329 -942q-16 -49 -19 -152v-14h-127v14q0 119 25 191l75 217l-243 686q-72 199 -72 322zM203 1524h127q0 -76 30 -127q23 -41 61 -63.5t91 -22.5t91 22.5t61 63.5 q31 51 30 127h127q0 -109 -43 -187q-37 -66 -102 -100q-70 -39 -165 -40t-163 40q-63 37 -102 100q-45 76 -43 187z" />
<glyph unicode="&#x45f;" d="M131 0v1085h127v-970h508v970h127v-1085h-318v-420h-126v420h-318z" />
<glyph unicode="&#x466;" d="M131 0v152q0 410 318 1353h126q317 -944 318 -1353v-152h-127v152q0 188 -66 487h-125v-639h-126v639h-125q-66 -299 -66 -487v-152h-127zM350 754h324q-61 254 -162 577q-101 -323 -162 -577z" />
<glyph unicode="&#x467;" d="M131 0v109q0 295 318 976h126q317 -682 318 -976v-109h-127v109q0 125 -57 319h-134v-428h-126v428h-134q-57 -195 -57 -319v-109h-127zM352 543h320q-61 180 -160 407q-99 -227 -160 -407z" />
<glyph unicode="&#x46a;" d="M66 0l180 866h139l-287 639h828l-287 -639h139l180 -866h-127l-155 752h-101v-752h-126v752h-101l-155 -752h-127zM276 1391l236 -525l236 525h-472z" />
<glyph unicode="&#x46b;" d="M66 0l180 598h139l-287 487h828l-287 -487h139l180 -598h-127l-145 483h-111v-483h-126v483h-111l-145 -483h-127zM293 971l219 -373l219 373h-438z" />
<glyph unicode="&#x474;" d="M131 1356v149h127v-149q0 -369 254 -1182q80 305 137 952q14 166 58 240q37 63 98 98q70 41 205 41v-114q-84 0 -127 -25q-41 -23 -66 -66q-29 -51 -41 -184q-61 -637 -145 -952q-27 -96 -56 -164h-126q-318 946 -318 1356z" />
<glyph unicode="&#x475;" d="M131 977v108h127v-108q0 -264 258 -850q80 186 135 600q20 152 60 219q37 63 98 101q70 39 201 38v-114q-80 0 -123 -25q-39 -23 -66 -63q-27 -47 -43 -160q-82 -545 -203 -723h-126q-318 682 -318 977z" />
<glyph unicode="&#x476;" d="M80 1903l106 80l258 -334l-88 -66zM131 1356v149h127v-149q0 -369 254 -1182q80 305 137 952q14 166 58 240q37 63 98 98q70 41 205 41v-114q-84 0 -127 -25q-41 -23 -66 -66q-29 -51 -41 -184q-61 -637 -145 -952q-27 -96 -56 -164h-126q-318 946 -318 1356zM428 1903 l106 80l258 -334l-88 -66z" />
<glyph unicode="&#x477;" d="M80 1483l106 80l258 -334l-88 -66zM131 977v108h127v-108q0 -264 258 -850q80 186 135 600q20 152 60 219q37 63 98 101q70 39 201 38v-114q-80 0 -123 -25q-39 -23 -66 -63q-27 -47 -43 -160q-82 -545 -203 -723h-126q-318 682 -318 977zM428 1483l106 80l258 -334 l-88 -66z" />
<glyph unicode="&#x478;" d="M31 399v707q0 178 53 289q33 68 82 98q41 29 94 29t92 -29q47 -33 82 -98q53 -111 53 -289v-707q0 -178 -53 -288q-33 -68 -82 -99q-41 -29 -93 -28.5t-93 28.5q-47 33 -82 99q-53 110 -53 288zM139 399q0 -156 41 -237q18 -37 39 -51q18 -12 40 -12.5t40 12.5 q23 16 41 51q41 82 39 237v707q0 156 -39 237q-18 37 -41 52q-18 12 -39.5 12t-40.5 -12q-23 -16 -39 -52q-41 -82 -41 -237v-707zM551 1010v75h106v-75q0 -102 35 -291l72 -383l72 383q35 184 34 291v75h109v-75q0 -117 -37 -316l-178 -942q-10 -53 -10 -158v-14h-109v14 q0 117 12 183l54 280l-123 637q-37 193 -37 316z" />
<glyph unicode="&#x479;" d="M31 451v184q0 215 61 340q33 70 82 100q37 27 85 27t87 -27q47 -33 80 -100q61 -127 61 -340v-184q0 -215 -61 -340q-33 -70 -80 -101q-37 -27 -86 -26.5t-86 26.5q-47 33 -82 101q-61 127 -61 340zM139 451q0 -197 47 -291q18 -35 37 -51q16 -10 36 -10.5t36 10.5 q20 14 39 51q47 94 45 291v184q0 197 -45 291q-18 35 -39 51q-16 10 -35.5 10t-36.5 -10q-20 -14 -37 -51q-47 -94 -47 -291v-184zM551 1010v75h106v-75q0 -102 35 -291l72 -383l72 383q35 184 34 291v75h109v-75q0 -117 -37 -316l-178 -942q-10 -53 -10 -158v-14h-109v14 q0 117 12 183l54 280l-123 637q-37 193 -37 316z" />
<glyph unicode="&#x490;" d="M197 0v1505h585v318h127v-432h-585v-1391h-127z" />
<glyph unicode="&#x491;" d="M197 0v1085h585v318h127v-432h-585v-971h-127z" />
<glyph unicode="&#x492;" d="M39 666v114h158v725h712v-114h-585v-611h215v-114h-215v-666h-127v666h-158z" />
<glyph unicode="&#x493;" d="M39 463v115h158v507h712v-114h-585v-393h215v-115h-215v-463h-127v463h-158z" />
<glyph unicode="&#x496;" d="M66 0l180 754l-180 751h127l165 -694h91v694h126v-694h91l165 694h127l-180 -751l154 -639h131v-416h-127v301h-105l-165 696h-91v-696h-126v696h-91l-165 -696h-127z" />
<glyph unicode="&#x497;" d="M66 0l180 543l-180 542h127l161 -485h95v485h126v-485h95l161 485h127l-180 -542l142 -428h143v-416h-127v301h-105l-161 485h-95v-485h-126v485h-95l-161 -485h-127z" />
<glyph unicode="&#x498;" d="M104 317l125 25q8 -61 37 -111q35 -61 96 -96q63 -37 149.5 -37t150.5 37q59 35 94 94q43 74 43 185q0 106 -43 180q-76 131 -244 131h-115v115h115q147 0 215 116q39 68 39 166q0 100 -39 168q-33 55 -84 86q-55 31 -130 31t-128 -30.5t-84 -86t-39 -121.5l-125 19 q8 88 51 162q45 80 123 123q84 49 202 49t204 -49q78 -45 123 -125q53 -92 53 -224q0 -117 -47 -198q-43 -76 -121 -121q-20 -12 -43 -21q35 -12 63 -28q82 -47 129 -129q51 -90 52 -215q0 -139 -58 -240q-49 -86 -133 -135q-92 -53 -222 -53t-224 53q-84 49 -133 135 q-40 67 -52 145zM307 -324h205q49 0 76 27q18 18 18 47t-18 47q-25 25 -76 27h-63v176h126v-68q94 -18 136 -90q23 -39 22.5 -92t-23 -93t-65.5 -65q-53 -31 -133 -30h-205v114z" />
<glyph unicode="&#x499;" d="M104 225l119 41q6 -18 17 -35q33 -59 92 -92q70 -41 178 -41q117 0 192 43q49 29 74 72q23 39 23 90t-23 90q-25 43 -76 72q-74 43 -188 43h-115v115h115q102 0 166 36q45 25 67 64q20 35 20.5 82t-20.5 82q-23 37 -65 63q-66 37 -168 37q-94 0 -154 -35q-49 -29 -79 -80 q-14 -23 -21 -47l-121 35q10 37 31 72q43 74 117 117q90 53 227 53q143 0 242 -55q70 -41 104 -103q35 -59 35 -139q0 -68 -29 -117q-33 -57 -98 -96q-27 -16 -57 -27q43 -14 79 -35q72 -41 107 -102q31 -55 31 -127q0 -84 -37 -147q-39 -68 -113 -109q-104 -61 -266 -61 q-152 0 -250 57q-84 49 -131 131q-15 26 -25 53zM307 -324h205q49 0 76 27q18 18 18 47t-18 47q-25 25 -76 27h-63v176h126v-68q94 -18 136 -90q23 -39 22.5 -92t-23 -93t-65.5 -65q-53 -31 -133 -30h-205v114z" />
<glyph unicode="&#x49a;" d="M131 0v1505h127v-753q281 295 420 536q80 139 82 217h133q0 -88 -92 -248q-88 -154 -226 -325q266 -555 320 -817h119v-416h-127v301h-105q0 213 -295 825q-102 -121 -229 -247v-578h-127z" />
<glyph unicode="&#x49b;" d="M131 0v1085h127v-524q371 270 475 451q25 45 27 73h133q0 -37 -33 -94q-80 -137 -280 -317q94 -143 163 -264q104 -182 144 -299v4h127v-416h-127v301h-105q0 102 -135 336q-68 117 -162 256q-100 -84 -227 -176v-416h-127z" />
<glyph unicode="&#x4a2;" d="M131 0v1505h127v-657h508v657h127v-1390h104v-416h-127v301h-104v733h-508v-733h-127z" />
<glyph unicode="&#x4a3;" d="M131 0v1085h127v-458h508v458h127v-970h104v-416h-127v301h-104v512h-508v-512h-127z" />
<glyph unicode="&#x4aa;" d="M115 399v707q0 137 57 235q47 82 127 129q88 51 212 51.5t212 -51.5q82 -47 129 -129q41 -70 51 -153l-125 -23q-8 66 -39 117q-35 57 -90 90q-59 33 -138 34t-138 -32q-55 -33 -88 -92q-43 -74 -43 -176v-707q0 -104 43 -176q33 -57 88 -92q57 -33 138 -33t138 33 q55 33 90 92q31 53 39 117l125 -23q-10 -84 -51 -153q-47 -82 -129 -129q-88 -51 -211 -51t-213 51q-82 47 -127 129q-57 98 -57 235zM307 -324h205q49 0 76 27q18 18 18 47t-18 47q-25 25 -76 27h-63v176h126v-68q94 -18 136 -90q23 -39 22.5 -92t-23 -93t-65.5 -65 q-53 -31 -133 -30h-205v114z" />
<glyph unicode="&#x4ab;" d="M115 451v184q0 166 65 280q51 88 135 137.5t199 49.5t201 -49q84 -49 135 -138q39 -68 53 -147l-121 -37q-12 70 -45 127q-37 63 -94 98q-55 31 -129 31q-72 0 -127 -31q-57 -33 -94 -98q-51 -90 -51 -223v-184q0 -135 51 -224q37 -63 94 -98q55 -31 127 -31q74 0 129 31 q57 33 94 98q33 55 45 127l121 -37q-14 -80 -53 -147q-51 -88 -135 -137t-200 -49t-200 49t-135 137q-65 115 -65 281zM307 -324h205q49 0 76 27q18 18 18 47t-18 47q-25 25 -76 27h-63v176h126v-68q94 -18 136 -90q23 -39 22.5 -92t-23 -93t-65.5 -65q-53 -31 -133 -30 h-205v114z" />
<glyph unicode="&#x4ac;" d="M131 1391v114h762v-114h-318v-1276h105v-416h-127v301h-104v1391h-318z" />
<glyph unicode="&#x4ad;" d="M131 971v114h762v-114h-318v-856h105v-416h-127v301h-104v971h-318z" />
<glyph unicode="&#x4ae;" d="M131 1415v90h127v-90q0 -215 119 -434l135 -248l135 248q119 219 119 434v90h127v-90q0 -242 -135 -489l-183 -336v-590h-126v590l-183 336q-135 247 -135 489z" />
<glyph unicode="&#x4af;" d="M131 995v90h127v-90q0 -215 119 -434l135 -248l135 248q119 219 119 434v90h127v-90q0 -242 -135 -489l-183 -336v-590h-126v590l-183 336q-135 247 -135 489z" />
<glyph unicode="&#x4b0;" d="M131 1415v90h127v-90q0 -215 119 -434l135 -248l135 248q119 219 119 434v90h127v-90q0 -242 -135 -489l-183 -336v-590h-126v590l-183 336q-135 247 -135 489zM244 544v115h536v-115h-536z" />
<glyph unicode="&#x4b1;" d="M131 995v90h127v-90q0 -215 119 -434l135 -248l135 248q119 219 119 434v90h127v-90q0 -242 -135 -489l-183 -336v-590h-126v590l-183 336q-135 247 -135 489zM244 124v115h536v-115h-536z" />
<glyph unicode="&#x4b2;" d="M131 0v76q0 182 107 366q14 25 30 50l170 262l-170 260q-16 25 -30 49q-106 186 -107 367v75h127v-75q0 -174 117 -353l137 -211l137 211q117 180 117 353v75h127v-75q0 -182 -107 -367q-14 -25 -30 -49l-170 -260l170 -262q16 -25 30 -50q96 -166 105 -327h106v-416 h-127v301h-104v76q0 174 -117 352l-137 211l-137 -211q-117 -180 -117 -352v-76h-127z" />
<glyph unicode="&#x4b3;" d="M131 0v10q0 59 72 185q35 59 67 106l166 242l-166 241q-33 47 -67 107q-72 123 -72 184v10h127v-10q0 -57 117 -225l137 -199l137 199q115 166 117 225v10h127v-10q0 -59 -72 -184q-35 -59 -67 -107l-166 -241l166 -242q33 -47 67 -106q31 -53 49 -97v17h127v-416h-127 v301h-104v10q0 57 -117 226l-137 198l-137 -198q-115 -166 -117 -226v-10h-127z" />
<glyph unicode="&#x4b6;" d="M131 868v637h127v-637q0 -98 41 -168q68 -117 213 -116h254v921h127v-1390h104v-416h-127v301h-104v469h-254q-119 0 -205 49q-78 45 -123 125q-53 94 -53 225z" />
<glyph unicode="&#x4b7;" d="M131 776v309h127v-309q0 -98 41 -168q68 -117 213 -116h254v593h127v-970h104v-416h-127v301h-104v377h-254q-119 0 -205 49q-78 45 -123 125q-53 94 -53 225z" />
<glyph unicode="&#x4b8;" d="M131 868v637h127v-637q0 -98 41 -168q33 -55 82 -84q31 -18 68 -26v235h126v-241h191v921h127v-1505h-127v469h-191v-217h-126v221q-78 10 -142 45q-78 45 -123 125q-53 94 -53 225z" />
<glyph unicode="&#x4b9;" d="M131 776v309h127v-309q0 -98 41 -168q33 -55 82 -84q31 -18 68 -26v180h126v-186h191v593h127v-1085h-127v377h-191v-273h-126v277q-78 10 -142 45q-78 45 -123 125q-53 94 -53 225z" />
<glyph unicode="&#x4ba;" d="M131 0v1505h127v-469h254q119 0 205 -49q78 -45 123 -125q53 -94 53 -225v-637h-127v637q0 98 -41 168q-68 117 -213 117h-254v-922h-127z" />
<glyph unicode="&#x4bb;" d="M131 0v1505h127v-585q4 10 10 18q47 82 121 125q68 39 157 39t156 -39q74 -43 121 -125q70 -119 70 -303v-635h-127v635q0 141 -53 231q-35 61 -88 92q-49 29 -112.5 29t-113.5 -29q-53 -31 -88 -92q-53 -90 -53 -231v-635h-127z" />
<glyph unicode="&#x4c0;" d="M225 0v115h224v1276h-224v114h574v-114h-224v-1276h224v-115h-574z" />
<glyph unicode="&#x4c1;" d="M66 0l180 754l-180 751h127l165 -694h91v694h126v-694h91l165 694h127l-180 -751l180 -754h-127l-165 696h-91v-696h-126v696h-91l-165 -696h-127zM203 1944h127q0 -76 30 -127q23 -41 61 -63.5t91 -22.5t91 22.5t61 63.5q31 51 30 127h127q0 -109 -43 -187 q-37 -66 -102 -100q-70 -39 -165 -40t-163 40q-63 37 -102 100q-45 76 -43 187z" />
<glyph unicode="&#x4c2;" d="M66 0l180 543l-180 542h127l161 -485h95v485h126v-485h95l161 485h127l-180 -542l180 -543h-127l-161 485h-95v-485h-126v485h-95l-161 -485h-127zM203 1524h127q0 -76 30 -127q23 -41 61 -63.5t91 -22.5t91 22.5t61 63.5q31 51 30 127h127q0 -109 -43 -187 q-37 -66 -102 -100q-70 -39 -165 -40t-163 40q-63 37 -102 100q-45 76 -43 187z" />
<glyph unicode="&#x4cf;" d="M154 0v115h309v1276h-281v114h408v-1390h280v-115h-716z" />
<glyph unicode="&#x4d0;" d="M131 0v152q0 410 318 1353h126q317 -944 318 -1353v-152h-127v152q0 117 -27 276h-454q-25 -162 -27 -276v-152h-127zM203 1944h127q0 -76 30 -127q23 -41 61 -63.5t91 -22.5t91 22.5t61 63.5q31 51 30 127h127q0 -109 -43 -187q-37 -66 -102 -100q-70 -39 -165 -40 t-163 40q-63 37 -102 100q-45 76 -43 187zM305 543h414q-61 319 -207 788q-146 -469 -207 -788z" />
<glyph unicode="&#x4d1;" d="M115 297q0 90 37 158q41 70 120 114q111 63 279 64h215v106q0 78 -33 133q-29 51 -80 80q-61 35 -147 35q-90 0 -152 -37q-49 -29 -78 -78q-23 -39 -26 -81l-123 28q8 59 37 113q43 74 117 117q92 53 225 53q129 0 221 -53q76 -45 119 -117q47 -82 47 -193v-739h-127v162 q-47 -82 -129 -127q-88 -51 -203 -51q-104 0 -176 41q-63 37 -102 102q-41 72 -41 170zM203 1524h127q0 -76 30 -127q23 -41 61 -63.5t91 -22.5t91 22.5t61 63.5q31 51 30 127h127q0 -109 -43 -187q-37 -66 -102 -100q-70 -39 -165 -40t-163 40q-63 37 -102 100 q-45 76 -43 187zM242 299q0 -115 94 -170q53 -31 131 -31q92 0 162 39q61 35 96 99q41 72 41 170v112h-215q-125 0 -205 -45q-53 -31 -80 -78q-24 -41 -24 -96z" />
<glyph unicode="&#x4d2;" d="M131 0v152q0 410 318 1353h126q317 -944 318 -1353v-152h-127v152q0 117 -27 276h-454q-25 -162 -27 -276v-152h-127zM205 1823q0 47 27.5 74.5t74.5 27.5t74.5 -27.5t27.5 -74.5t-27.5 -75t-74.5 -28t-74.5 28t-27.5 75zM305 543h414q-61 319 -207 788 q-146 -469 -207 -788zM615 1823q0 47 27.5 74.5t74.5 27.5t74.5 -27.5t27.5 -74.5t-27.5 -75t-74.5 -28t-74.5 28t-27.5 75z" />
<glyph unicode="&#x4d3;" d="M115 297q0 90 37 158q41 70 120 114q111 63 279 64h215v106q0 78 -33 133q-29 51 -80 80q-61 35 -147 35q-90 0 -152 -37q-49 -29 -78 -78q-23 -39 -26 -81l-123 28q8 59 37 113q43 74 117 117q92 53 225 53q129 0 221 -53q76 -45 119 -117q47 -82 47 -193v-739h-127v162 q-47 -82 -129 -127q-88 -51 -203 -51q-104 0 -176 41q-63 37 -102 102q-41 72 -41 170zM205 1403q0 47 27.5 74.5t74.5 27.5t74.5 -27.5t27.5 -74.5t-27.5 -75t-74.5 -28t-74.5 28t-27.5 75zM242 299q0 -115 94 -170q53 -31 131 -31q92 0 162 39q61 35 96 99q41 72 41 170 v112h-215q-125 0 -205 -45q-53 -31 -80 -78q-24 -41 -24 -96zM615 1403q0 47 27.5 74.5t74.5 27.5t74.5 -27.5t27.5 -74.5t-27.5 -75t-74.5 -28t-74.5 28t-27.5 75z" />
<glyph unicode="&#x4d4;" d="M131 0v152q0 412 295 1353h467v-114h-283v-521h254v-114h-254v-641h283v-115h-410v428h-202q-23 -158 -23 -276v-152h-127zM299 543h184v792q-129 -470 -184 -792z" />
<glyph unicode="&#x4d5;" d="M98 283q0 115 45 194q41 70 111 111q78 45 188 45h7v182q-2 100 -48 146q-27 27 -62.5 26.5t-59.5 -26.5q-45 -45 -48 -140v-4l-127 2v8q0 94 41 164q31 53 80 82t115 29t115 -29q33 -18 57 -49q25 31 59 49q49 29 116 29t116 -29t82 -82q41 -72 41 -176v-330h-351v-215 q0 -98 48 -143q29 -29 69.5 -29t69.5 29q47 47 47 137v4l127 -2v-8q0 -92 -41 -162q-31 -55 -82 -83.5t-120.5 -28.5t-121.5 28q-33 18 -59 51q-25 -31 -59 -51q-49 -29 -115 -28.5t-115 28.5q-51 29 -82 84q-43 76 -43 187zM225 283q0 -109 49 -158q27 -27 64 -27 q39 0 63 27q45 45 48 145v248h-7q-127 0 -184 -98q-33 -55 -33 -137zM575 600h224v215q0 100 -47 146q-27 27 -65 26.5t-64 -26.5q-45 -45 -48 -146v-215z" />
<glyph unicode="&#x4d6;" d="M197 0v1505h696v-114h-569v-521h454v-114h-454v-641h569v-115h-696zM203 1944h127q0 -76 30 -127q23 -41 61 -63.5t91 -22.5t91 22.5t61 63.5q31 51 30 127h127q0 -109 -43 -187q-37 -66 -102 -100q-70 -39 -165 -40t-163 40q-63 37 -102 100q-45 76 -43 187z" />
<glyph unicode="&#x4d7;" d="M115 451v184q0 168 65 283q51 88 135 136t197 48t197 -48t135 -136q66 -115 65 -283v-150h-667v-34q0 -131 51 -220q37 -66 96 -100q57 -33 137 -33q78 0 137.5 35t98.5 100q20 37 33 80l116 -47q-14 -49 -41 -92q-51 -90 -137 -139q-88 -51 -207.5 -51t-208.5 51 q-86 49 -137 139q-65 113 -65 277zM203 1524h127q0 -76 30 -127q23 -41 61 -63.5t91 -22.5t91 22.5t61 63.5q31 51 30 127h127q0 -109 -43 -187q-37 -66 -102 -100q-70 -39 -165 -40t-163 40q-63 37 -102 100q-45 76 -43 187zM242 600h540v35q0 135 -51 225q-37 63 -94 96 q-53 31 -125 31t-125 -31q-57 -33 -94 -96q-51 -90 -51 -225v-35z" />
<glyph unicode="&#x4d8;" d="M113 1239q14 49 41 92q51 90 137 139q88 51 207.5 51.5t208.5 -51.5q86 -49 137 -139q66 -113 65 -276v-604q0 -168 -65 -283q-51 -88 -135 -136t-197 -48t-197 48t-135 136q-66 115 -65 283v360h667v244q0 131 -51 219q-37 66 -96 100q-57 33 -137 33q-78 0 -137.5 -35 t-98.5 -100q-20 -37 -33 -80zM242 451q0 -135 51 -226q37 -63 94 -96q53 -31 125 -31t125 31q57 33 94 96q51 90 51 226v245h-540v-245z" />
<glyph unicode="&#x4d9;" d="M113 819q14 49 41 92q51 90 137 140q88 51 207.5 51t208.5 -51q86 -49 137 -140q66 -113 65 -276v-184q0 -168 -65 -283q-51 -88 -135 -136t-197 -48t-197 48t-135 136q-66 115 -65 283v149h667v35q0 131 -51 219q-37 66 -96 100q-57 33 -137 33q-78 0 -137.5 -34.5 t-98.5 -100.5q-20 -37 -33 -80zM242 451q0 -135 51 -226q37 -63 94 -96q53 -31 125 -31t125 31q57 33 94 96q51 90 51 226v34h-540v-34z" />
<glyph unicode="&#x4da;" d="M113 1239q14 49 41 92q51 90 137 139q88 51 207.5 51.5t208.5 -51.5q86 -49 137 -139q66 -113 65 -276v-604q0 -168 -65 -283q-51 -88 -135 -136t-197 -48t-197 48t-135 136q-66 115 -65 283v360h667v244q0 131 -51 219q-37 66 -96 100q-57 33 -137 33q-78 0 -137.5 -35 t-98.5 -100q-20 -37 -33 -80zM205 1823q0 47 27.5 74.5t74.5 27.5t74.5 -27.5t27.5 -74.5t-27.5 -75t-74.5 -28t-74.5 28t-27.5 75zM242 451q0 -135 51 -226q37 -63 94 -96q53 -31 125 -31t125 31q57 33 94 96q51 90 51 226v245h-540v-245zM615 1823q0 47 27.5 74.5 t74.5 27.5t74.5 -27.5t27.5 -74.5t-27.5 -75t-74.5 -28t-74.5 28t-27.5 75z" />
<glyph unicode="&#x4db;" d="M113 819q14 49 41 92q51 90 137 140q88 51 207.5 51t208.5 -51q86 -49 137 -140q66 -113 65 -276v-184q0 -168 -65 -283q-51 -88 -135 -136t-197 -48t-197 48t-135 136q-66 115 -65 283v149h667v35q0 131 -51 219q-37 66 -96 100q-57 33 -137 33q-78 0 -137.5 -34.5 t-98.5 -100.5q-20 -37 -33 -80zM205 1403q0 47 27.5 74.5t74.5 27.5t74.5 -27.5t27.5 -74.5t-27.5 -75t-74.5 -28t-74.5 28t-27.5 75zM242 451q0 -135 51 -226q37 -63 94 -96q53 -31 125 -31t125 31q57 33 94 96q51 90 51 226v34h-540v-34zM615 1403q0 47 27.5 74.5 t74.5 27.5t74.5 -27.5t27.5 -74.5t-27.5 -75t-74.5 -28t-74.5 28t-27.5 75z" />
<glyph unicode="&#x4dc;" d="M66 0l180 754l-180 751h127l165 -694h91v694h126v-694h91l165 694h127l-180 -751l180 -754h-127l-165 696h-91v-696h-126v696h-91l-165 -696h-127zM205 1823q0 47 27.5 74.5t74.5 27.5t74.5 -27.5t27.5 -74.5t-27.5 -75t-74.5 -28t-74.5 28t-27.5 75zM615 1823 q0 47 27.5 74.5t74.5 27.5t74.5 -27.5t27.5 -74.5t-27.5 -75t-74.5 -28t-74.5 28t-27.5 75z" />
<glyph unicode="&#x4dd;" d="M66 0l180 543l-180 542h127l161 -485h95v485h126v-485h95l161 485h127l-180 -542l180 -543h-127l-161 485h-95v-485h-126v485h-95l-161 -485h-127zM205 1403q0 47 27.5 74.5t74.5 27.5t74.5 -27.5t27.5 -74.5t-27.5 -75t-74.5 -28t-74.5 28t-27.5 75zM615 1403 q0 47 27.5 74.5t74.5 27.5t74.5 -27.5t27.5 -74.5t-27.5 -75t-74.5 -28t-74.5 28t-27.5 75z" />
<glyph unicode="&#x4de;" d="M104 317l125 25q8 -61 37 -111q35 -61 96 -96q63 -37 149.5 -37t150.5 37q59 35 94 94q43 74 43 185q0 106 -43 180q-76 131 -244 131h-115v115h115q147 0 215 116q39 68 39 166q0 100 -39 168q-33 55 -84 86q-55 31 -130 31t-128 -30.5t-84 -86t-39 -121.5l-125 19 q8 88 51 162q45 80 123 123q84 49 202 49t204 -49q78 -45 123 -125q53 -92 53 -224q0 -117 -47 -198q-43 -76 -121 -121q-20 -12 -43 -21q35 -12 63 -28q82 -47 129 -129q51 -90 52 -215q0 -139 -58 -240q-49 -86 -133 -135q-92 -53 -222 -53t-224 53q-84 49 -133 135 q-40 67 -52 145zM205 1823q0 47 27.5 74.5t74.5 27.5t74.5 -27.5t27.5 -74.5t-27.5 -75t-74.5 -28t-74.5 28t-27.5 75zM615 1823q0 47 27.5 74.5t74.5 27.5t74.5 -27.5t27.5 -74.5t-27.5 -75t-74.5 -28t-74.5 28t-27.5 75z" />
<glyph unicode="&#x4df;" d="M104 225l119 41q6 -18 17 -35q33 -59 92 -92q70 -41 178 -41q117 0 192 43q49 29 74 72q23 39 23 90t-23 90q-25 43 -76 72q-74 43 -188 43h-115v115h115q102 0 166 36q45 25 67 64q20 35 20.5 82t-20.5 82q-23 37 -65 63q-66 37 -168 37q-94 0 -154 -35q-49 -29 -79 -80 q-14 -23 -21 -47l-121 35q10 37 31 72q43 74 117 117q90 53 227 53q143 0 242 -55q70 -41 104 -103q35 -59 35 -139q0 -68 -29 -117q-33 -57 -98 -96q-27 -16 -57 -27q43 -14 79 -35q72 -41 107 -102q31 -55 31 -127q0 -84 -37 -147q-39 -68 -113 -109q-104 -61 -266 -61 q-152 0 -250 57q-84 49 -131 131q-15 26 -25 53zM205 1403q0 47 27.5 74.5t74.5 27.5t74.5 -27.5t27.5 -74.5t-27.5 -75t-74.5 -28t-74.5 28t-27.5 75zM615 1403q0 47 27.5 74.5t74.5 27.5t74.5 -27.5t27.5 -74.5t-27.5 -75t-74.5 -28t-74.5 28t-27.5 75z" />
<glyph unicode="&#x4e0;" d="M121 317l121 37q12 -63 41 -114q37 -61 92 -95q53 -31 124.5 -30.5t125.5 30.5q55 33 92 95q49 84 49 215q0 129 -49 215q-35 59 -88 90q-51 29 -117 28h-229v115l399 488h-551v114h705v-114l-400 -488h76q109 0 188 -47q78 -45 129 -131q63 -111 64 -270 q0 -162 -64 -273q-49 -86 -131 -133q-84 -49 -197.5 -49t-197.5 49q-82 47 -131 133q-35 61 -51 135z" />
<glyph unicode="&#x4e1;" d="M121 -103l121 37q12 -63 41 -114q37 -61 92 -95q53 -31 124.5 -30.5t125.5 30.5q55 33 92 95q49 84 49 215q0 129 -49 215q-35 59 -88 90q-51 29 -117 28h-229v115l399 488h-551v114h705v-114l-400 -488h76q109 0 188 -47q78 -45 129 -131q63 -111 64 -270 q0 -162 -64 -273q-49 -86 -131 -133q-84 -49 -197.5 -49t-197.5 49q-82 47 -131 133q-35 61 -51 135z" />
<glyph unicode="&#x4e2;" d="M131 0v1505h127v-1302l451 1302h184v-1505h-127v1303l-451 -1303h-184zM205 1766v114h614v-114h-614z" />
<glyph unicode="&#x4e3;" d="M131 0v1085h127v-940l451 940h184v-1085h-127v940l-451 -940h-184zM205 1346v114h614v-114h-614z" />
<glyph unicode="&#x4e4;" d="M131 0v1505h127v-1302l451 1302h184v-1505h-127v1303l-451 -1303h-184zM205 1823q0 47 27.5 74.5t74.5 27.5t74.5 -27.5t27.5 -74.5t-27.5 -75t-74.5 -28t-74.5 28t-27.5 75zM615 1823q0 47 27.5 74.5t74.5 27.5t74.5 -27.5t27.5 -74.5t-27.5 -75t-74.5 -28t-74.5 28 t-27.5 75z" />
<glyph unicode="&#x4e5;" d="M131 0v1085h127v-940l451 940h184v-1085h-127v940l-451 -940h-184zM205 1403q0 47 27.5 74.5t74.5 27.5t74.5 -27.5t27.5 -74.5t-27.5 -75t-74.5 -28t-74.5 28t-27.5 75zM615 1403q0 47 27.5 74.5t74.5 27.5t74.5 -27.5t27.5 -74.5t-27.5 -75t-74.5 -28t-74.5 28 t-27.5 75z" />
<glyph unicode="&#x4e6;" d="M115 399v707q0 137 55 235q47 82 131 129q88 51 211 51.5t211 -51.5q82 -47 131 -129q55 -98 55 -235v-707q0 -137 -55 -235q-47 -82 -131 -129q-88 -51 -211 -51t-211 51q-82 47 -131 129q-55 98 -55 235zM205 1823q0 47 27.5 74.5t74.5 27.5t74.5 -27.5t27.5 -74.5 t-27.5 -75t-74.5 -28t-74.5 28t-27.5 75zM242 399q0 -104 43 -176q33 -59 88 -92q57 -33 138 -33t140 33q55 33 88 92q41 72 43 176v707q0 104 -43 176q-33 59 -88 92q-59 33 -139 33t-139 -33q-55 -33 -88 -92q-41 -72 -43 -176v-707zM615 1823q0 47 27.5 74.5t74.5 27.5 t74.5 -27.5t27.5 -74.5t-27.5 -75t-74.5 -28t-74.5 28t-27.5 75z" />
<glyph unicode="&#x4e7;" d="M115 451v184q0 168 65 283q51 88 135 136t197 48t197 -48t135 -136q66 -115 65 -283v-184q0 -168 -65 -283q-51 -88 -135 -136t-197 -48t-197 48t-135 136q-65 115 -65 283zM205 1403q0 47 27.5 74.5t74.5 27.5t74.5 -27.5t27.5 -74.5t-27.5 -75t-74.5 -28t-74.5 28 t-27.5 75zM242 451q0 -135 51 -226q37 -63 94 -96q53 -31 125 -31t125 31q57 33 94 96q51 90 51 226v184q0 135 -51 225q-37 63 -94 96q-53 31 -125 31t-125 -31q-57 -33 -94 -96q-51 -90 -51 -225v-184zM615 1403q0 47 27.5 74.5t74.5 27.5t74.5 -27.5t27.5 -74.5 t-27.5 -75t-74.5 -28t-74.5 28t-27.5 75z" />
<glyph unicode="&#x4e8;" d="M115 399v707q0 137 55 235q47 82 131 129q88 51 211 51.5t211 -51.5q82 -47 131 -129q55 -98 55 -235v-707q0 -137 -55 -235q-47 -82 -131 -129q-88 -51 -211 -51t-211 51q-82 47 -131 129q-55 98 -55 235zM242 399q0 -104 43 -176q33 -59 88 -92q57 -33 138 -33t140 33 q55 33 88 92q41 72 43 176v297h-540v-297zM242 811h540v295q0 104 -43 176q-33 59 -88 92q-59 33 -139 33t-139 -33q-55 -33 -88 -92q-41 -72 -43 -176v-295z" />
<glyph unicode="&#x4e9;" d="M115 451v184q0 168 65 283q51 88 135 136t197 48t197 -48t135 -136q66 -115 65 -283v-184q0 -168 -65 -283q-51 -88 -135 -136t-197 -48t-197 48t-135 136q-65 115 -65 283zM242 451q0 -135 51 -226q37 -63 94 -96q53 -31 125 -31t125 31q57 33 94 96q51 90 51 226v34 h-540v-34zM242 600h540v35q0 135 -51 225q-37 63 -94 96q-53 31 -125 31t-125 -31q-57 -33 -94 -96q-51 -90 -51 -225v-35z" />
<glyph unicode="&#x4ea;" d="M115 399v707q0 137 55 235q47 82 131 129q88 51 211 51.5t211 -51.5q82 -47 131 -129q55 -98 55 -235v-707q0 -137 -55 -235q-47 -82 -131 -129q-88 -51 -211 -51t-211 51q-82 47 -131 129q-55 98 -55 235zM205 1823q0 47 27.5 74.5t74.5 27.5t74.5 -27.5t27.5 -74.5 t-27.5 -75t-74.5 -28t-74.5 28t-27.5 75zM242 399q0 -104 43 -176q33 -59 88 -92q57 -33 138 -33t140 33q55 33 88 92q41 72 43 176v297h-540v-297zM242 811h540v295q0 104 -43 176q-33 59 -88 92q-59 33 -139 33t-139 -33q-55 -33 -88 -92q-41 -72 -43 -176v-295zM615 1823 q0 47 27.5 74.5t74.5 27.5t74.5 -27.5t27.5 -74.5t-27.5 -75t-74.5 -28t-74.5 28t-27.5 75z" />
<glyph unicode="&#x4eb;" d="M115 451v184q0 168 65 283q51 88 135 136t197 48t197 -48t135 -136q66 -115 65 -283v-184q0 -168 -65 -283q-51 -88 -135 -136t-197 -48t-197 48t-135 136q-65 115 -65 283zM205 1403q0 47 27.5 74.5t74.5 27.5t74.5 -27.5t27.5 -74.5t-27.5 -75t-74.5 -28t-74.5 28 t-27.5 75zM242 451q0 -135 51 -226q37 -63 94 -96q53 -31 125 -31t125 31q57 33 94 96q51 90 51 226v34h-540v-34zM242 600h540v35q0 135 -51 225q-37 63 -94 96q-53 31 -125 31t-125 -31q-57 -33 -94 -96q-51 -90 -51 -225v-35zM615 1403q0 47 27.5 74.5t74.5 27.5 t74.5 -27.5t27.5 -74.5t-27.5 -75t-74.5 -28t-74.5 28t-27.5 75z" />
<glyph unicode="&#x4ec;" d="M121 317l125 23q8 -66 39 -117q35 -59 90 -92q59 -33 138 -33t138 33q55 33 88 92q43 74 43 176v297h-460v115h460v295q0 104 -43 176q-33 57 -88 92q-57 33 -139 33q-80 -2 -137 -35q-55 -33 -90 -90q-31 -53 -39 -117l-125 23q10 84 51 153q47 82 129 129 q88 51 211 51.5t213 -51.5q82 -47 127 -129q57 -98 57 -235v-707q0 -137 -57 -235q-47 -82 -127 -129q-88 -51 -212 -51t-212 51q-82 47 -129 129q-41 69 -51 153zM205 1823q0 47 27.5 74.5t74.5 27.5t74.5 -27.5t27.5 -74.5t-27.5 -75t-74.5 -28t-74.5 28t-27.5 75z M615 1823q0 47 27.5 74.5t74.5 27.5t74.5 -27.5t27.5 -74.5t-27.5 -75t-74.5 -28t-74.5 28t-27.5 75z" />
<glyph unicode="&#x4ed;" d="M121 317l121 37q12 -70 45 -127q37 -63 94 -98q55 -31 129 -31q72 0 127 31q57 33 94 98q51 90 51 224v34h-460v115h460v35q0 135 -51 223q-37 63 -94 98q-55 31 -127 31q-74 0 -129 -31q-57 -33 -94 -98q-33 -55 -45 -127l-121 37q14 80 53 147q51 88 135 137.5 t200 49.5t200 -49t135 -138q66 -115 65 -280v-184q0 -166 -65 -281q-51 -88 -135 -137t-199 -49t-201 49q-84 49 -135 137q-39 67 -53 147zM205 1403q0 47 27.5 74.5t74.5 27.5t74.5 -27.5t27.5 -74.5t-27.5 -75t-74.5 -28t-74.5 28t-27.5 75zM615 1403q0 47 27.5 74.5 t74.5 27.5t74.5 -27.5t27.5 -74.5t-27.5 -75t-74.5 -28t-74.5 28t-27.5 75z" />
<glyph unicode="&#x4ee;" d="M131 1430v75h127v-75q0 -100 64 -283l188 -545l192 545q63 180 64 283v75h127v-75q0 -121 -72 -322l-329 -942q-16 -49 -19 -152v-14h-127v14q0 119 25 191l75 217l-243 686q-72 199 -72 322zM205 1766v114h614v-114h-614z" />
<glyph unicode="&#x4ef;" d="M131 1010v75h127v-75q0 -100 64 -283l188 -545l192 545q63 180 64 283v75h127v-75q0 -121 -72 -322l-329 -942q-16 -49 -19 -152v-14h-127v14q0 119 25 191l75 217l-243 686q-72 199 -72 322zM205 1346v114h614v-114h-614z" />
<glyph unicode="&#x4f0;" d="M131 1430v75h127v-75q0 -100 64 -283l188 -545l192 545q63 180 64 283v75h127v-75q0 -121 -72 -322l-329 -942q-16 -49 -19 -152v-14h-127v14q0 119 25 191l75 217l-243 686q-72 199 -72 322zM205 1823q0 47 27.5 74.5t74.5 27.5t74.5 -27.5t27.5 -74.5t-27.5 -75 t-74.5 -28t-74.5 28t-27.5 75zM615 1823q0 47 27.5 74.5t74.5 27.5t74.5 -27.5t27.5 -74.5t-27.5 -75t-74.5 -28t-74.5 28t-27.5 75z" />
<glyph unicode="&#x4f1;" d="M131 1010v75h127v-75q0 -100 64 -283l188 -545l192 545q63 180 64 283v75h127v-75q0 -121 -72 -322l-329 -942q-16 -49 -19 -152v-14h-127v14q0 119 25 191l75 217l-243 686q-72 199 -72 322zM205 1403q0 47 27.5 74.5t74.5 27.5t74.5 -27.5t27.5 -74.5t-27.5 -75 t-74.5 -28t-74.5 28t-27.5 75zM615 1403q0 47 27.5 74.5t74.5 27.5t74.5 -27.5t27.5 -74.5t-27.5 -75t-74.5 -28t-74.5 28t-27.5 75z" />
<glyph unicode="&#x4f2;" d="M131 1430v75h127v-75q0 -100 64 -283l188 -545l192 545q63 180 64 283v75h127v-75q0 -121 -72 -322l-329 -942q-16 -49 -19 -152v-14h-127v14q0 119 25 191l75 217l-243 686q-72 199 -72 322zM232 1649l258 334l106 -80l-276 -320zM580 1649l258 334l106 -80l-276 -320z " />
<glyph unicode="&#x4f3;" d="M131 1010v75h127v-75q0 -100 64 -283l188 -545l192 545q63 180 64 283v75h127v-75q0 -121 -72 -322l-329 -942q-16 -49 -19 -152v-14h-127v14q0 119 25 191l75 217l-243 686q-72 199 -72 322zM232 1229l258 334l106 -80l-276 -320zM580 1229l258 334l106 -80l-276 -320z " />
<glyph unicode="&#x4f4;" d="M131 868v637h127v-637q0 -98 41 -168q68 -117 213 -116h254v921h127v-1505h-127v469h-254q-119 0 -205 49q-78 45 -123 125q-53 94 -53 225zM205 1823q0 47 27.5 74.5t74.5 27.5t74.5 -27.5t27.5 -74.5t-27.5 -75t-74.5 -28t-74.5 28t-27.5 75zM615 1823q0 47 27.5 74.5 t74.5 27.5t74.5 -27.5t27.5 -74.5t-27.5 -75t-74.5 -28t-74.5 28t-27.5 75z" />
<glyph unicode="&#x4f5;" d="M131 776v309h127v-309q0 -98 41 -168q68 -117 213 -116h254v593h127v-1085h-127v377h-254q-119 0 -205 49q-78 45 -123 125q-53 94 -53 225zM205 1403q0 47 27.5 74.5t74.5 27.5t74.5 -27.5t27.5 -74.5t-27.5 -75t-74.5 -28t-74.5 28t-27.5 75zM615 1403q0 47 27.5 74.5 t74.5 27.5t74.5 -27.5t27.5 -74.5t-27.5 -75t-74.5 -28t-74.5 28t-27.5 75z" />
<glyph unicode="&#x4f8;" d="M115 0v1505h127v-620h12q137 0 235 -56q88 -51 140 -139q59 -102 58 -246.5t-58 -246.5q-51 -88 -140 -142q-98 -55 -235 -55h-139zM205 1823q0 47 27.5 74.5t74.5 27.5t74.5 -27.5t27.5 -74.5t-27.5 -75t-74.5 -28t-74.5 28t-27.5 75zM242 115h12q92 0 160 39 q63 37 100 100q45 78 45 188.5t-45 188.5q-37 66 -100 100q-68 39 -160 39h-12v-655zM615 1823q0 47 27.5 74.5t74.5 27.5t74.5 -27.5t27.5 -74.5t-27.5 -75t-74.5 -28t-74.5 28t-27.5 75zM782 0v1505h127v-1505h-127z" />
<glyph unicode="&#x4f9;" d="M115 0v1085h127v-430h120q102 0 179 -43q66 -39 102 -104q43 -76 43 -181.5t-43 -181.5q-39 -66 -102 -102q-74 -43 -179 -43h-247zM205 1403q0 47 27.5 74.5t74.5 27.5t74.5 -27.5t27.5 -74.5t-27.5 -75t-74.5 -28t-74.5 28t-27.5 75zM242 115h120q59 0 103 24 q41 23 65 66q29 51 29 122.5t-29 123.5q-25 41 -65 63q-43 27 -103 27h-120v-426zM615 1403q0 47 27.5 74.5t74.5 27.5t74.5 -27.5t27.5 -74.5t-27.5 -75t-74.5 -28t-74.5 28t-27.5 75zM782 0v1085h127v-1085h-127z" />
<glyph unicode="&#x2000;" horiz-adv-x="991" />
<glyph unicode="&#x2001;" horiz-adv-x="1983" />
<glyph unicode="&#x2002;" horiz-adv-x="991" />
<glyph unicode="&#x2003;" horiz-adv-x="1983" />
<glyph unicode="&#x2004;" horiz-adv-x="661" />
<glyph unicode="&#x2005;" horiz-adv-x="495" />
<glyph unicode="&#x2006;" horiz-adv-x="330" />
<glyph unicode="&#x2007;" horiz-adv-x="330" />
<glyph unicode="&#x2008;" horiz-adv-x="247" />
<glyph unicode="&#x2009;" horiz-adv-x="396" />
<glyph unicode="&#x200a;" horiz-adv-x="110" />
<glyph unicode="&#x2010;" d="M131 621v114h762v-114h-762z" />
<glyph unicode="&#x2011;" d="M131 621v114h762v-114h-762z" />
<glyph unicode="&#x2012;" d="M131 621v114h762v-114h-762z" />
<glyph unicode="&#x2013;" d="M131 621v114h762v-114h-762z" />
<glyph unicode="&#x2014;" d="M0 621v114h1024v-114h-1024z" />
<glyph unicode="&#x2018;" d="M377 1063q0 246 143 491q12 23 27 45l108 -61q-12 -18 -24 -39q-88 -152 -113 -303q78 -2 111 -59q18 -31 18 -74t-18 -74q-16 -27 -43 -43q-31 -18 -74 -18t-74 18q-27 16 -43 43q-18 31 -18 74z" />
<glyph unicode="&#x2019;" d="M369 965q12 18 24 39q88 152 113 303q-78 2 -111 61q-18 31 -18 73t18 72q16 27 43 43q31 18 74 18.5t74 -18.5q27 -16 43 -43q18 -31 18 -73q0 -246 -143 -492q-12 -23 -27 -45z" />
<glyph unicode="&#x201a;" d="M369 -358q12 18 24 39q88 152 113 303q-78 2 -111 61q-18 31 -18 73t18 72q16 27 43 43q31 18 74 18.5t74 -18.5q27 -16 43 -43q18 -31 18 -73q0 -246 -143 -492q-12 -23 -27 -45z" />
<glyph unicode="&#x201c;" d="M148 1063q0 246 143 491q12 23 27 45l108 -61q-12 -18 -24 -39q-88 -152 -113 -303q78 -2 111 -59q18 -31 18 -74t-18 -74q-16 -27 -43 -43q-31 -18 -74 -18t-74 18q-27 16 -43 43q-18 31 -18 74zM606 1063q0 246 143 491q12 23 27 45l108 -61q-12 -18 -24 -39 q-88 -152 -113 -303q78 -2 111 -59q18 -31 18 -74t-18 -74q-16 -27 -43 -43q-31 -18 -74 -18t-74 18q-27 16 -43 43q-18 31 -18 74z" />
<glyph unicode="&#x201d;" d="M140 965q12 18 24 39q88 152 113 303q-78 2 -111 61q-18 31 -18 73t18 72q16 27 43 43q31 18 74 18.5t74 -18.5q27 -16 43 -43q18 -31 18 -73q0 -246 -143 -492q-12 -23 -27 -45zM598 965q12 18 24 39q88 152 113 303q-78 2 -111 61q-18 31 -18 73t18 72q16 27 43 43 q31 18 74 18.5t74 -18.5q27 -16 43 -43q18 -31 18 -73q0 -246 -143 -492q-12 -23 -27 -45z" />
<glyph unicode="&#x201e;" d="M140 -358q12 18 24 39q88 152 113 303q-78 2 -111 61q-18 31 -18 73t18 72q16 27 43 43q31 18 74 18.5t74 -18.5q27 -16 43 -43q18 -31 18 -73q0 -246 -143 -492q-12 -23 -27 -45zM598 -358q12 18 24 39q88 152 113 303q-78 2 -111 61q-18 31 -18 73t18 72q16 27 43 43 q31 18 74 18.5t74 -18.5q27 -16 43 -43q18 -31 18 -73q0 -246 -143 -492q-12 -23 -27 -45z" />
<glyph unicode="&#x2022;" d="M377 679q0 42 18 72q16 27 43 43q31 18 74 18.5t74 -18.5q27 -16 43 -43q18 -31 18 -72.5t-18 -72.5q-16 -27 -43 -43q-31 -18 -74 -18t-74 18q-27 16 -43 43q-18 31 -18 73z" />
<glyph unicode="&#x2026;" d="M88 66.5q0 37.5 22.5 59t59.5 21.5t59.5 -21.5t22.5 -59t-22.5 -60t-59.5 -22.5t-59.5 22.5t-22.5 60zM430 66.5q0 37.5 22.5 59t59.5 21.5t59.5 -21.5t22.5 -59t-22.5 -60t-59.5 -22.5t-59.5 22.5t-22.5 60zM772 66.5q0 37.5 22.5 59t59.5 21.5t59.5 -21.5t22.5 -59 t-22.5 -60t-59.5 -22.5t-59.5 22.5t-22.5 60z" />
<glyph unicode="&#x202f;" horiz-adv-x="396" />
<glyph unicode="&#x2039;" d="M264 621v114q152 90 264 285q57 98 97 205l118 -43q-33 -78 -77 -152q-133 -231 -306 -352q172 -121 306 -352q43 -74 77 -150l-118 -45q-41 106 -97 207q-110 193 -264 283z" />
<glyph unicode="&#x203a;" d="M281 176q33 78 77 150q133 231 306 352q-172 121 -306 352q-43 74 -77 152l118 43q41 -106 97 -205q111 -193 264 -285v-114q-152 -90 -264 -283q-57 -98 -97 -207z" />
<glyph unicode="&#x205f;" horiz-adv-x="495" />
<glyph unicode="&#x20ac;" d="M39 545v114h76v187h-76v115h76v145q0 137 57 235q47 82 127 129q88 51 212 51.5t212 -51.5q82 -47 129 -129q41 -70 51 -153l-125 -23q-8 66 -39 117q-35 57 -90 90q-59 33 -138 34t-138 -32q-55 -33 -88 -92q-43 -74 -43 -176v-145h422v-115h-422v-187h422v-114h-422 v-146q0 -104 43 -176q33 -57 88 -92q57 -33 138 -33t138 33q55 33 90 92q31 53 39 117l125 -23q-10 -84 -51 -153q-47 -82 -129 -129q-88 -51 -211 -51t-213 51q-82 47 -127 129q-57 98 -57 235v146h-76z" />
<glyph unicode="&#x2122;" d="M16 1540v92h611l131 -450l131 450h119v-844h-103v170q0 158 10 336q4 90 9 176l-125 -428h-82l-125 428q2 -84 8 -176q10 -180 10 -336v-170h-102v752h-191v-752h-102v752h-199z" />
<glyph unicode="&#x25fc;" horiz-adv-x="1085" d="M0 0v1085h1085v-1085h-1085z" />
</font>
</defs>
</svg>
