<?xml version="1.0" encoding="UTF-8" standalone="no"?>
<svg
    id="favicon"
    xmlns:rdf="http://www.w3.org/1999/02/22-rdf-syntax-ns#"
    xmlns="http://www.w3.org/2000/svg"
    viewBox="0 0 77.425003 87.996002"
    height="87.996"
    width="77.425"
    version="1.1"
    xmlns:cc="http://creativecommons.org/ns#"
    xmlns:dc="http://purl.org/dc/elements/1.1/">
    <g transform="translate(-.5 -1.002)">
        <path
            fill="#fe6762"
            d="m19.5 78.134-19-10.861v-44.546l19-10.861c10.45-5.9737 19.371-10.862 19.825-10.864 0.454-0.0009 9.325 4.8355 19.713 10.748l18.887 10.75v22.5l-0.001 22.5-18.838 10.75c-10.361 5.912-19.232 10.749-19.712 10.748-0.481-0.002-9.424-4.89-19.874-10.864zm27.663-18.346c7.237-4.067 10.47-12.944 7.395-20.303-3.631-8.69-8.867-11.485-21.518-11.485h-9.04v34h9.6138c8.068 0 10.247-0.35566 13.549-2.2119zm-15.163-14.788v-10h2.8508c4.7864 0 9.1268 2.056 10.68 5.0588 3.883 7.51-0.57 14.941-8.954 14.941h-4.577v-10z"/>
    </g>
</svg>
