<?xml version="1.0" encoding="UTF-8" standalone="no"?>
<svg id="svg4136" xmlns:rdf="http://www.w3.org/1999/02/22-rdf-syntax-ns#" xmlns="http://www.w3.org/2000/svg" height="86" viewBox="0 0 74 86" width="74" version="1.1" xmlns:cc="http://creativecommons.org/ns#" xmlns:dc="http://purl.org/dc/elements/1.1/">
 <g id="g5046" transform="translate(.40566 .81132)">
  <path id="path5052" fill="#fe8985" d="m18.14 74.997-18.065-10.794 0.001403-21.801 0.001003-21.802 18.312-10.819 18.311-10.818 18.312 10.818 18.311 10.819l0.0057 21.802 0.0057 21.802-18.01 10.647c-9.905 5.856-18.26 10.713-18.565 10.794-0.305 0.08-8.684-4.711-18.619-10.648zm17.568-24.99v-6.5912h-4.4635-4.4635v-3.644-3.644l1.9838-0.53035 1.9838-0.53035v-4.0478-4.0478l-2.7277 0.69595c-6.2527 1.5953-8.1689 6.2955-8.1775 20.058l-0.0056 8.8728h7.935 7.935v-6.5912zm17.854 0v-6.5912h-3.9987-3.9986l-0.57178-1.5233c-0.31448-0.83783-0.29196-2.6631 0.05002-4.0561l0.62182-2.5328h1.4689 1.4689v-4.1661-4.1661l-2.7277 0.69595c-5.9918 1.5288-8.183 7.2525-8.183 21.376v7.5553h7.935 7.935v-6.5912z"/>
  <path id="path5050" fill="#fe817d" d="m19.59 72.079-16.614-9.8323v-19.849-19.849l16.862-9.9427 16.862-9.9427 16.862 9.9427 16.862 9.9427v19.853 19.853l-16.7 9.8472c-19.846 11.702-14.316 11.706-34.134-0.023zm15.915-22.326-0.29329-6.8447-3.7196-0.31472-3.7195-0.31472v-3.0127-3.0127l1.4878-0.58368 1.4878-0.58369v-3.9476-3.9476h-2.049c-3.3491 0-5.965 1.9734-7.4579 5.6262l-1.4039 3.4349v10.173 10.173h7.9804 7.9804l-0.29329-6.8447zm18.056-0.25351v-7.0982h-3.9675-3.9675v-3.0739-3.0739l1.4878-0.58368 1.4878-0.58369v-3.9476-3.9476h-1.4412c-0.79263 0-2.5538 0.51828-3.9137 1.1517l-2.4726 1.1517-1.5416 3.9389-1.5416 3.9389v9.6128 9.6128h7.935 7.935v-7.0982z"/>
  <path id="path5048" fill="#fe635e" d="m19.605 71.491-15.607-9.316-0.0051-19.773-0.0049-19.774 15.564-9.126c8.5601-5.0195 16.277-9.1263 17.148-9.1263 0.87154 0 8.5883 4.1068 17.148 9.1263l15.564 9.1263v19.774 19.774l-15.523 9.126c-19.14 11.252-15.781 11.234-34.284 0.189zm16.103-21.991v-7.0982h-3.9675-3.9675v-3.0421-3.0421h1.4878 1.4878v-4.5632-4.5631h-2.049c-3.1199 0-5.7066 1.7739-7.3636 5.0499l-1.4981 2.9617v10.698 10.698h7.935 7.935v-7.0982zm17.854 0v-7.0982h-3.9675-3.9675v-2.9238-2.9238l1.9838-0.53034 1.9838-0.53035v-4.1511-4.1511h-2.5449c-3.8341 0-6.3946 1.8112-7.9538 5.6262l-1.4039 3.4349v10.173 10.173h7.935 7.935v-7.0982z"/>
 </g>
</svg>
