<?xml version="1.0" encoding="utf-8"?>
<svg xmlns="http://www.w3.org/2000/svg" xmlns:xlink="http://www.w3.org/1999/xlink">
    <symbol viewBox="-2 -2 78 90" id="guotes"><path fill-rule="evenodd" fill="#FE8682" d="M37 0L0 21.5v43L37 86l37-21.5v-43z"/><path fill-rule="evenodd" fill="#FC635E" d="M37 4.5L3.7 23.7v38.6L37 81.5l33.3-19.2V23.7z"/><path fill-rule="evenodd" fill="#FFF" d="M27.3 41.2c0-4.3 0-5.1 3.6-5.1V28C22.4 28 20 33.7 20 43.7V57h15.8V43.7h-8.5v-2.5zm18.2 2.5v-2.5c0-4.3 0-5.1 3.6-5.1V28c-8.5 0-10.9 5.7-10.9 15.7V57H54V43.7h-8.5z"/></symbol>
    <symbol viewBox="-0 0 211.5 93.89" id="logo1"><path
        d="M19.5 78.305L.5 67.444V22.898l19-10.861C29.95 6.063 38.871 1.175 39.325 1.173c.454 0 9.325 4.836 19.713 10.748l18.887 10.75v22.5l-.001 22.5-18.838 10.75C48.725 84.333 39.854 89.17 39.374 89.169c-.481-.002-9.424-4.89-19.874-10.864zm27.663-18.346c7.237-4.067 10.47-12.944 7.395-20.303-3.631-8.69-8.867-11.485-21.518-11.485H24v34h9.614c8.068 0 10.247-.356 13.549-2.212zM32 45.171v-10h2.85c4.787 0 9.128 2.056 10.68 5.059 3.884 7.51-.57 14.94-8.953 14.94H32v-10z"
        fill="#fe6762"/>
        <g fill="#fff"><path
            d="M101.33 58.466v-28h10.92q6.56 0 10.72 4 4.16 3.96 4.16 10 0 6-4.2 10-4.16 4-10.68 4h-10.92zm6.16-5.56h4.76q3.8 0 6.12-2.32 2.32-2.36 2.32-6.12 0-3.72-2.36-6.08-2.32-2.36-6.08-2.36h-4.76v16.88zM138.02 58.866q-3.16 0-5.28-1.76-2.08-1.76-2.08-4.88 0-3.4 2.32-5.12 2.36-1.72 6.32-1.72 2.68 0 5.24.88v-.36q0-3.92-4.6-3.92-2.76 0-5.92 1.16l-1.52-4.64q3.92-1.72 8.32-1.72 4.84 0 7.24 2.4 2.32 2.32 2.32 6.84v12.44h-5.88v-2.32q-2.44 2.72-6.48 2.72zm1.84-4.2q2.12 0 3.44-1.04 1.32-1.08 1.32-2.72v-1.08q-1.72-.8-3.88-.8-2 0-3.12.8-1.08.76-1.08 2.24 0 1.2.92 1.92.92.68 2.4.68zM155.74 34.666v-5.4h6.4v5.4h-6.4zm.16 23.8v-21.44h6.08v21.44h-6.08zM175.17 58.866q-5.08 0-9.2-3.24l2.6-4q3.52 2.56 6.76 2.56 2.56 0 2.56-1.68 0-.2-.08-.4-.04-.2-.2-.36t-.36-.28q-.16-.16-.48-.28-.28-.16-.52-.24-.2-.12-.6-.24-.4-.16-.68-.24t-.76-.2q-.48-.16-.76-.24-1.36-.4-2.32-.8-.92-.44-1.96-1.16-1.04-.76-1.6-1.88-.52-1.16-.52-2.68 0-3.16 2.24-4.96 2.24-1.84 5.6-1.84 4.32 0 8 2.48l-2.32 4.2q-3.4-2-5.8-2-2.24 0-2.24 1.56 0 1.08 3.68 2.32.44.16.68.24 1.08.36 1.84.68t1.72.88 1.52 1.2q.6.6 1 1.56t.4 2.12q0 3.44-2.28 5.2-2.24 1.72-5.92 1.72zM192.22 64.986q-2.88 0-5.4-1.48l2.04-4.4q1.4.84 2.6.84 1.44 0 2.12-1.4l-8.4-21.52h6.44l4.88 14.6 4.68-14.6h6.32l-8.24 21.96q-1.24 3.32-2.8 4.64-1.56 1.36-4.24 1.36z"/></g>
    </symbol>
    <symbol viewBox="-2 -2 105 120" id="hexagon-bg"><path d="M25.132 101.26L0 86.742V29.258l25.132-14.519L50.264.22l15.618 9.022A7723.323 7723.323 0 0 1 90.75 23.665l9.25 5.4v57.87l-9.25 5.4a7995.87 7995.87 0 0 1-24.868 14.424l-15.618 9.022-25.132-14.52z" fill="#fe8884"/><path d="M27.5 97.023l-22-12.807V31.788l22.365-12.91L50.23 5.969l22.347 12.766L94.925 31.5v53L72.604 97.25c-12.276 7.013-22.497 12.712-22.712 12.665-.215-.047-10.292-5.848-22.392-12.892z" fill="#fe625d"/></symbol>
  </svg>
